{
.appVersion = "1015";
DisplayStrings = (
"b\U00E6ilder",
"+/minus \U00D7\U00F7-=/notequal//  ></greaterequal/lessequal \U00B1/approxequal \012~D",
"/euro \U00A51234567890\0122017\012\012c/oe \U00E6eoa bCGe /euro.tf/zero.tf/one.tf/two.tf/three.tf/four.tf/five.tf/six.tf/seven.tf/eight.tf/nine.tf",
"\U00A7Union",
"",
/Gbreve,
/Gdotaccent,
/c_t,
g/gcommaaccent,
/gbreve,
"/infinity/integral EF/product/summation/radical/partialdiff f/_cap.stm.btm.3/_stem.5 p\U00B6"
);
date = "2013-12-03 08:09:39 +0000";
familyName = TTenderness;
featurePrefixes = (
{
automatic = 1;
code = "languagesystem DFLT dflt;\012";
name = Languagesystems;
}
);
features = (
{
automatic = 1;
code = "feature tnum;\012";
name = aalt;
},
{
automatic = 1;
code = "sub zero by zero.tf;\012sub one by one.tf;\012sub two by two.tf;\012sub three by three.tf;\012sub four by four.tf;\012sub five by five.tf;\012sub six by six.tf;\012sub seven by seven.tf;\012sub eight by eight.tf;\012sub nine by nine.tf;\012sub cent by cent.tf;\012sub currency by currency.tf;\012sub dollar by dollar.tf;\012sub euro by euro.tf;\012sub sterling by sterling.tf;\012sub yen by yen.tf;\012";
name = tnum;
},
{
automatic = 1;
code = "sub c t by c_t;\012sub f i by f_i;\012sub f l by f_l;\012sub s t by s_t;\012";
name = dlig;
},
{
automatic = 1;
code = "sub f f l by f_f_l;\012sub f f i by f_f_i;\012";
name = liga;
}
);
fontMaster = (
{
ascender = 747;
capHeight = 650;
descender = -253;
guideLines = (
{
locked = 1;
position = "{0, 510}";
}
);
horizontalStems = (
49,
40
);
id = "4A3087DE-C6CF-4F86-8B90-A264D0797279";
userData = {
GSCornerRadius = 45;
};
verticalStems = (
62
);
xHeight = 450;
}
);
glyphs = (
{
glyphname = A;
lastChange = "2017-05-02 09:37:45 +0000";
layers = (
{
anchors = (
{
name = bottom;
position = "{331, 0}";
},
{
name = ogonek;
position = "{595, 10}";
},
{
name = top;
position = "{331, 650}";
}
);
hints = (
{
origin = "{1, 16}";
type = Corner;
name = _corner.STM.btm.1;
},
{
origin = "{1, 7}";
scale = "{-1, 1}";
type = Corner;
name = _corner.STM.btm.1;
options = 1;
}
);
layerId = "4A3087DE-C6CF-4F86-8B90-A264D0797279";
paths = (
{
closed = 1;
nodes = (
"184 290 LINE",
"463 290 LINE",
"449 320 LINE",
"198 320 LINE"
);
},
{
closed = 1;
nodes = (
"173 194 OFFCURVE",
"242 364 OFFCURVE",
"327 558 CURVE",
"310 558 LINE",
"384 392 OFFCURVE",
"463 191 OFFCURVE",
"533 0 CURVE",
"613 0 LINE",
"434 421 LINE SMOOTH",
"400 501 OFFCURVE",
"367 585 OFFCURVE",
"339 660 CURVE",
"326 660 LINE",
"298 580 OFFCURVE",
"265 500 OFFCURVE",
"230 418 CURVE SMOOTH",
"53 0 LINE",
"103 0 LINE"
);
}
);
width = 661;
}
);
unicode = 0041;
},
{
glyphname = AE;
lastChange = "2017-05-02 09:28:41 +0000";
layers = (
{
hints = (
{
origin = "{1, 10}";
type = Corner;
name = _corner.STM.btm.1;
},
{
origin = "{3, 2}";
type = Corner;
name = _corner.STM.btm.1;
}
);
layerId = "4A3087DE-C6CF-4F86-8B90-A264D0797279";
paths = (
{
closed = 1;
nodes = (
"233 290 LINE",
"452 290 LINE",
"438 320 LINE",
"251 320 LINE"
);
},
{
closed = 1;
nodes = (
"192 182 OFFCURVE",
"316 399 OFFCURVE",
"439 601 CURVE",
"515 650 LINE",
"473 650 OFFCURVE",
"446 650 OFFCURVE",
"411 652 CURVE",
"392 599 OFFCURVE",
"349 513 OFFCURVE",
"292 418 CURVE SMOOTH",
"42 0 LINE",
"96 0 LINE"
);
},
{
closed = 1;
nodes = (
"476 338 LINE",
"586 338 LINE SMOOTH",
"615 338 OFFCURVE",
"637 338 OFFCURVE",
"665 336 CURVE",
"671 336 OFFCURVE",
"672 338 OFFCURVE",
"672 370 CURVE",
"643 369 OFFCURVE",
"618 368 OFFCURVE",
"586 368 CURVE SMOOTH",
"476 368 LINE"
);
},
{
closed = 1;
nodes = (
"486 650 LINE",
"428 650 LINE",
"428 0 LINE",
"486 0 LINE"
);
},
{
closed = 1;
nodes = (
"497 620 OFFCURVE",
"521 622 OFFCURVE",
"569 622 CURVE SMOOTH",
"627 622 OFFCURVE",
"677 604 OFFCURVE",
"707 563 CURVE",
"726 566 OFFCURVE",
"729 568 OFFCURVE",
"729 570 CURVE SMOOTH",
"729 575 OFFCURVE",
"727 582 OFFCURVE",
"706 653 CURVE",
"675 651 OFFCURVE",
"623 650 OFFCURVE",
"577 650 CURVE SMOOTH",
"537 650 OFFCURVE",
"497 650 OFFCURVE",
"457 650 CURVE",
"468 615 LINE"
);
},
{
closed = 1;
nodes = (
"564 28 OFFCURVE",
"526 32 OFFCURVE",
"507 47 CURVE SMOOTH",
"490 60 OFFCURVE",
"486 89 OFFCURVE",
"486 162 CURVE",
"479 0 LINE",
"606 0 LINE SMOOTH",
"664 0 OFFCURVE",
"717 0 OFFCURVE",
"770 -2 CURVE",
"789 68 OFFCURVE",
"790 73 OFFCURVE",
"790 75 CURVE SMOOTH",
"790 78 OFFCURVE",
"789 79 OFFCURVE",
"773 80 CURVE",
"726 37 OFFCURVE",
"685 28 OFFCURVE",
"616 28 CURVE SMOOTH"
);
}
);
width = 814;
}
);
rightMetricsKey = E;
unicode = 00C6;
},
{
glyphname = B;
lastChange = "2017-05-10 22:06:58 +0000";
layers = (
{
hints = (
{
origin = "{1, 1}";
type = Corner;
name = _corner.STM.btm.1;
},
{
origin = "{1, 0}";
scale = "{-1, 1}";
type = Corner;
name = _corner.STM.top.1;
}
);
layerId = "4A3087DE-C6CF-4F86-8B90-A264D0797279";
paths = (
{
closed = 1;
nodes = (
"127 0 LINE",
"169 0 OFFCURVE",
"205 -4 OFFCURVE",
"229 -4 CURVE SMOOTH",
"360 -4 OFFCURVE",
"492 46 OFFCURVE",
"492 183 CURVE SMOOTH",
"492 285 OFFCURVE",
"408 356 OFFCURVE",
"276 353 CURVE",
"270 349 LINE",
"341 363 OFFCURVE",
"411 420 OFFCURVE",
"411 505 CURVE SMOOTH",
"411 586 OFFCURVE",
"351 654 OFFCURVE",
"224 654 CURVE SMOOTH",
"188 654 OFFCURVE",
"163 650 OFFCURVE",
"127 650 CURVE",
"148 619 LINE",
"160 624 OFFCURVE",
"176 625 OFFCURVE",
"191 625 CURVE SMOOTH",
"302 625 OFFCURVE",
"345 563 OFFCURVE",
"345 486 CURVE SMOOTH",
"345 420 OFFCURVE",
"294 360 OFFCURVE",
"217 360 CURVE SMOOTH",
"148 360 LINE",
"148 330 LINE",
"210 330 LINE SMOOTH",
"347 330 OFFCURVE",
"421 269 OFFCURVE",
"421 171 CURVE SMOOTH",
"421 87 OFFCURVE",
"354 26 OFFCURVE",
"247 26 CURVE SMOOTH",
"218 26 OFFCURVE",
"197 30 OFFCURVE",
"179 41 CURVE SMOOTH",
"165 50 OFFCURVE",
"157 66 OFFCURVE",
"157 129 CURVE"
);
},
{
closed = 1;
nodes = (
"99 650 LINE",
"99 0 LINE",
"157 0 LINE",
"157 650 LINE"
);
}
);
width = 543;
}
);
leftMetricsKey = H;
unicode = 0042;
},
{
glyphname = C;
lastChange = "2017-05-13 07:02:45 +0000";
layers = (
{
anchors = (
{
name = bottom;
position = "{365, 0}";
},
{
name = top;
position = "{385, 650}";
}
);
layerId = "4A3087DE-C6CF-4F86-8B90-A264D0797279";
paths = (
{
closed = 1;
nodes = (
"547 60 OFFCURVE",
"476 36 OFFCURVE",
"391 36 CURVE SMOOTH",
"232 36 OFFCURVE",
"117 145 OFFCURVE",
"117 358 CURVE SMOOTH",
"117 531 OFFCURVE",
"235 629 OFFCURVE",
"360 629 CURVE SMOOTH",
"463 629 OFFCURVE",
"538 582 OFFCURVE",
"575 485 CURVE",
"584 486 LINE",
"611 522 OFFCURVE",
"614 528 OFFCURVE",
"614 541 CURVE SMOOTH",
"614 606 OFFCURVE",
"517 670 OFFCURVE",
"410 670 CURVE SMOOTH",
"227 670 OFFCURVE",
"50 539 OFFCURVE",
"50 314 CURVE SMOOTH",
"50 98 OFFCURVE",
"197 -14 OFFCURVE",
"370 -14 CURVE SMOOTH",
"450 -14 OFFCURVE",
"523 5 OFFCURVE",
"591 57 CURVE SMOOTH",
"608 70 OFFCURVE",
"614 86 OFFCURVE",
"614 119 CURVE",
"608 122 LINE"
);
}
);
width = 669;
}
);
leftMetricsKey = O;
unicode = 0043;
},
{
glyphname = D;
lastChange = "2017-05-04 00:46:20 +0000";
layers = (
{
anchors = (
{
name = bottom;
position = "{350, 0}";
},
{
name = center;
position = "{128, 339}";
},
{
name = top;
position = "{332, 650}";
}
);
hints = (
{
origin = "{1, 3}";
type = Corner;
name = _corner.STM.btm.1;
},
{
origin = "{1, 2}";
scale = "{-1, 1}";
type = Corner;
name = _corner.STM.top.1;
}
);
layerId = "4A3087DE-C6CF-4F86-8B90-A264D0797279";
paths = (
{
closed = 1;
nodes = (
"138 0 LINE",
"217 0 OFFCURVE",
"251 -4 OFFCURVE",
"298 -4 CURVE SMOOTH",
"516 -4 OFFCURVE",
"650 162 OFFCURVE",
"650 369 CURVE SMOOTH",
"650 566 OFFCURVE",
"514 654 OFFCURVE",
"294 654 CURVE SMOOTH",
"259 654 OFFCURVE",
"176 650 OFFCURVE",
"128 650 CURVE",
"148 618 LINE",
"172 621 OFFCURVE",
"198 622 OFFCURVE",
"231 622 CURVE SMOOTH",
"447 622 OFFCURVE",
"583 530 OFFCURVE",
"583 328 CURVE SMOOTH",
"583 149 OFFCURVE",
"465 28 OFFCURVE",
"298 28 CURVE SMOOTH",
"256 28 OFFCURVE",
"227 31 OFFCURVE",
"200 45 CURVE SMOOTH",
"171 60 OFFCURVE",
"157 77 OFFCURVE",
"157 163 CURVE"
);
},
{
closed = 1;
nodes = (
"157 0 LINE",
"157 650 LINE",
"99 650 LINE",
"99 0 LINE"
);
}
);
width = 700;
}
);
leftMetricsKey = H;
rightMetricsKey = O;
unicode = 0044;
},
{
glyphname = E;
lastChange = "2017-05-04 00:47:31 +0000";
layers = (
{
anchors = (
{
name = bottom;
position = "{243, 0}";
},
{
name = ogonek;
position = "{442, 0}";
},
{
name = top;
position = "{243, 650}";
},
{
name = topleft;
position = "{20, 650}";
}
);
hints = (
{
origin = "{1, 1}";
scale = "{-1, 1}";
type = Corner;
name = _corner.STM.top.1;
},
{
origin = "{1, 2}";
type = Corner;
name = _corner.STM.btm.1;
}
);
layerId = "4A3087DE-C6CF-4F86-8B90-A264D0797279";
paths = (
{
closed = 1;
nodes = (
"147 338 LINE",
"257 338 LINE SMOOTH",
"286 338 OFFCURVE",
"308 338 OFFCURVE",
"336 336 CURVE",
"342 336 OFFCURVE",
"343 338 OFFCURVE",
"343 370 CURVE",
"314 369 OFFCURVE",
"289 368 OFFCURVE",
"257 368 CURVE SMOOTH",
"147 368 LINE"
);
},
{
closed = 1;
nodes = (
"157 650 LINE",
"99 650 LINE",
"99 0 LINE",
"157 0 LINE"
);
},
{
closed = 1;
nodes = (
"168 620 OFFCURVE",
"192 622 OFFCURVE",
"240 622 CURVE SMOOTH",
"298 622 OFFCURVE",
"348 604 OFFCURVE",
"378 563 CURVE",
"397 566 OFFCURVE",
"400 568 OFFCURVE",
"400 570 CURVE SMOOTH",
"400 575 OFFCURVE",
"398 582 OFFCURVE",
"377 653 CURVE",
"346 651 OFFCURVE",
"294 650 OFFCURVE",
"248 650 CURVE SMOOTH",
"128 650 LINE",
"139 615 LINE"
);
},
{
closed = 1;
nodes = (
"235 28 OFFCURVE",
"197 32 OFFCURVE",
"178 47 CURVE SMOOTH",
"161 60 OFFCURVE",
"157 89 OFFCURVE",
"157 162 CURVE",
"150 0 LINE",
"277 0 LINE SMOOTH",
"335 0 OFFCURVE",
"388 0 OFFCURVE",
"441 -2 CURVE",
"460 68 OFFCURVE",
"461 73 OFFCURVE",
"461 75 CURVE SMOOTH",
"461 78 OFFCURVE",
"460 79 OFFCURVE",
"444 80 CURVE",
"397 37 OFFCURVE",
"356 28 OFFCURVE",
"287 28 CURVE SMOOTH"
);
}
);
width = 485;
}
);
leftMetricsKey = H;
unicode = 0045;
},
{
glyphname = F;
lastChange = "2017-05-02 00:01:36 +0000";
layers = (
{
hints = (
{
origin = "{0, 2}";
type = Corner;
name = _corner.STM.btm.1;
},
{
origin = "{0, 1}";
scale = "{-1, 1}";
type = Corner;
name = _corner.STM.top.1;
},
{
origin = "{0, 3}";
scale = "{-1, 1}";
type = Corner;
name = _corner.STM.btm.1;
}
);
layerId = "4A3087DE-C6CF-4F86-8B90-A264D0797279";
paths = (
{
closed = 1;
nodes = (
"157 650 LINE",
"99 650 LINE",
"99 0 LINE",
"157 0 LINE"
);
},
{
closed = 1;
nodes = (
"147 338 LINE",
"257 338 LINE SMOOTH",
"286 338 OFFCURVE",
"308 338 OFFCURVE",
"336 336 CURVE",
"342 336 OFFCURVE",
"343 338 OFFCURVE",
"343 370 CURVE",
"314 369 OFFCURVE",
"289 368 OFFCURVE",
"257 368 CURVE SMOOTH",
"147 368 LINE"
);
},
{
closed = 1;
nodes = (
"168 620 OFFCURVE",
"192 622 OFFCURVE",
"240 622 CURVE SMOOTH",
"298 622 OFFCURVE",
"348 604 OFFCURVE",
"378 563 CURVE",
"397 566 OFFCURVE",
"400 568 OFFCURVE",
"400 570 CURVE SMOOTH",
"400 575 OFFCURVE",
"398 582 OFFCURVE",
"377 653 CURVE",
"346 651 OFFCURVE",
"294 650 OFFCURVE",
"248 650 CURVE SMOOTH",
"128 650 LINE",
"139 615 LINE"
);
}
);
width = 444;
}
);
leftMetricsKey = H;
unicode = 0046;
},
{
glyphname = G;
lastChange = "2017-05-04 00:37:44 +0000";
layers = (
{
anchors = (
{
name = bottom;
position = "{390, 0}";
},
{
name = top;
position = "{340, 650}";
}
);
hints = (
{
origin = "{0, 5}";
scale = "{-1, 1}";
type = Corner;
name = _corner.STM.top.1;
}
);
layerId = "4A3087DE-C6CF-4F86-8B90-A264D0797279";
paths = (
{
closed = 1;
nodes = (
"548 44 LINE",
"611 42 LINE",
"605 114 OFFCURVE",
"605 200 OFFCURVE",
"610 269 CURVE",
"548 269 LINE"
);
},
{
closed = 1;
nodes = (
"514 28 OFFCURVE",
"466 16 OFFCURVE",
"389 16 CURVE",
"372 -14 LINE",
"464 -14 OFFCURVE",
"525 5 OFFCURVE",
"611 42 CURVE",
"572 67 LINE"
);
},
{
closed = 1;
nodes = (
"461 629 OFFCURVE",
"536 582 OFFCURVE",
"573 485 CURVE",
"582 486 LINE",
"609 522 OFFCURVE",
"612 528 OFFCURVE",
"612 541 CURVE SMOOTH",
"612 606 OFFCURVE",
"523 670 OFFCURVE",
"412 670 CURVE SMOOTH",
"219 670 OFFCURVE",
"42 539 OFFCURVE",
"42 314 CURVE SMOOTH",
"42 98 OFFCURVE",
"189 -14 OFFCURVE",
"372 -14 CURVE",
"389 16 LINE",
"254 16 OFFCURVE",
"109 131 OFFCURVE",
"109 358 CURVE SMOOTH",
"109 531 OFFCURVE",
"227 629 OFFCURVE",
"352 629 CURVE SMOOTH"
);
}
);
width = 680;
}
);
unicode = 0047;
},
{
glyphname = H;
lastChange = "2017-04-07 14:02:16 +0000";
layers = (
{
hints = (
{
origin = "{1, 2}";
type = Corner;
name = _corner.STM.btm.1;
},
{
origin = "{1, 3}";
scale = "{-1, 1}";
type = Corner;
name = _corner.STM.btm.1;
},
{
origin = "{1, 1}";
scale = "{-1, 1}";
type = Corner;
name = _corner.STM.top.1;
},
{
origin = "{1, 0}";
type = Corner;
name = _corner.STM.top.1;
},
{
origin = "{2, 0}";
type = Corner;
name = _corner.STM.top.1;
},
{
origin = "{2, 1}";
scale = "{-1, 1}";
type = Corner;
name = _corner.STM.top.1;
},
{
origin = "{2, 3}";
scale = "{-1, 1}";
type = Corner;
name = _corner.STM.btm.1;
},
{
origin = "{2, 2}";
type = Corner;
name = _corner.STM.btm.1;
}
);
layerId = "4A3087DE-C6CF-4F86-8B90-A264D0797279";
paths = (
{
closed = 1;
nodes = (
"157 343 LINE",
"549 343 LINE",
"549 373 LINE",
"157 373 LINE"
);
},
{
closed = 1;
nodes = (
"157 650 LINE",
"99 650 LINE",
"99 0 LINE",
"157 0 LINE"
);
},
{
closed = 1;
nodes = (
"607 650 LINE",
"549 650 LINE",
"549 0 LINE",
"607 0 LINE"
);
}
);
width = 706;
}
);
unicode = 0048;
},
{
glyphname = I;
lastChange = "2017-05-02 09:43:34 +0000";
layers = (
{
anchors = (
{
name = bottom;
position = "{138, 0}";
},
{
name = ogonek;
position = "{199, 0}";
},
{
name = top;
position = "{128, 650}";
},
{
name = topleft;
position = "{20, 650}";
}
);
hints = (
{
origin = "{0, 2}";
type = Corner;
name = _corner.STM.btm.1;
},
{
origin = "{0, 3}";
scale = "{-1, 1}";
type = Corner;
name = _corner.STM.btm.1;
},
{
origin = "{0, 0}";
type = Corner;
name = _corner.STM.top.1;
},
{
origin = "{0, 1}";
scale = "{-1, 1}";
type = Corner;
name = _corner.STM.top.1;
}
);
layerId = "4A3087DE-C6CF-4F86-8B90-A264D0797279";
paths = (
{
closed = 1;
nodes = (
"157 650 LINE",
"99 650 LINE",
"99 0 LINE",
"157 0 LINE"
);
}
);
width = 276;
}
);
leftMetricsKey = H;
rightMetricsKey = H;
unicode = 0049;
},
{
glyphname = J;
lastChange = "2017-05-01 23:45:27 +0000";
layers = (
{
hints = (
{
origin = "{0, 10}";
scale = "{-1, 1}";
type = Corner;
name = _corner.STM.top.1;
},
{
origin = "{0, 9}";
type = Corner;
name = _corner.STM.top.1;
}
);
layerId = "4A3087DE-C6CF-4F86-8B90-A264D0797279";
paths = (
{
closed = 1;
nodes = (
"62 -154 OFFCURVE",
"121 -101 OFFCURVE",
"142 -60 CURVE SMOOTH",
"171 -5 OFFCURVE",
"175 47 OFFCURVE",
"174 144 CURVE SMOOTH",
"173 220 OFFCURVE",
"173 269 OFFCURVE",
"173 311 CURVE SMOOTH",
"173 650 LINE",
"115 650 LINE",
"115 214 LINE SMOOTH",
"115 -45 OFFCURVE",
"84 -131 OFFCURVE",
"-32 -163 CURVE SMOOTH",
"-34 -164 OFFCURVE",
"-32 -169 OFFCURVE",
"-21 -185 CURVE"
);
}
);
width = 267;
}
);
rightMetricsKey = "=H-5";
unicode = 004A;
},
{
glyphname = K;
lastChange = "2017-05-04 00:37:32 +0000";
layers = (
{
anchors = (
{
name = bottom;
position = "{310, 0}";
},
{
name = top;
position = "{310, 650}";
}
);
hints = (
{
origin = "{1, 0}";
type = Corner;
name = _corner.STM.top.1;
},
{
origin = "{1, 1}";
scale = "{-1, 1}";
type = Corner;
name = _corner.STM.top.1;
},
{
origin = "{1, 2}";
type = Corner;
name = _corner.STM.btm.1;
},
{
origin = "{1, 3}";
scale = "{-1, 1}";
type = Corner;
name = _corner.STM.btm.1;
}
);
layerId = "4A3087DE-C6CF-4F86-8B90-A264D0797279";
paths = (
{
closed = 1;
nodes = (
"513 657 LINE",
"499 657 OFFCURVE",
"485 652 OFFCURVE",
"475 642 CURVE SMOOTH",
"377 544 OFFCURVE",
"291 458 OFFCURVE",
"174 352 CURVE",
"173 342 LINE",
"179 340 OFFCURVE",
"185 336 OFFCURVE",
"189 332 CURVE SMOOTH",
"282 239 OFFCURVE",
"366 151 OFFCURVE",
"450 53 CURVE SMOOTH",
"492 5 OFFCURVE",
"503 -3 OFFCURVE",
"524 -3 CURVE SMOOTH",
"551 -3 OFFCURVE",
"574 0 OFFCURVE",
"625 0 CURVE SMOOTH",
"627 0 OFFCURVE",
"628 2 OFFCURVE",
"628 18 CURVE",
"604 18 OFFCURVE",
"583 23 OFFCURVE",
"564 41 CURVE SMOOTH",
"484 115 OFFCURVE",
"397 205 OFFCURVE",
"224 395 CURVE",
"207 341 LINE",
"279 416 OFFCURVE",
"346 477 OFFCURVE",
"423 543 CURVE SMOOTH",
"475 588 OFFCURVE",
"523 621 OFFCURVE",
"571 638 CURVE",
"573 645 LINE"
);
},
{
closed = 1;
nodes = (
"157 650 LINE",
"99 650 LINE",
"99 0 LINE",
"157 0 LINE"
);
}
);
width = 620;
}
);
leftMetricsKey = H;
unicode = 004B;
},
{
glyphname = L;
lastChange = "2017-05-04 00:42:17 +0000";
layers = (
{
anchors = (
{
name = bottom;
position = "{242, 0}";
},
{
name = center;
position = "{128, 325}";
},
{
name = top;
position = "{128, 650}";
},
{
name = topright;
position = "{463, 650}";
}
);
hints = (
{
origin = "{0, 2}";
type = Corner;
name = _corner.STM.btm.1;
},
{
origin = "{0, 1}";
scale = "{-1, 1}";
type = Corner;
name = _corner.STM.top.1;
},
{
origin = "{0, 0}";
type = Corner;
name = _corner.STM.top.1;
}
);
layerId = "4A3087DE-C6CF-4F86-8B90-A264D0797279";
paths = (
{
closed = 1;
nodes = (
"157 650 LINE",
"99 650 LINE",
"99 0 LINE",
"157 0 LINE"
);
},
{
closed = 1;
nodes = (
"235 28 OFFCURVE",
"197 32 OFFCURVE",
"178 47 CURVE SMOOTH",
"161 60 OFFCURVE",
"157 89 OFFCURVE",
"157 162 CURVE",
"150 0 LINE",
"277 0 LINE SMOOTH",
"335 0 OFFCURVE",
"388 0 OFFCURVE",
"441 -2 CURVE",
"460 68 OFFCURVE",
"461 73 OFFCURVE",
"461 75 CURVE SMOOTH",
"461 78 OFFCURVE",
"460 79 OFFCURVE",
"444 80 CURVE",
"397 37 OFFCURVE",
"356 28 OFFCURVE",
"287 28 CURVE SMOOTH"
);
}
);
width = 483;
}
);
leftMetricsKey = H;
unicode = 004C;
},
{
glyphname = M;
lastChange = "2017-05-01 23:53:18 +0000";
layers = (
{
hints = (
{
origin = "{0, 23}";
type = Corner;
name = _corner.STM.btm.1;
},
{
origin = "{0, 24}";
scale = "{-1, 1}";
type = Corner;
name = _corner.STM.btm.1;
},
{
origin = "{0, 36}";
scale = "{-1, 1}";
type = Corner;
name = _corner.STM.btm.1;
},
{
origin = "{0, 35}";
type = Corner;
name = _corner.STM.btm.1;
}
);
layerId = "4A3087DE-C6CF-4F86-8B90-A264D0797279";
paths = (
{
closed = 1;
nodes = (
"671 593 OFFCURVE",
"655 552 OFFCURVE",
"632 505 CURVE SMOOTH",
"551 341 OFFCURVE",
"494 229 OFFCURVE",
"418 89 CURVE",
"441 102 LINE",
"357 251 OFFCURVE",
"287 383 OFFCURVE",
"206 547 CURVE SMOOTH",
"168 624 OFFCURVE",
"150 648 OFFCURVE",
"127 655 CURVE",
"49 647 LINE SMOOTH",
"45 647 OFFCURVE",
"45 644 OFFCURVE",
"45 624 CURVE",
"54 627 OFFCURVE",
"59 628 OFFCURVE",
"66 628 CURVE SMOOTH",
"98 628 OFFCURVE",
"114 579 OFFCURVE",
"112 518 CURVE SMOOTH",
"93 0 LINE",
"127 0 LINE",
"145 555 LINE",
"128 545 LINE",
"255 322 OFFCURVE",
"326 185 OFFCURVE",
"406 18 CURVE",
"424 18 LINE",
"529 238 OFFCURVE",
"623 417 OFFCURVE",
"703 567 CURVE",
"694 577 LINE",
"717 0 LINE",
"778 0 LINE",
"760 439 LINE SMOOTH",
"754 600 OFFCURVE",
"766 622 OFFCURVE",
"788 633 CURVE",
"788 649 OFFCURVE",
"787 651 OFFCURVE",
"785 651 CURVE SMOOTH",
"688 649 LINE"
);
}
);
width = 871;
}
);
unicode = 004D;
},
{
glyphname = N;
lastChange = "2017-05-02 09:43:43 +0000";
layers = (
{
anchors = (
{
name = bottom;
position = "{354, 0}";
},
{
name = top;
position = "{354, 650}";
}
);
hints = (
{
origin = "{0, 25}";
type = Corner;
name = _corner.STM.btm.1;
},
{
origin = "{0, 4}";
type = Corner;
name = _corner.STM.top.1;
},
{
origin = "{0, 5}";
scale = "{-1, 1}";
type = Corner;
name = _corner.STM.top.1;
},
{
origin = "{0, 26}";
scale = "{-1, 1}";
type = Corner;
name = _corner.STM.btm.1;
options = 1;
}
);
layerId = "4A3087DE-C6CF-4F86-8B90-A264D0797279";
paths = (
{
closed = 1;
nodes = (
"620 -11 LINE",
"618 89 OFFCURVE",
"617 261 OFFCURVE",
"617 372 CURVE SMOOTH",
"617 650 LINE",
"585 650 LINE",
"585 302 LINE SMOOTH",
"585 235 OFFCURVE",
"585 183 OFFCURVE",
"588 93 CURVE",
"594 111 LINE",
"271 499 LINE SMOOTH",
"171 619 OFFCURVE",
"145 645 OFFCURVE",
"117 657 CURVE",
"55 640 LINE SMOOTH",
"52 639 OFFCURVE",
"51 638 OFFCURVE",
"51 618 CURVE",
"60 620 OFFCURVE",
"65 620 OFFCURVE",
"70 620 CURVE SMOOTH",
"88 620 OFFCURVE",
"116 602 OFFCURVE",
"116 482 CURVE SMOOTH",
"116 0 LINE",
"148 0 LINE",
"148 347 LINE SMOOTH",
"148 465 OFFCURVE",
"148 532 OFFCURVE",
"144 582 CURVE",
"137 544 LINE",
"271 399 OFFCURVE",
"443 191 OFFCURVE",
"607 -12 CURVE"
);
}
);
width = 707;
}
);
rightMetricsKey = "H-10";
unicode = 004E;
},
{
glyphname = Eng;
lastChange = "2017-05-04 12:24:43 +0000";
layers = (
{
anchors = (
{
name = top;
position = "{354, 650}";
}
);
hints = (
{
origin = "{0, 15}";
type = Corner;
name = _corner.STM.btm.1;
},
{
origin = "{1, 14}";
type = Corner;
name = _corner.STM.top.1;
},
{
origin = "{1, 15}";
scale = "{-1, 1}";
type = Corner;
name = _corner.STM.top.1;
},
{
origin = "{0, 16}";
scale = "{-1, 1}";
type = Corner;
name = _corner.STM.btm.1;
options = 1;
}
);
layerId = "4A3087DE-C6CF-4F86-8B90-A264D0797279";
paths = (
{
closed = 1;
nodes = (
"604 99 LINE",
"271 499 LINE SMOOTH",
"171 619 OFFCURVE",
"145 645 OFFCURVE",
"117 657 CURVE",
"55 640 LINE SMOOTH",
"52 639 OFFCURVE",
"51 638 OFFCURVE",
"51 618 CURVE",
"60 620 OFFCURVE",
"65 620 OFFCURVE",
"70 620 CURVE SMOOTH",
"88 620 OFFCURVE",
"116 602 OFFCURVE",
"116 482 CURVE SMOOTH",
"116 0 LINE",
"148 0 LINE",
"148 347 LINE SMOOTH",
"148 465 OFFCURVE",
"148 532 OFFCURVE",
"144 582 CURVE",
"137 544 LINE",
"274 396 OFFCURVE",
"451 182 OFFCURVE",
"618 -25 CURVE"
);
},
{
closed = 1;
nodes = (
"435 -170 LINE",
"444 -191 OFFCURVE",
"454 -211 OFFCURVE",
"465 -228 CURVE",
"480 -233 OFFCURVE",
"493 -235 OFFCURVE",
"509 -235 CURVE SMOOTH",
"537 -235 OFFCURVE",
"564 -225 OFFCURVE",
"587 -198 CURVE SMOOTH",
"604 -178 OFFCURVE",
"618 -144 OFFCURVE",
"618 -81 CURVE SMOOTH",
"617 303 LINE",
"617 650 LINE",
"585 650 LINE",
"585 303 LINE",
"585 34.002 LINE SMOOTH",
"585 -6 OFFCURVE",
"585 -47 OFFCURVE",
"582 -87 CURVE SMOOTH",
"576 -161 OFFCURVE",
"556 -182 OFFCURVE",
"510 -182 CURVE SMOOTH",
"480 -182 OFFCURVE",
"459 -177 OFFCURVE",
"440 -166 CURVE"
);
}
);
width = 707;
}
);
leftMetricsKey = N;
rightMetricsKey = N;
unicode = 014A;
},
{
glyphname = O;
lastChange = "2017-05-02 09:46:20 +0000";
layers = (
{
anchors = (
{
name = bottom;
position = "{374, 0}";
},
{
name = center;
position = "{374, 325}";
},
{
name = ogonek;
position = "{673, 10}";
},
{
name = top;
position = "{374, 650}";
},
{
name = topleft;
position = "{20, 650}";
},
{
name = topright;
position = "{728, 650}";
}
);
layerId = "4A3087DE-C6CF-4F86-8B90-A264D0797279";
paths = (
{
closed = 1;
nodes = (
"181 670 OFFCURVE",
"50 529 OFFCURVE",
"50 323 CURVE SMOOTH",
"50 123 OFFCURVE",
"181 -14 OFFCURVE",
"374 -14 CURVE SMOOTH",
"567 -14 OFFCURVE",
"698 127 OFFCURVE",
"698 333 CURVE SMOOTH",
"698 533 OFFCURVE",
"567 670 OFFCURVE",
"374 670 CURVE SMOOTH"
);
},
{
closed = 1;
nodes = (
"213 18 OFFCURVE",
"122 162 OFFCURVE",
"122 338 CURVE SMOOTH",
"122 498 OFFCURVE",
"203 638 OFFCURVE",
"364 638 CURVE SMOOTH",
"535 638 OFFCURVE",
"626 494 OFFCURVE",
"626 318 CURVE SMOOTH",
"626 158 OFFCURVE",
"545 18 OFFCURVE",
"384 18 CURVE SMOOTH"
);
}
);
width = 748;
}
);
unicode = 004F;
},
{
glyphname = Oslash;
lastChange = "2017-05-04 12:28:32 +0000";
layers = (
{
components = (
{
name = O;
}
);
layerId = "4A3087DE-C6CF-4F86-8B90-A264D0797279";
paths = (
{
closed = 1;
nodes = (
"591 691 LINE",
"181 55 LINE SMOOTH",
"164 28 OFFCURVE",
"145 4 OFFCURVE",
"125 -21 CURVE",
"157 -35 LINE",
"567 601 LINE SMOOTH",
"584 628 OFFCURVE",
"603 652 OFFCURVE",
"623 677 CURVE"
);
}
);
width = 748;
}
);
unicode = 00D8;
},
{
glyphname = OE;
lastChange = "2017-05-02 09:32:45 +0000";
layers = (
{
layerId = "4A3087DE-C6CF-4F86-8B90-A264D0797279";
paths = (
{
closed = 1;
nodes = (
"561 35 OFFCURVE",
"529 26 OFFCURVE",
"404 26 CURVE SMOOTH",
"213 26 OFFCURVE",
"122 162 OFFCURVE",
"122 338 CURVE SMOOTH",
"122 498 OFFCURVE",
"203 626 OFFCURVE",
"404 626 CURVE SMOOTH",
"549 626 OFFCURVE",
"561 618 OFFCURVE",
"561 561 CURVE",
"601 650 LINE",
"516 650 OFFCURVE",
"462 658 OFFCURVE",
"414 658 CURVE SMOOTH",
"181 658 OFFCURVE",
"50 529 OFFCURVE",
"50 323 CURVE SMOOTH",
"50 123 OFFCURVE",
"181 -6 OFFCURVE",
"394 -6 CURVE SMOOTH",
"460 -6 OFFCURVE",
"516 0 OFFCURVE",
"595 0 CURVE",
"561 92 LINE"
);
},
{
closed = 1;
nodes = (
"609 338 LINE",
"719 338 LINE SMOOTH",
"748 338 OFFCURVE",
"770 338 OFFCURVE",
"798 336 CURVE",
"804 336 OFFCURVE",
"805 338 OFFCURVE",
"805 370 CURVE",
"776 369 OFFCURVE",
"751 368 OFFCURVE",
"719 368 CURVE SMOOTH",
"609 368 LINE"
);
},
{
closed = 1;
nodes = (
"619 650 LINE",
"561 650 LINE",
"561 0 LINE",
"619 0 LINE"
);
},
{
closed = 1;
nodes = (
"630 620 OFFCURVE",
"654 622 OFFCURVE",
"702 622 CURVE SMOOTH",
"760 622 OFFCURVE",
"810 604 OFFCURVE",
"840 563 CURVE",
"859 566 OFFCURVE",
"862 568 OFFCURVE",
"862 570 CURVE SMOOTH",
"862 575 OFFCURVE",
"860 582 OFFCURVE",
"839 653 CURVE",
"808 651 OFFCURVE",
"756 650 OFFCURVE",
"710 650 CURVE SMOOTH",
"590 650 LINE",
"601 615 LINE"
);
},
{
closed = 1;
nodes = (
"697 28 OFFCURVE",
"659 32 OFFCURVE",
"640 47 CURVE SMOOTH",
"623 60 OFFCURVE",
"619 89 OFFCURVE",
"619 162 CURVE",
"612 0 LINE",
"739 0 LINE SMOOTH",
"797 0 OFFCURVE",
"850 0 OFFCURVE",
"903 -2 CURVE",
"922 68 OFFCURVE",
"923 73 OFFCURVE",
"923 75 CURVE SMOOTH",
"923 78 OFFCURVE",
"922 79 OFFCURVE",
"906 80 CURVE",
"859 37 OFFCURVE",
"818 28 OFFCURVE",
"749 28 CURVE SMOOTH"
);
}
);
width = 947;
}
);
leftMetricsKey = O;
rightMetricsKey = E;
unicode = 0152;
},
{
glyphname = P;
lastChange = "2017-04-07 14:07:53 +0000";
layers = (
{
hints = (
{
origin = "{1, 1}";
type = Corner;
name = _corner.STM.btm.1;
},
{
origin = "{1, 2}";
scale = "{-1, 1}";
type = Corner;
name = _corner.STM.btm.1;
},
{
origin = "{1, 0}";
scale = "{-1, 1}";
type = Corner;
name = _corner.STM.top.1;
}
);
layerId = "4A3087DE-C6CF-4F86-8B90-A264D0797279";
paths = (
{
closed = 1;
nodes = (
"342 301 OFFCURVE",
"447 376 OFFCURVE",
"447 492 CURVE SMOOTH",
"447 595 OFFCURVE",
"367 654 OFFCURVE",
"259 654 CURVE SMOOTH",
"223 654 OFFCURVE",
"158 650 OFFCURVE",
"122 650 CURVE",
"143 619 LINE",
"160 621 OFFCURVE",
"204 622 OFFCURVE",
"226 622 CURVE SMOOTH",
"303 622 OFFCURVE",
"381 571 OFFCURVE",
"381 472 CURVE SMOOTH",
"381 377 OFFCURVE",
"313 336 OFFCURVE",
"242 336 CURVE SMOOTH",
"231 336 OFFCURVE",
"216 338 OFFCURVE",
"202 343 CURVE",
"202 323 OFFCURVE",
"212 309 OFFCURVE",
"221 308 CURVE SMOOTH"
);
},
{
closed = 1;
nodes = (
"99 650 LINE",
"99 0 LINE",
"157 0 LINE",
"157 650 LINE"
);
}
);
width = 482;
}
);
leftMetricsKey = H;
unicode = 0050;
},
{
glyphname = Thorn;
lastChange = "2017-05-04 12:25:17 +0000";
layers = (
{
hints = (
{
origin = "{1, 0}";
scale = "{-1, 1}";
type = Corner;
name = _corner.STM.top.1;
},
{
origin = "{1, 1}";
type = Corner;
name = _corner.STM.btm.1;
},
{
origin = "{1, 2}";
scale = "{-1, 1}";
type = Corner;
name = _corner.STM.btm.1;
},
{
origin = "{1, 3}";
type = Corner;
name = _corner.STM.top.1;
}
);
layerId = "4A3087DE-C6CF-4F86-8B90-A264D0797279";
paths = (
{
closed = 1;
nodes = (
"331 155 OFFCURVE",
"437 236 OFFCURVE",
"437 339 CURVE SMOOTH",
"437 442 OFFCURVE",
"357 494 OFFCURVE",
"229 494 CURVE SMOOTH",
"199 494 OFFCURVE",
"166 491 OFFCURVE",
"122 491 CURVE",
"143 451 LINE",
"160 457 OFFCURVE",
"182 462 OFFCURVE",
"206 462 CURVE SMOOTH",
"298 462 OFFCURVE",
"371 411 OFFCURVE",
"371 321 CURVE SMOOTH",
"371 237 OFFCURVE",
"303 196 OFFCURVE",
"232 196 CURVE SMOOTH",
"221 196 OFFCURVE",
"206 198 OFFCURVE",
"192 203 CURVE",
"192 183 OFFCURVE",
"202 169 OFFCURVE",
"211 168 CURVE SMOOTH"
);
},
{
closed = 1;
nodes = (
"99 650 LINE",
"99 0 LINE",
"157 0 LINE",
"157 650 LINE"
);
}
);
width = 490;
}
);
leftMetricsKey = H;
unicode = 00DE;
},
{
glyphname = Q;
lastChange = "2017-05-01 23:56:02 +0000";
layers = (
{
layerId = "4A3087DE-C6CF-4F86-8B90-A264D0797279";
paths = (
{
closed = 1;
nodes = (
"944 -132 OFFCURVE",
"878 -157 OFFCURVE",
"816 -157 CURVE SMOOTH",
"759 -157 OFFCURVE",
"709 -139 OFFCURVE",
"623 -80 CURVE SMOOTH",
"566 -41 OFFCURVE",
"509 -8 OFFCURVE",
"445 7 CURVE",
"461 -1 LINE",
"607 35 OFFCURVE",
"698 161 OFFCURVE",
"698 333 CURVE",
"626 318 LINE",
"626 165 OFFCURVE",
"540 18 OFFCURVE",
"384 18 CURVE",
"374 -14 LINE",
"425 -14 OFFCURVE",
"483 -55 OFFCURVE",
"541 -99 CURVE SMOOTH",
"624 -162 OFFCURVE",
"686 -195 OFFCURVE",
"760 -195 CURVE SMOOTH",
"847 -195 OFFCURVE",
"998 -148 OFFCURVE",
"998 -88 CURVE SMOOTH",
"998 -80 OFFCURVE",
"992 -75 OFFCURVE",
"984 -71 CURVE"
);
},
{
closed = 1;
nodes = (
"698 533 OFFCURVE",
"567 670 OFFCURVE",
"374 670 CURVE SMOOTH",
"181 670 OFFCURVE",
"50 529 OFFCURVE",
"50 323 CURVE SMOOTH",
"50 123 OFFCURVE",
"181 -14 OFFCURVE",
"374 -14 CURVE",
"384 18 LINE",
"213 18 OFFCURVE",
"122 162 OFFCURVE",
"122 338 CURVE SMOOTH",
"122 498 OFFCURVE",
"203 638 OFFCURVE",
"364 638 CURVE SMOOTH",
"535 638 OFFCURVE",
"626 494 OFFCURVE",
"626 318 CURVE",
"698 333 LINE"
);
}
);
width = 751;
}
);
leftMetricsKey = O;
unicode = 0051;
},
{
glyphname = R;
lastChange = "2017-05-02 09:45:39 +0000";
layers = (
{
anchors = (
{
name = bottom;
position = "{278, 0}";
},
{
name = top;
position = "{238, 650}";
}
);
hints = (
{
origin = "{1, 1}";
type = Corner;
name = _corner.STM.btm.1;
},
{
origin = "{1, 2}";
scale = "{-1, 1}";
type = Corner;
name = _corner.STM.btm.1;
},
{
origin = "{1, 0}";
scale = "{-1, 1}";
type = Corner;
name = _corner.STM.top.1;
}
);
layerId = "4A3087DE-C6CF-4F86-8B90-A264D0797279";
paths = (
{
closed = 1;
nodes = (
"270 342 LINE",
"353 363 OFFCURVE",
"418 425 OFFCURVE",
"418 502 CURVE SMOOTH",
"418 596 OFFCURVE",
"342 652 OFFCURVE",
"234 652 CURVE SMOOTH",
"203 652 OFFCURVE",
"178 650 OFFCURVE",
"127 650 CURVE",
"148 619 LINE",
"165 621 OFFCURVE",
"169 622 OFFCURVE",
"201 622 CURVE SMOOTH",
"283 622 OFFCURVE",
"351 576 OFFCURVE",
"351 482 CURVE SMOOTH",
"351 409 OFFCURVE",
"293 358 OFFCURVE",
"197 358 CURVE SMOOTH",
"148 358 LINE",
"148 330 LINE",
"270 330 LINE"
);
},
{
closed = 1;
nodes = (
"99 650 LINE",
"99 0 LINE",
"157 0 LINE",
"157 650 LINE"
);
},
{
closed = 1;
nodes = (
"443 8 OFFCURVE",
"454 -4 OFFCURVE",
"477 -4 CURVE SMOOTH",
"492 -4 OFFCURVE",
"514 0 OFFCURVE",
"552 -1 CURVE",
"554 -1 OFFCURVE",
"555 0 OFFCURVE",
"555 17 CURVE",
"525 20 OFFCURVE",
"505 36 OFFCURVE",
"392 213 CURVE SMOOTH",
"311 339 OFFCURVE",
"302 348 OFFCURVE",
"263 350 CURVE",
"185 330 LINE",
"229 330 OFFCURVE",
"258 317 OFFCURVE",
"282 277 CURVE SMOOTH",
"416 53 LINE SMOOTH"
);
}
);
width = 556;
}
);
leftMetricsKey = H;
unicode = 0052;
},
{
glyphname = S;
lastChange = "2017-05-02 09:45:23 +0000";
layers = (
{
anchors = (
{
name = bottom;
position = "{236, 0}";
},
{
name = top;
position = "{236, 650}";
}
);
layerId = "4A3087DE-C6CF-4F86-8B90-A264D0797279";
paths = (
{
closed = 1;
nodes = (
"149 18 OFFCURVE",
"86 55 OFFCURVE",
"47 143 CURVE",
"40 143 LINE",
"36 124 OFFCURVE",
"35 110 OFFCURVE",
"35 97 CURVE SMOOTH",
"35 75 OFFCURVE",
"39 52 OFFCURVE",
"47 39 CURVE SMOOTH",
"69 3 OFFCURVE",
"123 -14 OFFCURVE",
"182 -14 CURVE SMOOTH",
"315 -14 OFFCURVE",
"407 90 OFFCURVE",
"407 184 CURVE SMOOTH",
"407 259 OFFCURVE",
"367 309 OFFCURVE",
"243 394 CURVE SMOOTH",
"185 434 OFFCURVE",
"148 478 OFFCURVE",
"148 539 CURVE SMOOTH",
"148 607 OFFCURVE",
"199 638 OFFCURVE",
"245 638 CURVE SMOOTH",
"290 638 OFFCURVE",
"346 610 OFFCURVE",
"367 563 CURVE",
"375 563 LINE",
"378 585 OFFCURVE",
"379 596 OFFCURVE",
"379 609 CURVE SMOOTH",
"379 648 OFFCURVE",
"336 670 OFFCURVE",
"271 670 CURVE SMOOTH",
"176 670 OFFCURVE",
"94 585 OFFCURVE",
"94 499 CURVE SMOOTH",
"94 431 OFFCURVE",
"136 387 OFFCURVE",
"209 332 CURVE SMOOTH",
"313 254 OFFCURVE",
"344 215 OFFCURVE",
"344 142 CURVE SMOOTH",
"344 73 OFFCURVE",
"278 18 OFFCURVE",
"213 18 CURVE SMOOTH"
);
}
);
width = 471;
}
);
unicode = 0053;
},
{
glyphname = T;
lastChange = "2017-05-04 11:34:37 +0000";
layers = (
{
anchors = (
{
name = bottom;
position = "{274, 0}";
},
{
name = "center#2";
position = "{274, 325}";
},
{
name = top;
position = "{274, 650}";
}
);
hints = (
{
origin = "{0, 8}";
type = Corner;
name = _corner.STM.btm.1;
},
{
origin = "{0, 9}";
scale = "{-1, 1}";
type = Corner;
name = _corner.STM.btm.1;
}
);
layerId = "4A3087DE-C6CF-4F86-8B90-A264D0797279";
paths = (
{
closed = 1;
nodes = (
"303 452 LINE SMOOTH",
"303 520 OFFCURVE",
"304 575 OFFCURVE",
"307 635 CURVE",
"241 635 LINE",
"244 575 OFFCURVE",
"245 520 OFFCURVE",
"245 452 CURVE SMOOTH",
"245 0 LINE",
"303 0 LINE"
);
},
{
closed = 1;
nodes = (
"392 622 LINE SMOOTH",
"490 622 OFFCURVE",
"498 618 OFFCURVE",
"516 547 CURVE",
"535 547 OFFCURVE",
"537 548 OFFCURVE",
"537 552 CURVE SMOOTH",
"537 559 OFFCURVE",
"535 591 OFFCURVE",
"529 653 CURVE",
"498 651 OFFCURVE",
"446 650 OFFCURVE",
"390 650 CURVE SMOOTH",
"252 650 LINE",
"291 622 LINE"
);
},
{
closed = 1;
nodes = (
"291 650 LINE",
"158 650 LINE SMOOTH",
"102 650 OFFCURVE",
"50 651 OFFCURVE",
"19 653 CURVE",
"13 591 OFFCURVE",
"11 559 OFFCURVE",
"11 552 CURVE SMOOTH",
"11 548 OFFCURVE",
"13 547 OFFCURVE",
"32 547 CURVE",
"50 618 OFFCURVE",
"58 622 OFFCURVE",
"156 622 CURVE SMOOTH",
"257 622 LINE"
);
}
);
width = 548;
}
);
unicode = 0054;
},
{
glyphname = U;
lastChange = "2017-05-02 09:44:07 +0000";
layers = (
{
anchors = (
{
name = bottom;
position = "{325, 0}";
},
{
name = ogonek;
position = "{585, 10}";
},
{
name = top;
position = "{325, 650}";
},
{
name = topright;
position = "{630, 650}";
}
);
hints = (
{
origin = "{0, 23}";
scale = "{-1, 1}";
type = Corner;
name = _corner.STM.top.1;
},
{
origin = "{0, 14}";
scale = "{-1, 1}";
type = Corner;
name = _corner.STM.top.1;
},
{
origin = "{0, 22}";
type = Corner;
name = _corner.STM.top.1;
},
{
origin = "{0, 13}";
type = Corner;
name = _corner.STM.top.1;
}
);
layerId = "4A3087DE-C6CF-4F86-8B90-A264D0797279";
paths = (
{
closed = 1;
nodes = (
"93 249 LINE SMOOTH",
"93 175 OFFCURVE",
"105 125 OFFCURVE",
"125 90 CURVE SMOOTH",
"160 27 OFFCURVE",
"231 -15 OFFCURVE",
"323 -15 CURVE SMOOTH",
"420 -15 OFFCURVE",
"480 20 OFFCURVE",
"515 73 CURVE SMOOTH",
"548 123 OFFCURVE",
"557 179 OFFCURVE",
"557 256 CURVE SMOOTH",
"557 650 LINE",
"525 650 LINE",
"525 251 LINE SMOOTH",
"525 100 OFFCURVE",
"463 28 OFFCURVE",
"345 28 CURVE SMOOTH",
"225 28 OFFCURVE",
"151 109 OFFCURVE",
"151 265 CURVE SMOOTH",
"151 650 LINE",
"93 650 LINE"
);
}
);
width = 650;
}
);
leftMetricsKey = "=H-6";
rightMetricsKey = "=H-6";
unicode = 0055;
},
{
glyphname = V;
lastChange = "2017-05-01 23:56:51 +0000";
layers = (
{
hints = (
{
origin = "{0, 7}";
scale = "{-1, 1}";
type = Corner;
name = _corner.STM.top.1;
options = 1;
},
{
origin = "{0, 16}";
type = Corner;
name = _corner.STM.top.1;
}
);
layerId = "4A3087DE-C6CF-4F86-8B90-A264D0797279";
paths = (
{
closed = 1;
nodes = (
"507 456 OFFCURVE",
"441 286 OFFCURVE",
"356 92 CURVE",
"380 92 LINE",
"305 256 OFFCURVE",
"221 456 OFFCURVE",
"146 650 CURVE",
"70 650 LINE",
"252 229 LINE SMOOTH",
"286 150 OFFCURVE",
"319 65 OFFCURVE",
"344 -10 CURVE",
"357 -10 LINE",
"384 70 OFFCURVE",
"414 151 OFFCURVE",
"449 232 CURVE SMOOTH",
"630 650 LINE",
"577 650 LINE"
);
}
);
width = 690;
}
);
unicode = 0056;
},
{
glyphname = W;
lastChange = "2017-05-02 09:44:46 +0000";
layers = (
{
anchors = (
{
name = bottom;
position = "{499, 0}";
},
{
name = top;
position = "{499, 650}";
}
);
hints = (
{
origin = "{0, 15}";
scale = "{-1, 1}";
type = Corner;
name = _corner.STM.top.1;
options = 1;
},
{
origin = "{0, 26}";
type = Corner;
name = _corner.STM.top.1;
}
);
layerId = "4A3087DE-C6CF-4F86-8B90-A264D0797279";
paths = (
{
closed = 1;
nodes = (
"871 509 OFFCURVE",
"820 345 OFFCURVE",
"732 82 CURVE",
"749 95 LINE",
"673 260 OFFCURVE",
"596 439 OFFCURVE",
"514 639 CURVE",
"496 639 LINE",
"419 451 OFFCURVE",
"351 295 OFFCURVE",
"259 94 CURVE",
"272 105 LINE",
"219 274 OFFCURVE",
"153 510 OFFCURVE",
"119 650 CURVE",
"40 650 LINE",
"237 -10 LINE",
"255 -10 LINE",
"340 196 OFFCURVE",
"442 432 OFFCURVE",
"514 587 CURVE",
"474 554 LINE",
"540 414 OFFCURVE",
"655 148 OFFCURVE",
"717 -10 CURVE",
"735 -10 LINE",
"959 650 LINE",
"908 650 LINE"
);
}
);
width = 998;
}
);
unicode = 0057;
},
{
glyphname = X;
lastChange = "2017-04-25 20:43:50 +0000";
layers = (
{
hints = (
{
origin = "{0, 1}";
type = Corner;
name = _corner.STM.top.1;
},
{
origin = "{2, 8}";
scale = "{-1, 1}";
type = Corner;
name = _corner.STM.top.1;
options = 1;
},
{
origin = "{2, 3}";
scale = "{-1, 1}";
type = Corner;
name = _corner.STM.btm.1;
options = 1;
},
{
origin = "{1, 1}";
type = Corner;
name = _corner.STM.btm.1;
}
);
layerId = "4A3087DE-C6CF-4F86-8B90-A264D0797279";
paths = (
{
closed = 1;
nodes = (
"331 332 LINE",
"553 650 LINE",
"494 650 LINE",
"422 523 OFFCURVE",
"378 456 OFFCURVE",
"319 378 CURVE"
);
},
{
closed = 1;
nodes = (
"296 353 LINE",
"59 0 LINE",
"112 0 LINE",
"164 92 OFFCURVE",
"235 203 OFFCURVE",
"322 324 CURVE"
);
},
{
closed = 1;
nodes = (
"369 203 OFFCURVE",
"451 70 OFFCURVE",
"491 0 CURVE",
"580 0 LINE",
"334 369 LINE",
"273 469 OFFCURVE",
"218 560 OFFCURVE",
"169 650 CURVE",
"83 650 LINE",
"297 311 LINE"
);
}
);
width = 636;
}
);
unicode = 0058;
},
{
glyphname = Y;
lastChange = "2017-05-02 09:45:04 +0000";
layers = (
{
anchors = (
{
name = bottom;
position = "{298, 0}";
},
{
name = top;
position = "{298, 650}";
},
{
name = topleft;
position = "{20, 650}";
}
);
hints = (
{
origin = "{0, 0}";
type = Corner;
name = _corner.STM.btm.1;
},
{
origin = "{0, 1}";
scale = "{-1, 1}";
type = Corner;
name = _corner.STM.btm.1;
}
);
layerId = "4A3087DE-C6CF-4F86-8B90-A264D0797279";
paths = (
{
closed = 1;
nodes = (
"282 0 LINE",
"340 0 LINE",
"340 335 LINE",
"324 291 LINE",
"282 282 LINE"
);
},
{
closed = 1;
nodes = (
"1 637 OFFCURVE",
"1 634 OFFCURVE",
"1 620 CURVE",
"10 623 OFFCURVE",
"19 625 OFFCURVE",
"30 625 CURVE SMOOTH",
"190 625 OFFCURVE",
"282 423 OFFCURVE",
"282 225 CURVE",
"340 225 LINE",
"340 427 OFFCURVE",
"437 561 OFFCURVE",
"556 629 CURVE SMOOTH",
"570 637 OFFCURVE",
"584 637 OFFCURVE",
"601 635 CURVE",
"601 651 OFFCURVE",
"600 653 OFFCURVE",
"595 653 CURVE SMOOTH",
"513 656 LINE",
"493 650 OFFCURVE",
"477 640 OFFCURVE",
"461 626 CURVE SMOOTH",
"375 551 OFFCURVE",
"319 425 OFFCURVE",
"309 279 CURVE",
"326 309 LINE",
"324 476 OFFCURVE",
"231 660 OFFCURVE",
"107 660 CURVE",
"5 639 LINE SMOOTH"
);
}
);
width = 596;
}
);
unicode = 0059;
},
{
glyphname = Z;
lastChange = "2017-05-02 09:45:14 +0000";
layers = (
{
anchors = (
{
name = bottom;
position = "{300, 0}";
},
{
name = top;
position = "{288, 650}";
}
);
layerId = "4A3087DE-C6CF-4F86-8B90-A264D0797279";
paths = (
{
closed = 1;
nodes = (
"502 645 LINE",
"372 435 OFFCURVE",
"260 245 OFFCURVE",
"135 19 CURVE",
"135 28 LINE",
"365 28 LINE",
"357 0 LINE",
"287 0 OFFCURVE",
"178 0 OFFCURVE",
"48 -2 CURVE",
"45 6 LINE",
"177 215 OFFCURVE",
"304 424 OFFCURVE",
"419 630 CURVE",
"424 622 LINE",
"285 622 LINE",
"290 650 LINE",
"359 650 OFFCURVE",
"403 650 OFFCURVE",
"498 652 CURVE"
);
},
{
closed = 1;
nodes = (
"415 0 OFFCURVE",
"474 0 OFFCURVE",
"527 -2 CURVE",
"533 36 OFFCURVE",
"537 66 OFFCURVE",
"537 72 CURVE SMOOTH",
"537 77 OFFCURVE",
"533 78 OFFCURVE",
"520 79 CURVE",
"493 34 OFFCURVE",
"475 28 OFFCURVE",
"402 28 CURVE SMOOTH",
"365 28 LINE",
"357 0 LINE"
);
},
{
closed = 1;
nodes = (
"226 622 LINE SMOOTH",
"128 622 OFFCURVE",
"120 618 OFFCURVE",
"102 547 CURVE",
"83 547 OFFCURVE",
"81 548 OFFCURVE",
"81 552 CURVE SMOOTH",
"81 559 OFFCURVE",
"83 591 OFFCURVE",
"89 653 CURVE",
"120 651 OFFCURVE",
"172 650 OFFCURVE",
"228 650 CURVE SMOOTH",
"371 650 LINE",
"337 622 LINE"
);
}
);
width = 600;
}
);
unicode = 005A;
},
{
export = 0;
glyphname = O.quarter;
lastChange = "2017-05-13 07:20:03 +0000";
layers = (
{
layerId = "4A3087DE-C6CF-4F86-8B90-A264D0797279";
paths = (
{
closed = 1;
nodes = (
"320 18 LINE",
"154 18 OFFCURVE",
"70 162 OFFCURVE",
"70 328 CURVE",
"-10 328 LINE",
"-10 123 OFFCURVE",
"127 -14 OFFCURVE",
"320 -14 CURVE"
);
}
);
width = 600;
}
);
},
{
glyphname = a;
lastChange = "2017-05-04 13:33:39 +0000";
layers = (
{
anchors = (
{
name = bottom;
position = "{225, 0}";
},
{
name = ogonek;
position = "{412, 0}";
},
{
name = top;
position = "{215, 450}";
}
);
layerId = "4A3087DE-C6CF-4F86-8B90-A264D0797279";
paths = (
{
closed = 1;
nodes = (
"398 24 OFFCURVE",
"390 23 OFFCURVE",
"379 23 CURVE SMOOTH",
"360 23 OFFCURVE",
"343 40 OFFCURVE",
"341 79 CURVE SMOOTH",
"338 136 OFFCURVE",
"339 238 OFFCURVE",
"341 295 CURVE SMOOTH",
"345 409 OFFCURVE",
"318 464 OFFCURVE",
"215 464 CURVE SMOOTH",
"141 464 OFFCURVE",
"67 411 OFFCURVE",
"67 368 CURVE SMOOTH",
"67 348 OFFCURVE",
"84 335 OFFCURVE",
"118 326 CURVE",
"124 329 LINE",
"123 335 OFFCURVE",
"123 341 OFFCURVE",
"123 346 CURVE SMOOTH",
"123 409 OFFCURVE",
"145 440 OFFCURVE",
"202 440 CURVE SMOOTH",
"262 440 OFFCURVE",
"290 381 OFFCURVE",
"288 299 CURVE SMOOTH",
"288 260 LINE SMOOTH",
"288 250 OFFCURVE",
"279 244 OFFCURVE",
"271 243 CURVE SMOOTH",
"114 221 OFFCURVE",
"42 181 OFFCURVE",
"42 105 CURVE SMOOTH",
"42 38 OFFCURVE",
"90 -14 OFFCURVE",
"155 -14 CURVE SMOOTH",
"214 -14 OFFCURVE",
"253 10 OFFCURVE",
"299 57 CURVE",
"286 78 LINE",
"282 12 OFFCURVE",
"316 -10 OFFCURVE",
"342 -10 CURVE SMOOTH",
"361 -10 OFFCURVE",
"379 -3 OFFCURVE",
"412 12 CURVE",
"407 26 LINE"
);
},
{
closed = 1;
nodes = (
"248 38 OFFCURVE",
"224 22 OFFCURVE",
"189 22 CURVE SMOOTH",
"139 22 OFFCURVE",
"98 59 OFFCURVE",
"98 115 CURVE SMOOTH",
"98 173 OFFCURVE",
"151 216 OFFCURVE",
"305 211 CURVE",
"286 236 LINE",
"286 147 LINE SMOOTH",
"286 95 OFFCURVE",
"275 70 OFFCURVE",
"262 55 CURVE SMOOTH"
);
}
);
width = 434;
}
);
unicode = 0061;
},
{
glyphname = ae;
lastChange = "2017-05-13 07:01:51 +0000";
layers = (
{
anchors = (
{
name = bottom;
position = "{652, 0}";
},
{
name = ogonek;
position = "{829, 0}";
},
{
name = top;
position = "{678, 450}";
}
);
layerId = "4A3087DE-C6CF-4F86-8B90-A264D0797279";
paths = (
{
closed = 1;
nodes = (
"514 27 LINE",
"427 27 OFFCURVE",
"351 77 OFFCURVE",
"355 266 CURVE",
"356 278 LINE",
"362 380 OFFCURVE",
"415 436 OFFCURVE",
"473 436 CURVE SMOOTH",
"538 436 OFFCURVE",
"585 383 OFFCURVE",
"585 296 CURVE SMOOTH",
"585 284 OFFCURVE",
"567 274 OFFCURVE",
"494 265 CURVE SMOOTH",
"342 247 LINE",
"342 220 LINE",
"444 235 OFFCURVE",
"535 248 OFFCURVE",
"637 259 CURVE",
"642 272 OFFCURVE",
"644 288 OFFCURVE",
"644 308 CURVE SMOOTH",
"644 388 OFFCURVE",
"586 464 OFFCURVE",
"498 464 CURVE SMOOTH",
"400 464 OFFCURVE",
"323 384 OFFCURVE",
"301 286 CURVE",
"323 94 LINE",
"359 19 OFFCURVE",
"421 -14 OFFCURVE",
"497 -14 CURVE"
);
},
{
closed = 1;
nodes = (
"350 295 LINE",
"354 409 OFFCURVE",
"327 464 OFFCURVE",
"225 464 CURVE SMOOTH",
"151 464 OFFCURVE",
"77 411 OFFCURVE",
"77 368 CURVE SMOOTH",
"77 348 OFFCURVE",
"94 335 OFFCURVE",
"128 326 CURVE",
"134 329 LINE",
"133 335 OFFCURVE",
"133 341 OFFCURVE",
"133 346 CURVE SMOOTH",
"133 409 OFFCURVE",
"155 440 OFFCURVE",
"212 440 CURVE SMOOTH",
"272 440 OFFCURVE",
"298 381 OFFCURVE",
"298 299 CURVE SMOOTH",
"298 260 LINE SMOOTH",
"298 250 OFFCURVE",
"289 244 OFFCURVE",
"281 243 CURVE SMOOTH",
"124 223 OFFCURVE",
"42 171 OFFCURVE",
"42 105 CURVE SMOOTH",
"42 36 OFFCURVE",
"100 -14 OFFCURVE",
"175 -14 CURVE SMOOTH",
"234 -14 OFFCURVE",
"297 14 OFFCURVE",
"330 105 CURVE"
);
},
{
closed = 1;
nodes = (
"295 61 OFFCURVE",
"248 19 OFFCURVE",
"198 19 CURVE SMOOTH",
"144 19 OFFCURVE",
"98 55 OFFCURVE",
"98 115 CURVE SMOOTH",
"98 168 OFFCURVE",
"161 216 OFFCURVE",
"315 211 CURVE",
"296 246 LINE",
"295 237 LINE",
"295 176 LINE"
);
},
{
closed = 1;
nodes = (
"554 -14 OFFCURVE",
"596 8 OFFCURVE",
"627 34 CURVE SMOOTH",
"639 44 OFFCURVE",
"641 50 OFFCURVE",
"644 75 CURVE",
"637 78 LINE",
"602 47 OFFCURVE",
"560 27 OFFCURVE",
"514 27 CURVE",
"497 -14 LINE"
);
}
);
width = 689;
}
);
leftMetricsKey = a;
rightMetricsKey = e;
unicode = 00E6;
},
{
glyphname = c;
lastChange = "2017-05-13 07:02:08 +0000";
layers = (
{
anchors = (
{
name = bottom;
position = "{255, 0}";
},
{
name = top;
position = "{241, 450}";
}
);
layerId = "4A3087DE-C6CF-4F86-8B90-A264D0797279";
leftMetricsKey = "=o";
paths = (
{
closed = 1;
nodes = (
"296 428 OFFCURVE",
"354 387 OFFCURVE",
"363 319 CURVE",
"370 319 LINE",
"394 326 OFFCURVE",
"404 337 OFFCURVE",
"404 360 CURVE SMOOTH",
"404 414 OFFCURVE",
"344 464 OFFCURVE",
"266 464 CURVE SMOOTH",
"146 464 OFFCURVE",
"38 356 OFFCURVE",
"38 207 CURVE SMOOTH",
"38 56 OFFCURVE",
"135 -14 OFFCURVE",
"247 -14 CURVE SMOOTH",
"303 -14 OFFCURVE",
"345 3 OFFCURVE",
"383 31 CURVE SMOOTH",
"399 42 OFFCURVE",
"402 48 OFFCURVE",
"404 73 CURVE",
"397 76 LINE",
"359 44 OFFCURVE",
"320 27 OFFCURVE",
"260 27 CURVE SMOOTH",
"197 27 OFFCURVE",
"95 67 OFFCURVE",
"95 236 CURVE SMOOTH",
"95 374 OFFCURVE",
"170 428 OFFCURVE",
"238 428 CURVE SMOOTH"
);
}
);
width = 447;
}
);
leftMetricsKey = O;
unicode = 0063;
},
{
glyphname = d;
lastChange = "2017-05-01 10:48:52 +0000";
layers = (
{
anchors = (
{
name = bottom;
position = "{273, 0}";
},
{
name = "center#2";
position = "{411, 570}";
},
{
name = top;
position = "{273, 450}";
},
{
name = topright;
position = "{525, 450}";
}
);
components = (
{
alignment = 1;
name = _bowl.1;
transform = "{-1, 0, 0, -1, 408, 450}";
},
{
alignment = 1;
name = _stem.2;
transform = "{1, 0, 0, 1, 305, 0}";
}
);
layerId = "4A3087DE-C6CF-4F86-8B90-A264D0797279";
leftMetricsKey = "=o";
width = 545;
},
{
associatedMasterId = "4A3087DE-C6CF-4F86-8B90-A264D0797279";
layerId = "E9E01D4A-BE8A-44BC-AA02-5111E66867E3";
leftMetricsKey = "=o";
name = "Regular Dec 5 13, 10:41";
paths = (
{
closed = 1;
nodes = (
"444 363 LINE",
"372 363 LINE",
"372 313 LINE",
"444 313 LINE"
);
},
{
closed = 1;
nodes = (
"418 371 LINE",
"400 445 OFFCURVE",
"348 474 OFFCURVE",
"274 474 CURVE SMOOTH",
"162 474 OFFCURVE",
"26 405 OFFCURVE",
"26 217 CURVE SMOOTH",
"26 71 OFFCURVE",
"102 -14 OFFCURVE",
"228 -14 CURVE SMOOTH",
"319 -14 OFFCURVE",
"386 33 OFFCURVE",
"398 110 CURVE",
"372 158 LINE",
"372 89 OFFCURVE",
"328 35 OFFCURVE",
"260 35 CURVE SMOOTH",
"179 35 OFFCURVE",
"108 95 OFFCURVE",
"108 253 CURVE SMOOTH",
"108 373 OFFCURVE",
"169 423 OFFCURVE",
"246 422 CURVE SMOOTH",
"339 421 OFFCURVE",
"372 368 OFFCURVE",
"372 333 CURVE"
);
},
{
closed = 1;
nodes = (
"444 363 LINE",
"444 575 OFFCURVE",
"451 638 OFFCURVE",
"466 725 CURVE",
"440 721 OFFCURVE",
"415 718 OFFCURVE",
"387 716 CURVE",
"378 640 OFFCURVE",
"372 570 OFFCURVE",
"372 363 CURVE"
);
},
{
closed = 1;
nodes = (
"372 95 LINE",
"391 -5 LINE",
"410 -1 OFFCURVE",
"440 3 OFFCURVE",
"464 3 CURVE",
"448 93 OFFCURVE",
"444 139 OFFCURVE",
"444 313 CURVE",
"372 313 LINE"
);
}
);
width = 518;
}
);
leftMetricsKey = o;
unicode = 0064;
},
{
glyphname = eth;
lastChange = "2017-05-11 12:38:45 +0000";
layers = (
{
anchors = (
{
name = bottom;
position = "{273, 0}";
},
{
name = entry;
position = "{386, 450}";
},
{
name = top;
position = "{273, 450}";
},
{
name = topright;
position = "{525, 450}";
}
);
layerId = "4A3087DE-C6CF-4F86-8B90-A264D0797279";
paths = (
{
closed = 1;
nodes = (
"295 605 OFFCURVE",
"391 417 OFFCURVE",
"391 229 CURVE SMOOTH",
"391 97 OFFCURVE",
"326 18 OFFCURVE",
"240 18 CURVE SMOOTH",
"163 18 OFFCURVE",
"96 97 OFFCURVE",
"96 233 CURVE SMOOTH",
"96 372 OFFCURVE",
"199 431 OFFCURVE",
"256 431 CURVE SMOOTH",
"312 431 OFFCURVE",
"338 420 OFFCURVE",
"365 392 CURVE",
"382 413 LINE",
"372 441 OFFCURVE",
"337 464 OFFCURVE",
"297 464 CURVE SMOOTH",
"163 464 OFFCURVE",
"36 361 OFFCURVE",
"36 205 CURVE SMOOTH",
"36 73 OFFCURVE",
"127 -14 OFFCURVE",
"231 -14 CURVE SMOOTH",
"363 -14 OFFCURVE",
"452 97 OFFCURVE",
"452 237 CURVE SMOOTH",
"452 422 OFFCURVE",
"354 607 OFFCURVE",
"167 734 CURVE",
"127 724 LINE"
);
},
{
closed = 1;
nodes = (
"199 555 LINE",
"381 621 LINE",
"373 642 LINE",
"191 575 LINE"
);
}
);
width = 502;
}
);
unicode = 00F0;
},
{
glyphname = e;
lastChange = "2017-05-13 06:59:50 +0000";
layers = (
{
anchors = (
{
name = bottom;
position = "{218, 0}";
},
{
name = ogonek;
position = "{395, 0}";
},
{
name = top;
position = "{239, 450}";
}
);
layerId = "4A3087DE-C6CF-4F86-8B90-A264D0797279";
leftMetricsKey = "=o";
paths = (
{
closed = 1;
nodes = (
"304 -14 OFFCURVE",
"356 8 OFFCURVE",
"387 34 CURVE SMOOTH",
"399 44 OFFCURVE",
"401 50 OFFCURVE",
"404 75 CURVE",
"397 78 LINE",
"362 47 OFFCURVE",
"320 27 OFFCURVE",
"264 27 CURVE SMOOTH",
"177 27 OFFCURVE",
"101 93 OFFCURVE",
"105 266 CURVE",
"106 278 LINE",
"112 380 OFFCURVE",
"165 436 OFFCURVE",
"228 436 CURVE SMOOTH",
"300 436 OFFCURVE",
"347 383 OFFCURVE",
"347 296 CURVE SMOOTH",
"347 288 OFFCURVE",
"328 285 OFFCURVE",
"254 285 CURVE SMOOTH",
"92 285 LINE",
"92 259 LINE",
"399 259 LINE",
"404 272 OFFCURVE",
"406 288 OFFCURVE",
"406 308 CURVE SMOOTH",
"406 388 OFFCURVE",
"348 464 OFFCURVE",
"253 464 CURVE SMOOTH",
"132 464 OFFCURVE",
"46 353 OFFCURVE",
"46 217 CURVE SMOOTH",
"46 64 OFFCURVE",
"131 -14 OFFCURVE",
"247 -14 CURVE SMOOTH"
);
}
);
width = 451;
},
{
associatedMasterId = "4A3087DE-C6CF-4F86-8B90-A264D0797279";
layerId = "23D74DE1-3D11-4F35-90C2-BC2C4A35B5F9";
leftMetricsKey = "=o";
name = "Regular May 11 15, 22:14";
paths = (
{
closed = 1;
nodes = (
"138 444 OFFCURVE",
"46 360 OFFCURVE",
"46 207 CURVE SMOOTH",
"46 57 OFFCURVE",
"131 -8 OFFCURVE",
"251 -8 CURVE SMOOTH",
"305 -8 OFFCURVE",
"366 14 OFFCURVE",
"399 45 CURVE",
"388 79 LINE",
"354 57 OFFCURVE",
"318 47 OFFCURVE",
"281 47 CURVE SMOOTH",
"198 47 OFFCURVE",
"128 99 OFFCURVE",
"124 223 CURVE",
"126 241 LINE",
"126 354 OFFCURVE",
"169 390 OFFCURVE",
"228 390 CURVE SMOOTH",
"301 390 OFFCURVE",
"334 337 OFFCURVE",
"334 258 CURVE",
"268 253 OFFCURVE",
"191 252 OFFCURVE",
"113 253 CURVE",
"112 210 LINE",
"199 214 OFFCURVE",
"311 216 OFFCURVE",
"408 217 CURVE",
"411 228 OFFCURVE",
"412 241 OFFCURVE",
"412 254 CURVE SMOOTH",
"412 364 OFFCURVE",
"351 444 OFFCURVE",
"253 444 CURVE SMOOTH"
);
},
{
closed = 0;
nodes = (
"399 45 LINE"
);
}
);
width = 453;
}
);
leftMetricsKey = o;
unicode = 0065;
},
{
glyphname = eogonek;
lastChange = "2017-05-01 11:24:01 +0000";
layers = (
{
anchors = (
{
name = _ogonek;
position = "{395, 0}";
}
);
components = (
{
name = e;
}
);
layerId = "4A3087DE-C6CF-4F86-8B90-A264D0797279";
paths = (
{
closed = 1;
nodes = (
"313 -202 OFFCURVE",
"288 -181 OFFCURVE",
"288 -126 CURVE SMOOTH",
"288 -78 OFFCURVE",
"323 -23 OFFCURVE",
"389 22 CURVE SMOOTH",
"397 27 OFFCURVE",
"404 31 OFFCURVE",
"404 74 CURVE",
"377 23 LINE",
"299 -7 OFFCURVE",
"232 -70 OFFCURVE",
"232 -137 CURVE SMOOTH",
"232 -198 OFFCURVE",
"273 -228 OFFCURVE",
"315 -228 CURVE SMOOTH",
"353 -228 OFFCURVE",
"376 -217 OFFCURVE",
"399 -198 CURVE",
"392 -187 LINE",
"373 -198 OFFCURVE",
"358 -202 OFFCURVE",
"341 -202 CURVE SMOOTH"
);
}
);
width = 451;
}
);
unicode = 0119;
},
{
glyphname = f;
lastChange = "2017-04-01 22:37:02 +0000";
layers = (
{
anchors = (
{
name = bottom;
position = "{154, 0}";
},
{
name = top;
position = "{154, 430}";
}
);
hints = (
{
origin = "{0, 12}";
target = "{0, 13}";
type = Cap;
name = _cap.stm.btm.3;
}
);
layerId = "4A3087DE-C6CF-4F86-8B90-A264D0797279";
paths = (
{
closed = 1;
nodes = (
"324 658 OFFCURVE",
"327 668 OFFCURVE",
"327 681 CURVE SMOOTH",
"327 712 OFFCURVE",
"292 734 OFFCURVE",
"241 734 CURVE SMOOTH",
"197 734 OFFCURVE",
"156 705 OFFCURVE",
"128 656 CURVE SMOOTH",
"107 619 OFFCURVE",
"100 583 OFFCURVE",
"100 533 CURVE SMOOTH",
"100 0 LINE",
"154 0 LINE",
"154 550 LINE SMOOTH",
"154 659 OFFCURVE",
"174 709 OFFCURVE",
"227 709 CURVE SMOOTH",
"257 709 OFFCURVE",
"283 687 OFFCURVE",
"304 644 CURVE"
);
},
{
closed = 1;
nodes = (
"34 422 LINE",
"274 422 LINE SMOOTH",
"282 422 OFFCURVE",
"285 426 OFFCURVE",
"281 453 CURVE",
"220 450 OFFCURVE",
"113 450 OFFCURVE",
"36 450 CURVE"
);
}
);
width = 307;
}
);
unicode = 0066;
},
{
glyphname = g;
lastChange = "2017-05-13 07:20:58 +0000";
layers = (
{
anchors = (
{
name = bottom;
position = "{223, 0}";
},
{
name = top;
position = "{223, 450}";
}
);
layerId = "4A3087DE-C6CF-4F86-8B90-A264D0797279";
paths = (
{
closed = 1;
nodes = (
"419 422 LINE SMOOTH",
"430 422 OFFCURVE",
"434 427 OFFCURVE",
"431 455 CURVE",
"400 451 OFFCURVE",
"365 450 OFFCURVE",
"330 450 CURVE SMOOTH",
"267 450 OFFCURVE",
"253 464 OFFCURVE",
"214 464 CURVE SMOOTH",
"130 464 OFFCURVE",
"55 409 OFFCURVE",
"55 314 CURVE SMOOTH",
"55 236 OFFCURVE",
"123 180 OFFCURVE",
"189 180 CURVE",
"182 190 LINE",
"164 180 OFFCURVE",
"151 173 OFFCURVE",
"130 163 CURVE SMOOTH",
"110 154 OFFCURVE",
"99 141 OFFCURVE",
"99 123 CURVE SMOOTH",
"99 89 OFFCURVE",
"121 56 OFFCURVE",
"165 42 CURVE",
"155 67 LINE",
"125 46 OFFCURVE",
"96 26 OFFCURVE",
"69 11 CURVE SMOOTH",
"42 -4 OFFCURVE",
"29 -30 OFFCURVE",
"29 -62 CURVE SMOOTH",
"29 -161 OFFCURVE",
"99 -213 OFFCURVE",
"187 -213 CURVE SMOOTH",
"233 -213 OFFCURVE",
"288 -193 OFFCURVE",
"335 -161 CURVE SMOOTH",
"379 -131 OFFCURVE",
"411 -83 OFFCURVE",
"411 -26 CURVE SMOOTH",
"411 37 OFFCURVE",
"365 87 OFFCURVE",
"250 90 CURVE SMOOTH",
"184 92 OFFCURVE",
"154 106 OFFCURVE",
"154 135 CURVE SMOOTH",
"154 150 OFFCURVE",
"169 165 OFFCURVE",
"207 168 CURVE SMOOTH",
"297 175 OFFCURVE",
"374 225 OFFCURVE",
"374 320 CURVE SMOOTH",
"374 352 OFFCURVE",
"367 373 OFFCURVE",
"347 402 CURVE SMOOTH",
"340 412 OFFCURVE",
"338 416 OFFCURVE",
"338 418 CURVE SMOOTH",
"338 421 OFFCURVE",
"340 422 OFFCURVE",
"345 422 CURVE SMOOTH"
);
},
{
closed = 1;
nodes = (
"164 199 OFFCURVE",
"115 248 OFFCURVE",
"115 343 CURVE SMOOTH",
"115 395 OFFCURVE",
"146 436 OFFCURVE",
"198 436 CURVE SMOOTH",
"276 436 OFFCURVE",
"314 378 OFFCURVE",
"314 302 CURVE SMOOTH",
"314 236 OFFCURVE",
"273 199 OFFCURVE",
"222 199 CURVE SMOOTH"
);
},
{
closed = 1;
nodes = (
"356 -132 OFFCURVE",
"279 -185 OFFCURVE",
"202 -185 CURVE SMOOTH",
"133 -185 OFFCURVE",
"91 -127 OFFCURVE",
"91 -55 CURVE SMOOTH",
"91 -19 OFFCURVE",
"108 3 OFFCURVE",
"133 20 CURVE SMOOTH",
"152 33 OFFCURVE",
"179 39 OFFCURVE",
"222 39 CURVE SMOOTH",
"313 39 OFFCURVE",
"356 13 OFFCURVE",
"356 -50 CURVE SMOOTH"
);
}
);
width = 454;
}
);
unicode = 0067;
},
{
glyphname = idotless;
lastChange = "2017-05-01 00:08:09 +0000";
layers = (
{
anchors = (
{
name = bottom;
position = "{116, 0}";
},
{
name = ogonek;
position = "{208, 10}";
},
{
name = top;
position = "{113, 450}";
}
);
hints = (
{
origin = "{0, 2}";
target = "{0, 3}";
type = Cap;
name = _cap.stm.btm.2;
},
{
origin = "{0, 0}";
target = "{0, 1}";
type = Cap;
name = _cap.stm.mid.2;
}
);
layerId = "4A3087DE-C6CF-4F86-8B90-A264D0797279";
paths = (
{
closed = 1;
nodes = (
"140 450 LINE",
"86 450 LINE",
"86 0 LINE",
"140 0 LINE"
);
}
);
width = 231;
}
);
unicode = 0131;
},
{
glyphname = iogonek;
lastChange = "2017-05-01 11:24:27 +0000";
layers = (
{
anchors = (
{
name = _ogonek;
position = "{208, 10}";
}
);
components = (
{
name = idotless;
},
{
name = dotaccent;
transform = "{1, 0, 0, 1, -37, 0}";
}
);
layerId = "4A3087DE-C6CF-4F86-8B90-A264D0797279";
paths = (
{
closed = 1;
nodes = (
"108 -192 OFFCURVE",
"83 -171 OFFCURVE",
"83 -116 CURVE SMOOTH",
"83 -52 OFFCURVE",
"131 -5 OFFCURVE",
"194 5 CURVE",
"172 14 LINE",
"94 3 OFFCURVE",
"27 -60 OFFCURVE",
"27 -127 CURVE SMOOTH",
"27 -188 OFFCURVE",
"68 -218 OFFCURVE",
"110 -218 CURVE SMOOTH",
"148 -218 OFFCURVE",
"171 -207 OFFCURVE",
"194 -188 CURVE",
"187 -177 LINE",
"168 -188 OFFCURVE",
"153 -192 OFFCURVE",
"136 -192 CURVE SMOOTH"
);
}
);
width = 231;
}
);
unicode = 012F;
},
{
glyphname = jdotless;
lastChange = "2017-05-01 00:08:59 +0000";
layers = (
{
anchors = (
{
name = bottom;
position = "{115, 0}";
},
{
name = top;
position = "{123, 450}";
}
);
hints = (
{
origin = "{0, 11}";
target = "{0, 12}";
type = Cap;
name = _cap.stm.mid.2;
}
);
layerId = "4A3087DE-C6CF-4F86-8B90-A264D0797279";
paths = (
{
closed = 1;
nodes = (
"96 0 LINE SMOOTH",
"96 -145 OFFCURVE",
"53 -179 OFFCURVE",
"-6 -192 CURVE",
"3 -212 LINE",
"102 -174 OFFCURVE",
"153 -135 OFFCURVE",
"151 0 CURVE SMOOTH",
"150 62 OFFCURVE",
"150 124 OFFCURVE",
"150 186 CURVE SMOOTH",
"150 450 LINE",
"96 450 LINE"
);
}
);
width = 230;
}
);
unicode = 0237;
},
{
glyphname = k;
lastChange = "2017-04-09 05:22:02 +0000";
layers = (
{
anchors = (
{
name = bottom;
position = "{244, 0}";
},
{
name = top;
position = "{244, 430}";
}
);
components = (
{
alignment = 1;
name = _stem.4;
}
);
hints = (
{
origin = "{0, 6}";
scale = "{-1, 1}";
type = Corner;
name = _corner.stm.out.1;
options = 1;
}
);
layerId = "4A3087DE-C6CF-4F86-8B90-A264D0797279";
paths = (
{
closed = 1;
nodes = (
"210 195 OFFCURVE",
"255 142 OFFCURVE",
"329 38 CURVE SMOOTH",
"355 4 OFFCURVE",
"361 0 OFFCURVE",
"376 0 CURVE SMOOTH",
"439 0 LINE",
"203 287 LINE",
"207 263 LINE",
"288 348 OFFCURVE",
"344 398 OFFCURVE",
"411 439 CURVE",
"414 446 LINE",
"382 457 LINE",
"361 453 OFFCURVE",
"334 433 OFFCURVE",
"303 398 CURVE SMOOTH",
"265 356 OFFCURVE",
"216 309 OFFCURVE",
"156 257 CURVE",
"156 249 LINE",
"160 249 OFFCURVE",
"166 244 OFFCURVE",
"177 232 CURVE SMOOTH"
);
}
);
width = 460;
}
);
leftMetricsKey = h;
unicode = 006B;
},
{
glyphname = l;
lastChange = "2017-05-01 10:34:27 +0000";
layers = (
{
anchors = (
{
name = bottom;
position = "{116, 0}";
},
{
name = center;
position = "{111, 450}";
},
{
name = top;
position = "{111, 727}";
},
{
name = topright;
position = "{225, 430}";
}
);
hints = (
{
origin = "{0, 1}";
target = "{0, 2}";
type = Cap;
name = _cap.stm.top.1;
},
{
origin = "{0, 3}";
target = "{0, 0}";
type = Cap;
name = _cap.stm.btm.2;
}
);
layerId = "4A3087DE-C6CF-4F86-8B90-A264D0797279";
paths = (
{
closed = 1;
nodes = (
"138 0 LINE",
"138 727 LINE",
"84 727 LINE",
"84 0 LINE"
);
}
);
width = 229;
}
);
leftMetricsKey = h;
unicode = 006C;
},
{
glyphname = m;
lastChange = "2017-04-04 11:56:31 +0000";
layers = (
{
anchors = (
{
name = bottom;
position = "{389, 0}";
},
{
name = entry;
position = "{459, 0}";
},
{
name = top;
position = "{389, 430}";
}
);
components = (
{
name = _shoulder.1;
transform = "{1, 0, 0, 1, 2, 0}";
}
);
hints = (
{
origin = "{0, 0}";
target = "{0, 2}";
type = Cap;
name = _cap.stm.mid.1;
},
{
origin = "{0, 2}";
target = "{0, 3}";
type = Cap;
name = _cap.stm.btm.3;
},
{
origin = "{2, 13}";
target = "{2, 14}";
type = Cap;
name = _cap.stm.btm.3;
}
);
layerId = "4A3087DE-C6CF-4F86-8B90-A264D0797279";
leftMetricsKey = "=n";
rightMetricsKey = "=n";
paths = (
{
closed = 1;
nodes = (
"156 450 LINE",
"102 450 LINE",
"102 0 LINE",
"156 0 LINE"
);
},
{
closed = 1;
nodes = (
"459 194 LINE",
"459 313 LINE",
"420 372 LINE"
);
},
{
closed = 1;
nodes = (
"525 464 OFFCURVE",
"470 429 OFFCURVE",
"420 372 CURVE",
"459 313 LINE",
"459 395 OFFCURVE",
"520 431 OFFCURVE",
"572 431 CURVE SMOOTH",
"625 431 OFFCURVE",
"657 414 OFFCURVE",
"677 381 CURVE SMOOTH",
"696 350 OFFCURVE",
"707 313 OFFCURVE",
"707 242 CURVE SMOOTH",
"707 0 LINE",
"761 0 LINE",
"761 261 LINE SMOOTH",
"761 306 OFFCURVE",
"757 347 OFFCURVE",
"746 377 CURVE SMOOTH",
"723 439 OFFCURVE",
"682 464 OFFCURVE",
"608 464 CURVE SMOOTH"
);
}
);
width = 849;
}
);
leftMetricsKey = n;
rightMetricsKey = n;
unicode = 006D;
},
{
glyphname = eng;
lastChange = "2017-05-01 10:31:42 +0000";
layers = (
{
anchors = (
{
name = entry;
position = "{156, 0}";
}
);
components = (
{
alignment = -1;
name = _stem.6;
}
);
layerId = "4A3087DE-C6CF-4F86-8B90-A264D0797279";
paths = (
{
closed = 1;
nodes = (
"240 464 OFFCURVE",
"180 442 OFFCURVE",
"128 388 CURVE",
"156 343 LINE",
"156 404 OFFCURVE",
"217 431 OFFCURVE",
"269 431 CURVE SMOOTH",
"322 431 OFFCURVE",
"354 414 OFFCURVE",
"374 381 CURVE SMOOTH",
"393 350 OFFCURVE",
"404 313 OFFCURVE",
"404 242 CURVE SMOOTH",
"404 0 LINE SMOOTH",
"404 -135 OFFCURVE",
"390 -183 OFFCURVE",
"316 -183 CURVE",
"324 -203 LINE",
"373 -203 OFFCURVE",
"410 -191 OFFCURVE",
"432 -158 CURVE SMOOTH",
"452 -127 OFFCURVE",
"462 -77 OFFCURVE",
"459 20 CURVE SMOOTH",
"458 55 OFFCURVE",
"458 81 OFFCURVE",
"458 106 CURVE SMOOTH",
"458 261 LINE SMOOTH",
"458 306 OFFCURVE",
"454 347 OFFCURVE",
"443 377 CURVE SMOOTH",
"420 439 OFFCURVE",
"379 464 OFFCURVE",
"305 464 CURVE SMOOTH"
);
}
);
width = 517;
}
);
unicode = 014B;
},
{
glyphname = o;
lastChange = "2017-05-04 12:31:05 +0000";
layers = (
{
anchors = (
{
name = bottom;
position = "{266, 0}";
},
{
name = center;
position = "{266, 215}";
},
{
name = ogonek;
position = "{474, 10}";
},
{
name = top;
position = "{266, 450}";
},
{
name = topright;
position = "{506, 430}";
}
);
layerId = "4A3087DE-C6CF-4F86-8B90-A264D0797279";
paths = (
{
closed = 1;
nodes = (
"148 464 OFFCURVE",
"46 373 OFFCURVE",
"46 225 CURVE SMOOTH",
"46 77 OFFCURVE",
"138 -14 OFFCURVE",
"258 -14 CURVE SMOOTH",
"384 -14 OFFCURVE",
"486 76 OFFCURVE",
"486 225 CURVE SMOOTH",
"486 363 OFFCURVE",
"404 464 OFFCURVE",
"274 464 CURVE SMOOTH"
);
},
{
closed = 1;
nodes = (
"183 20 OFFCURVE",
"111 114 OFFCURVE",
"111 250 CURVE SMOOTH",
"111 356 OFFCURVE",
"169 433 OFFCURVE",
"260 433 CURVE SMOOTH",
"352 433 OFFCURVE",
"421 336 OFFCURVE",
"421 200 CURVE SMOOTH",
"421 89 OFFCURVE",
"363 20 OFFCURVE",
"275 20 CURVE SMOOTH"
);
}
);
width = 532;
}
);
unicode = 006F;
},
{
glyphname = oslash;
lastChange = "2017-05-04 12:30:17 +0000";
layers = (
{
anchors = (
{
name = bottom;
position = "{266, 0}";
},
{
name = center;
position = "{266, 215}";
},
{
name = ogonek;
position = "{474, 10}";
},
{
name = top;
position = "{266, 450}";
},
{
name = topright;
position = "{506, 430}";
}
);
components = (
{
name = o;
}
);
layerId = "4A3087DE-C6CF-4F86-8B90-A264D0797279";
paths = (
{
closed = 1;
nodes = (
"433 485 LINE",
"128 55 LINE SMOOTH",
"109 28 OFFCURVE",
"92 4 OFFCURVE",
"72 -21 CURVE",
"99 -35 LINE",
"404 395 LINE SMOOTH",
"422 421 OFFCURVE",
"440 446 OFFCURVE",
"460 471 CURVE"
);
}
);
width = 532;
}
);
leftMetricsKey = o;
rightMetricsKey = o;
unicode = 00F8;
},
{
glyphname = oe;
lastChange = "2017-05-13 07:00:36 +0000";
layers = (
{
anchors = (
{
name = bottom;
position = "{750, 0}";
},
{
name = center;
position = "{266, 215}";
},
{
name = ogonek;
position = "{927, 0}";
},
{
name = top;
position = "{771, 450}";
},
{
name = topright;
position = "{506, 430}";
}
);
components = (
{
name = e;
transform = "{1, 0, 0, 1, 375, 0}";
}
);
layerId = "4A3087DE-C6CF-4F86-8B90-A264D0797279";
paths = (
{
closed = 1;
nodes = (
"148 464 OFFCURVE",
"46 373 OFFCURVE",
"46 225 CURVE SMOOTH",
"46 77 OFFCURVE",
"128 -14 OFFCURVE",
"256 -14 CURVE SMOOTH",
"360 -14 OFFCURVE",
"447 45 OFFCURVE",
"476 148 CURVE",
"475 313 LINE",
"448 408 OFFCURVE",
"376 464 OFFCURVE",
"276 464 CURVE SMOOTH"
);
},
{
closed = 1;
nodes = (
"183 20 OFFCURVE",
"111 94 OFFCURVE",
"111 255 CURVE SMOOTH",
"111 356 OFFCURVE",
"169 433 OFFCURVE",
"260 433 CURVE SMOOTH",
"352 433 OFFCURVE",
"421 356 OFFCURVE",
"421 195 CURVE SMOOTH",
"421 89 OFFCURVE",
"363 20 OFFCURVE",
"275 20 CURVE SMOOTH"
);
}
);
width = 826;
}
);
leftMetricsKey = o;
rightMetricsKey = e;
unicode = 0153;
},
{
glyphname = thorn;
lastChange = "2017-05-04 12:59:04 +0000";
layers = (
{
anchors = (
{
name = entry;
position = "{136, 0}";
},
{
name = exit;
position = "{136, 0}";
}
);
components = (
{
alignment = 1;
name = _bowl.1;
transform = "{1, 0, 0, 1, 114, 0}";
}
);
hints = (
{
origin = "{0, 7}";
target = "{0, 0}";
type = Cap;
name = _cap.stm.btm.3;
},
{
origin = "{0, 5}";
target = "{0, 6}";
type = Cap;
name = _cap.stm.top.1;
}
);
layerId = "4A3087DE-C6CF-4F86-8B90-A264D0797279";
paths = (
{
closed = 1;
nodes = (
"138 -219 LINE",
"138 114 LINE",
"136 113 LINE",
"136 337 LINE",
"138 336 LINE",
"138 727 LINE",
"84 727 LINE",
"84 -219 LINE"
);
}
);
width = 522;
}
);
leftMetricsKey = h;
rightMetricsKey = o;
unicode = 00FE;
},
{
glyphname = r;
lastChange = "2017-05-08 17:28:50 +0000";
layers = (
{
anchors = (
{
name = bottom;
position = "{170, 0}";
},
{
name = top;
position = "{170, 430}";
}
);
components = (
{
name = _stem.6;
}
);
layerId = "4A3087DE-C6CF-4F86-8B90-A264D0797279";
leftMetricsKey = "=n";
paths = (
{
closed = 1;
nodes = (
"152 464 OFFCURVE",
"110 368 OFFCURVE",
"115 314 CURVE",
"147 331 LINE",
"147 398 OFFCURVE",
"176 420 OFFCURVE",
"217 420 CURVE SMOOTH",
"237 420 OFFCURVE",
"260 417 OFFCURVE",
"279 413 CURVE",
"281 447 LINE",
"271 458 OFFCURVE",
"261 464 OFFCURVE",
"244 464 CURVE SMOOTH"
);
}
);
width = 310;
}
);
leftMetricsKey = n;
unicode = 0072;
},
{
glyphname = s;
lastChange = "2017-04-30 14:28:45 +0000";
layers = (
{
anchors = (
{
name = bottom;
position = "{159, 0}";
},
{
name = top;
position = "{177, 450}";
}
);
layerId = "4A3087DE-C6CF-4F86-8B90-A264D0797279";
paths = (
{
closed = 1;
nodes = (
"113 22 OFFCURVE",
"75 38 OFFCURVE",
"37 99 CURVE",
"27 96 LINE",
"28 14 OFFCURVE",
"62 -14 OFFCURVE",
"114 -14 CURVE SMOOTH",
"213 -14 OFFCURVE",
"295 50 OFFCURVE",
"295 133 CURVE SMOOTH",
"295 183 OFFCURVE",
"262 213 OFFCURVE",
"179 280 CURVE SMOOTH",
"129 320 OFFCURVE",
"109 338 OFFCURVE",
"109 365 CURVE SMOOTH",
"109 393 OFFCURVE",
"131 422 OFFCURVE",
"171 422 CURVE SMOOTH",
"195 422 OFFCURVE",
"235 412 OFFCURVE",
"271 374 CURVE",
"281 380 LINE",
"279 444 OFFCURVE",
"241 464 OFFCURVE",
"204 464 CURVE SMOOTH",
"137 464 OFFCURVE",
"66 406 OFFCURVE",
"66 337 CURVE SMOOTH",
"66 293 OFFCURVE",
"90 261 OFFCURVE",
"149 215 CURVE SMOOTH",
"213 165 OFFCURVE",
"242 136 OFFCURVE",
"242 94 CURVE SMOOTH",
"242 53 OFFCURVE",
"201 22 OFFCURVE",
"153 22 CURVE SMOOTH"
);
}
);
width = 348;
},
{
associatedMasterId = "4A3087DE-C6CF-4F86-8B90-A264D0797279";
layerId = "CDBEBA36-1D7A-4F71-A968-671435AC6B2F";
name = "Oct 5 16, 04:01";
paths = (
{
closed = 1;
nodes = (
"129 25 OFFCURVE",
"99 48 OFFCURVE",
"68 89 CURVE",
"49 87 OFFCURVE",
"37 74 OFFCURVE",
"37 50 CURVE SMOOTH",
"37 9 OFFCURVE",
"86 -14 OFFCURVE",
"141 -14 CURVE SMOOTH",
"217 -14 OFFCURVE",
"305 48 OFFCURVE",
"305 118 CURVE SMOOTH",
"305 169 OFFCURVE",
"273 204 OFFCURVE",
"189 270 CURVE SMOOTH",
"142 307 OFFCURVE",
"126 327 OFFCURVE",
"126 354 CURVE SMOOTH",
"126 388 OFFCURVE",
"147 404 OFFCURVE",
"175 404 CURVE SMOOTH",
"210 404 OFFCURVE",
"238 390 OFFCURVE",
"269 352 CURVE",
"277 352 OFFCURVE",
"290 364 OFFCURVE",
"290 392 CURVE SMOOTH",
"290 425 OFFCURVE",
"260 444 OFFCURVE",
"204 444 CURVE SMOOTH",
"143 444 OFFCURVE",
"66 383 OFFCURVE",
"66 315 CURVE SMOOTH",
"66 274 OFFCURVE",
"98 241 OFFCURVE",
"163 191 CURVE SMOOTH",
"215 151 OFFCURVE",
"240 116 OFFCURVE",
"240 81 CURVE SMOOTH",
"240 54 OFFCURVE",
"221 25 OFFCURVE",
"179 25 CURVE SMOOTH"
);
}
);
width = 358;
}
);
unicode = 0073;
},
{
glyphname = germandbls;
lastChange = "2017-05-07 13:32:29 +0000";
layers = (
{
layerId = "4A3087DE-C6CF-4F86-8B90-A264D0797279";
paths = (
{
closed = 1;
nodes = (
"326 359 OFFCURVE",
"309 388 OFFCURVE",
"309 410 CURVE SMOOTH",
"309 433 OFFCURVE",
"331 455 OFFCURVE",
"371 472 CURVE",
"411 501 OFFCURVE",
"440 542 OFFCURVE",
"440 594 CURVE SMOOTH",
"440 673 OFFCURVE",
"376 734 OFFCURVE",
"300 734 CURVE SMOOTH",
"230 734 OFFCURVE",
"170 705 OFFCURVE",
"137 656 CURVE SMOOTH",
"113 621 OFFCURVE",
"100 573 OFFCURVE",
"100 513 CURVE SMOOTH",
"100 194 LINE SMOOTH",
"100 157 OFFCURVE",
"100 133 OFFCURVE",
"98 90 CURVE SMOOTH",
"95 21 OFFCURVE",
"83 13 OFFCURVE",
"58 10 CURVE",
"60 -3 LINE",
"82 -1 OFFCURVE",
"100 0 OFFCURVE",
"127 0 CURVE SMOOTH",
"154 0 OFFCURVE",
"172 -1 OFFCURVE",
"194 -3 CURVE",
"196 10 LINE",
"171 13 OFFCURVE",
"159 21 OFFCURVE",
"156 90 CURVE SMOOTH",
"154 133 OFFCURVE",
"154 157 OFFCURVE",
"154 194 CURVE SMOOTH",
"154 550 LINE SMOOTH",
"154 659 OFFCURVE",
"205 699 OFFCURVE",
"260 699 CURVE SMOOTH",
"341 699 OFFCURVE",
"382 633 OFFCURVE",
"382 561 CURVE SMOOTH",
"382 515 OFFCURVE",
"371 496 OFFCURVE",
"355 489 CURVE SMOOTH",
"294 462 OFFCURVE",
"266 430 OFFCURVE",
"266 383 CURVE SMOOTH",
"266 327 OFFCURVE",
"310 281 OFFCURVE",
"369 235 CURVE SMOOTH",
"433 185 OFFCURVE",
"462 136 OFFCURVE",
"462 94 CURVE SMOOTH",
"462 53 OFFCURVE",
"421 22 OFFCURVE",
"373 22 CURVE SMOOTH",
"333 22 OFFCURVE",
"295 38 OFFCURVE",
"257 99 CURVE",
"247 96 LINE",
"248 14 OFFCURVE",
"282 -14 OFFCURVE",
"334 -14 CURVE SMOOTH",
"433 -14 OFFCURVE",
"515 50 OFFCURVE",
"515 133 CURVE SMOOTH",
"515 183 OFFCURVE",
"482 233 OFFCURVE",
"399 300 CURVE SMOOTH"
);
}
);
width = 556;
}
);
unicode = 00DF;
},
{
glyphname = t;
lastChange = "2017-05-04 13:12:50 +0000";
layers = (
{
anchors = (
{
name = bottom;
position = "{169, 0}";
},
{
name = center;
position = "{109, 265}";
},
{
name = top;
position = "{169, 430}";
},
{
name = topright;
position = "{312, 430}";
}
);
layerId = "4A3087DE-C6CF-4F86-8B90-A264D0797279";
paths = (
{
closed = 1;
nodes = (
"263 422 LINE SMOOTH",
"277 422 OFFCURVE",
"278 426 OFFCURVE",
"276 453 CURVE",
"235 451 OFFCURVE",
"179 450 OFFCURVE",
"141 450 CURVE",
"141 472 OFFCURVE",
"142 495 OFFCURVE",
"144 531 CURVE",
"89 514 LINE",
"87 451 LINE",
"30 436 LINE",
"31 422 LINE",
"87 422 LINE",
"87 180 LINE SMOOTH",
"87 96 OFFCURVE",
"93 69 OFFCURVE",
"104 43 CURVE SMOOTH",
"124 0 OFFCURVE",
"153 -10 OFFCURVE",
"187 -10 CURVE SMOOTH",
"206 -10 OFFCURVE",
"244 5 OFFCURVE",
"276 15 CURVE SMOOTH",
"280 16 OFFCURVE",
"281 18 OFFCURVE",
"281 45 CURVE",
"258 38 OFFCURVE",
"243 36 OFFCURVE",
"224 36 CURVE SMOOTH",
"188 36 OFFCURVE",
"141 40 OFFCURVE",
"141 178 CURVE SMOOTH",
"141 422 LINE"
);
}
);
width = 316;
}
);
unicode = 0074;
},
{
glyphname = u;
lastChange = "2017-05-01 11:23:06 +0000";
layers = (
{
anchors = (
{
name = bottom;
position = "{274, 0}";
},
{
name = ogonek;
position = "{498, 0}";
},
{
name = top;
position = "{254, 450}";
},
{
name = topright;
position = "{513, 430}";
}
);
hints = (
{
origin = "{0, 2}";
target = "{0, 3}";
type = Cap;
name = _cap.stm.mid.2;
},
{
origin = "{1, 13}";
target = "{1, 14}";
type = Cap;
name = _cap.stm.mid.2;
},
{
origin = "{0, 0}";
target = "{0, 1}";
type = Cap;
name = _cap.stm.btm.4;
}
);
layerId = "4A3087DE-C6CF-4F86-8B90-A264D0797279";
paths = (
{
closed = 1;
nodes = (
"382 0 LINE",
"436 0 LINE",
"436 450 LINE",
"382 450 LINE"
);
},
{
closed = 1;
nodes = (
"298 -14 OFFCURVE",
"358 8 OFFCURVE",
"410 52 CURVE",
"382 110 LINE",
"382 49 OFFCURVE",
"316 22 OFFCURVE",
"274 22 CURVE SMOOTH",
"208 22 OFFCURVE",
"180 39 OFFCURVE",
"160 72 CURVE SMOOTH",
"141 103 OFFCURVE",
"134 157 OFFCURVE",
"134 201 CURVE SMOOTH",
"134 450 LINE",
"80 450 LINE",
"80 179 LINE SMOOTH",
"80 134 OFFCURVE",
"84 93 OFFCURVE",
"95 63 CURVE SMOOTH",
"111 19 OFFCURVE",
"149 -14 OFFCURVE",
"243 -14 CURVE SMOOTH"
);
}
);
width = 552;
}
);
leftMetricsKey = "=|n-10";
rightMetricsKey = "=|n-15";
unicode = 0075;
},
{
glyphname = uogonek;
lastChange = "2017-05-01 11:24:43 +0000";
layers = (
{
anchors = (
{
name = _ogonek;
position = "{498, 0}";
}
);
components = (
{
name = u;
}
);
layerId = "4A3087DE-C6CF-4F86-8B90-A264D0797279";
paths = (
{
closed = 1;
nodes = (
"411 -202 OFFCURVE",
"386 -181 OFFCURVE",
"386 -126 CURVE SMOOTH",
"386 -62 OFFCURVE",
"434 -15 OFFCURVE",
"498 14 CURVE",
"475 19 LINE",
"397 -7 OFFCURVE",
"330 -70 OFFCURVE",
"330 -137 CURVE SMOOTH",
"330 -198 OFFCURVE",
"371 -228 OFFCURVE",
"413 -228 CURVE SMOOTH",
"451 -228 OFFCURVE",
"474 -217 OFFCURVE",
"497 -198 CURVE",
"490 -187 LINE",
"471 -198 OFFCURVE",
"456 -202 OFFCURVE",
"439 -202 CURVE SMOOTH"
);
}
);
width = 552;
}
);
unicode = 0173;
},
{
glyphname = v;
lastChange = "2017-04-02 22:13:22 +0000";
layers = (
{
anchors = (
{
name = bottom;
position = "{246, 0}";
},
{
name = top;
position = "{246, 430}";
}
);
hints = (
{
origin = "{0, 1}";
type = Corner;
name = _corner.stm.out.1;
},
{
origin = "{0, 10}";
scale = "{-1, 1}";
type = Corner;
name = _corner.stm.out.1;
options = 1;
}
);
layerId = "4A3087DE-C6CF-4F86-8B90-A264D0797279";
paths = (
{
closed = 1;
nodes = (
"250 -6 LINE",
"449 450 LINE",
"399 450 LINE",
"355 310 OFFCURVE",
"302 170 OFFCURVE",
"234 30 CURVE",
"269 47 LINE",
"205 181 OFFCURVE",
"150 316 OFFCURVE",
"112 450 CURVE",
"35 450 LINE",
"226 -6 LINE"
);
}
);
width = 486;
}
);
unicode = 0076;
},
{
glyphname = w;
lastChange = "2017-04-30 14:22:52 +0000";
layers = (
{
anchors = (
{
name = bottom;
position = "{361, 0}";
},
{
name = top;
position = "{371, 450}";
}
);
hints = (
{
origin = "{0, 16}";
scale = "{-1, 1}";
type = Corner;
name = _corner.stm.out.1;
options = 1;
},
{
origin = "{0, 27}";
type = Corner;
name = _corner.stm.out.1;
}
);
layerId = "4A3087DE-C6CF-4F86-8B90-A264D0797279";
leftMetricsKey = "=v";
paths = (
{
closed = 1;
nodes = (
"659 450 LINE",
"620 323 OFFCURVE",
"575 197 OFFCURVE",
"528 70 CURVE",
"544 77 LINE",
"498 174 OFFCURVE",
"443 299 OFFCURVE",
"384 440 CURVE",
"364 440 LINE",
"308 292 OFFCURVE",
"262 181 OFFCURVE",
"205 63 CURVE",
"220 87 LINE",
"176 208 OFFCURVE",
"139 329 OFFCURVE",
"107 450 CURVE",
"28 450 LINE",
"188 -6 LINE",
"208 -6 LINE",
"250 87 OFFCURVE",
"314 224 OFFCURVE",
"373 350 CURVE",
"361 337 LINE",
"410 235 OFFCURVE",
"461 119 OFFCURVE",
"508 -6 CURVE",
"528 -6 LINE",
"712 450 LINE"
);
}
);
width = 731;
}
);
leftMetricsKey = v;
rightMetricsKey = v;
unicode = 0077;
},
{
glyphname = x;
lastChange = "2017-04-03 21:54:42 +0000";
layers = (
{
anchors = (
{
name = bottom;
position = "{250, 0}";
},
{
name = top;
position = "{250, 430}";
}
);
hints = (
{
origin = "{2, 9}";
scale = "{-1, 1}";
type = Corner;
name = _corner.stm.out.1;
options = 1;
},
{
origin = "{2, 4}";
scale = "{-1, 1}";
type = Corner;
name = _corner.stm.out.1;
options = 1;
},
{
origin = "{1, 1}";
type = Corner;
name = _corner.stm.out.1;
},
{
origin = "{0, 1}";
type = Corner;
name = _corner.stm.out.1;
}
);
layerId = "4A3087DE-C6CF-4F86-8B90-A264D0797279";
paths = (
{
closed = 1;
nodes = (
"222 241 LINE",
"31 0 LINE",
"89 0 LINE",
"128 69 OFFCURVE",
"175 136 OFFCURVE",
"233 207 CURVE"
);
},
{
closed = 1;
nodes = (
"245 221 LINE",
"420 450 LINE",
"361 450 LINE",
"320 374 OFFCURVE",
"280 311 OFFCURVE",
"234 251 CURVE"
);
},
{
closed = 1;
nodes = (
"255 258 LINE",
"212 322 OFFCURVE",
"174 386 OFFCURVE",
"146 450 CURVE",
"67 450 LINE",
"224 214 LINE",
"273 143 OFFCURVE",
"317 71 OFFCURVE",
"352 0 CURVE",
"428 0 LINE"
);
},
{
closed = 0;
nodes = (
"361 450 LINE"
);
}
);
width = 478;
}
);
unicode = 0078;
},
{
glyphname = y;
lastChange = "2017-05-04 13:13:31 +0000";
layers = (
{
anchors = (
{
name = bottom;
position = "{227, 0}";
},
{
name = top;
position = "{255, 450}";
}
);
hints = (
{
origin = "{0, 7}";
scale = "{-1, 1}";
type = Corner;
name = _corner.stm.out.1;
options = 1;
},
{
origin = "{0, 20}";
type = Corner;
name = _corner.stm.out.1;
}
);
layerId = "4A3087DE-C6CF-4F86-8B90-A264D0797279";
leftMetricsKey = "=v";
rightMetricsKey = "=v";
paths = (
{
closed = 1;
nodes = (
"357 309 OFFCURVE",
"302 178 OFFCURVE",
"244 54 CURVE",
"267 53 LINE",
"202 185 OFFCURVE",
"150 317 OFFCURVE",
"110 450 CURVE",
"35 450 LINE",
"224 -3 LINE",
"240 50 LINE",
"182 -94 OFFCURVE",
"106 -151 OFFCURVE",
"20 -157 CURVE",
"17 -160 LINE",
"28 -180 OFFCURVE",
"42 -198 OFFCURVE",
"57 -213 CURVE",
"134 -203 OFFCURVE",
"175 -167 OFFCURVE",
"250 -6 CURVE SMOOTH",
"449 450 LINE",
"400 450 LINE"
);
}
);
width = 486;
}
);
leftMetricsKey = v;
rightMetricsKey = v;
unicode = 0079;
},
{
glyphname = z;
lastChange = "2017-04-30 23:46:46 +0000";
layers = (
{
anchors = (
{
name = bottom;
position = "{211, 0}";
},
{
name = top;
position = "{198, 450}";
}
);
layerId = "4A3087DE-C6CF-4F86-8B90-A264D0797279";
paths = (
{
closed = 1;
nodes = (
"252 423 OFFCURVE",
"226 424 OFFCURVE",
"201 424 CURVE SMOOTH",
"118 424 OFFCURVE",
"98 415 OFFCURVE",
"72 380 CURVE",
"56 382 LINE",
"58 411 OFFCURVE",
"66 432 OFFCURVE",
"81 450 CURVE",
"163 450 LINE SMOOTH",
"260 450 OFFCURVE",
"284 450 OFFCURVE",
"338 452 CURVE",
"341 447 LINE",
"268 321 OFFCURVE",
"190 163 OFFCURVE",
"112 18 CURVE",
"109 30 LINE",
"148 27 OFFCURVE",
"174 26 OFFCURVE",
"206 26 CURVE SMOOTH",
"308 26 OFFCURVE",
"340 37 OFFCURVE",
"372 67 CURVE",
"379 65 LINE",
"376 37 OFFCURVE",
"370 20 OFFCURVE",
"358 0 CURVE",
"124 0 OFFCURVE",
"94 0 OFFCURVE",
"34 -2 CURVE",
"31 2 LINE",
"110 134 OFFCURVE",
"205 321 OFFCURVE",
"267 435 CURVE",
"277 420 LINE"
);
}
);
width = 407;
}
);
unicode = 007A;
},
{
export = 0;
glyphname = o.quarter;
lastChange = "2017-04-05 21:46:40 +0000";
layers = (
{
layerId = "4A3087DE-C6CF-4F86-8B90-A264D0797279";
paths = (
{
closed = 1;
nodes = (
"132 464 OFFCURVE",
"40 373 OFFCURVE",
"40 215 CURVE",
"105 215 LINE",
"105 356 OFFCURVE",
"163 437 OFFCURVE",
"260 437 CURVE",
"260 464 LINE"
);
}
);
width = 520;
}
);
},
{
glyphname = c_t;
lastChange = "2017-05-13 07:20:32 +0000";
layers = (
{
components = (
{
name = c;
}
);
layerId = "4A3087DE-C6CF-4F86-8B90-A264D0797279";
paths = (
{
closed = 1;
nodes = (
"404 360 LINE",
"404 391 OFFCURVE",
"381 450 OFFCURVE",
"381 496 CURVE SMOOTH",
"381 566 OFFCURVE",
"419 591 OFFCURVE",
"464 591 CURVE SMOOTH",
"506 591 OFFCURVE",
"535 560 OFFCURVE",
"535 493 CURVE SMOOTH",
"535 451 LINE",
"589 450 LINE",
"589 489 LINE SMOOTH",
"589 517 OFFCURVE",
"587 543 OFFCURVE",
"583 556 CURVE SMOOTH",
"569 602 OFFCURVE",
"536 624 OFFCURVE",
"477 624 CURVE SMOOTH",
"427 624 OFFCURVE",
"350 594 OFFCURVE",
"350 493 CURVE SMOOTH",
"350 455 OFFCURVE",
"362 400 OFFCURVE",
"373 367 CURVE"
);
},
{
closed = 1;
nodes = (
"711 422 LINE SMOOTH",
"725 422 OFFCURVE",
"726 426 OFFCURVE",
"724 453 CURVE",
"683 451 OFFCURVE",
"627 450 OFFCURVE",
"589 450 CURVE",
"535 451 LINE",
"478 436 LINE",
"479 422 LINE",
"535 422 LINE",
"535 180 LINE SMOOTH",
"535 96 OFFCURVE",
"541 69 OFFCURVE",
"553 43 CURVE SMOOTH",
"573 0 OFFCURVE",
"601 -10 OFFCURVE",
"635 -10 CURVE SMOOTH",
"654 -10 OFFCURVE",
"691 7 OFFCURVE",
"724 15 CURVE SMOOTH",
"728 16 OFFCURVE",
"729 18 OFFCURVE",
"729 45 CURVE",
"706 38 OFFCURVE",
"691 36 OFFCURVE",
"672 36 CURVE SMOOTH",
"636 36 OFFCURVE",
"589 40 OFFCURVE",
"589 178 CURVE SMOOTH",
"589 422 LINE"
);
}
);
width = 764;
}
);
leftMetricsKey = c;
rightMetricsKey = t;
},
{
glyphname = f_f_i;
lastChange = "2017-05-09 11:54:19 +0000";
layers = (
{
anchors = (
{
name = bottom;
position = "{154, 0}";
},
{
name = top;
position = "{154, 430}";
}
);
components = (
{
alignment = -1;
name = f_i;
transform = "{1, 0, 0, 1, 253, 0}";
}
);
hints = (
{
origin = "{0, 10}";
target = "{0, 11}";
type = Cap;
name = _cap.stm.btm.3;
}
);
layerId = "4A3087DE-C6CF-4F86-8B90-A264D0797279";
paths = (
{
closed = 1;
nodes = (
"398 619 LINE",
"387 693 OFFCURVE",
"326 734 OFFCURVE",
"261 734 CURVE SMOOTH",
"197 734 OFFCURVE",
"156 705 OFFCURVE",
"128 656 CURVE SMOOTH",
"107 619 OFFCURVE",
"100 583 OFFCURVE",
"100 533 CURVE SMOOTH",
"100 0 LINE",
"154 0 LINE",
"154 550 LINE SMOOTH",
"154 659 OFFCURVE",
"184 709 OFFCURVE",
"247 709 CURVE SMOOTH",
"296 709 OFFCURVE",
"341 673 OFFCURVE",
"348 612 CURVE SMOOTH",
"352 579 OFFCURVE",
"353 556 OFFCURVE",
"353 473 CURVE"
);
},
{
closed = 1;
nodes = (
"34 422 LINE",
"289 422 LINE",
"289 450 LINE",
"36 450 LINE"
);
}
);
width = 751;
}
);
leftMetricsKey = f;
rightMetricsKey = i;
},
{
glyphname = f_f_l;
lastChange = "2017-05-09 11:57:46 +0000";
layers = (
{
anchors = (
{
name = bottom;
position = "{758, 0}";
},
{
name = center;
position = "{753, 450}";
},
{
name = top;
position = "{753, 727}";
},
{
name = topright;
position = "{867, 430}";
}
);
components = (
{
name = f_l;
transform = "{1, 0, 0, 1, 281, 0}";
}
);
hints = (
{
origin = "{0, 10}";
target = "{0, 11}";
type = Cap;
name = _cap.stm.btm.3;
}
);
layerId = "4A3087DE-C6CF-4F86-8B90-A264D0797279";
paths = (
{
closed = 1;
nodes = (
"426 619 LINE",
"415 693 OFFCURVE",
"366 734 OFFCURVE",
"278 734 CURVE SMOOTH",
"207 734 OFFCURVE",
"156 705 OFFCURVE",
"128 656 CURVE SMOOTH",
"107 619 OFFCURVE",
"100 583 OFFCURVE",
"100 533 CURVE SMOOTH",
"100 0 LINE",
"154 0 LINE",
"154 550 LINE SMOOTH",
"154 659 OFFCURVE",
"194 709 OFFCURVE",
"257 709 CURVE SMOOTH",
"326 709 OFFCURVE",
"370 665 OFFCURVE",
"376 612 CURVE SMOOTH",
"380 579 OFFCURVE",
"381 556 OFFCURVE",
"381 473 CURVE"
);
},
{
closed = 1;
nodes = (
"34 422 LINE",
"317 422 LINE",
"317 450 LINE",
"36 450 LINE"
);
}
);
width = 807;
}
);
leftMetricsKey = f;
rightMetricsKey = l;
},
{
glyphname = f_i;
lastChange = "2017-05-09 11:51:43 +0000";
layers = (
{
anchors = (
{
name = bottom;
position = "{154, 0}";
},
{
name = ogonek;
position = "{475, 10}";
},
{
name = top;
position = "{154, 430}";
}
);
hints = (
{
origin = "{0, 12}";
target = "{0, 13}";
type = Cap;
name = _cap.stm.btm.3;
},
{
place = "{373, 54}";
type = Cap;
name = _cap.stm.btm.2;
},
{
place = "{427, -54}";
type = Cap;
name = _cap.stm.mid.2;
},
{
origin = "{2, 2}";
target = "{2, 3}";
type = Cap;
name = _cap.stm.btm.2;
}
);
layerId = "4A3087DE-C6CF-4F86-8B90-A264D0797279";
paths = (
{
closed = 1;
nodes = (
"389 628 OFFCURVE",
"398 638 OFFCURVE",
"398 651 CURVE SMOOTH",
"398 692 OFFCURVE",
"349 734 OFFCURVE",
"276 734 CURVE SMOOTH",
"212 734 OFFCURVE",
"163 704 OFFCURVE",
"133 656 CURVE SMOOTH",
"110 619 OFFCURVE",
"100 576 OFFCURVE",
"100 513 CURVE SMOOTH",
"100 0 LINE",
"154 0 LINE",
"154 530 LINE SMOOTH",
"154 639 OFFCURVE",
"179 709 OFFCURVE",
"252 709 CURVE SMOOTH",
"302 709 OFFCURVE",
"349 672 OFFCURVE",
"359 614 CURVE"
);
},
{
closed = 1;
nodes = (
"34 422 LINE",
"235 422 LINE SMOOTH",
"335 422 OFFCURVE",
"348 419 OFFCURVE",
"350 402 CURVE SMOOTH",
"352 384 OFFCURVE",
"353 363 OFFCURVE",
"353 337 CURVE SMOOTH",
"353 233 LINE",
"407 213 LINE",
"407 297 OFFCURVE",
"408 383 OFFCURVE",
"412 453 CURVE",
"351 450 OFFCURVE",
"113 450 OFFCURVE",
"36 450 CURVE"
);
},
{
closed = 1;
nodes = (
"407 360 LINE",
"353 360 LINE",
"353 0 LINE",
"407 0 LINE"
);
}
);
width = 498;
}
);
leftMetricsKey = f;
rightMetricsKey = i;
},
{
glyphname = f_l;
lastChange = "2017-05-09 11:56:42 +0000";
layers = (
{
hints = (
{
origin = "{1, 13}";
target = "{1, 14}";
type = Cap;
name = _cap.stm.btm.3;
},
{
origin = "{0, 3}";
target = "{0, 0}";
type = Cap;
name = _cap.stm.btm.2;
}
);
layerId = "4A3087DE-C6CF-4F86-8B90-A264D0797279";
paths = (
{
closed = 1;
nodes = (
"435 0 LINE",
"435 542 LINE",
"381 522 LINE",
"381 0 LINE"
);
},
{
closed = 1;
nodes = (
"435 542 LINE",
"435 578 OFFCURVE",
"433 602 OFFCURVE",
"425 627 CURVE SMOOTH",
"402 700 OFFCURVE",
"352 730 OFFCURVE",
"279 730 CURVE SMOOTH",
"214 730 OFFCURVE",
"156 705 OFFCURVE",
"128 656 CURVE SMOOTH",
"107 619 OFFCURVE",
"100 583 OFFCURVE",
"100 533 CURVE SMOOTH",
"100 0 LINE",
"154 0 LINE",
"154 550 LINE SMOOTH",
"154 659 OFFCURVE",
"190 705 OFFCURVE",
"268 705 CURVE SMOOTH",
"336 705 OFFCURVE",
"381 649 OFFCURVE",
"381 522 CURVE"
);
},
{
closed = 1;
nodes = (
"34 422 LINE",
"274 422 LINE SMOOTH",
"282 422 OFFCURVE",
"285 426 OFFCURVE",
"281 453 CURVE",
"220 450 OFFCURVE",
"113 450 OFFCURVE",
"36 450 CURVE"
);
}
);
width = 526;
}
);
leftMetricsKey = f;
rightMetricsKey = l;
},
{
glyphname = s_t;
lastChange = "2017-05-09 12:04:03 +0000";
layers = (
{
anchors = (
{
name = bottom;
position = "{507, 0}";
},
{
name = center;
position = "{447, 265}";
},
{
name = top;
position = "{507, 430}";
},
{
name = topright;
position = "{650, 430}";
}
);
components = (
{
name = s;
}
);
layerId = "4A3087DE-C6CF-4F86-8B90-A264D0797279";
paths = (
{
closed = 1;
nodes = (
"281 380 LINE",
"281 426 OFFCURVE",
"261 450 OFFCURVE",
"261 496 CURVE SMOOTH",
"261 566 OFFCURVE",
"299 591 OFFCURVE",
"344 591 CURVE SMOOTH",
"386 591 OFFCURVE",
"415 560 OFFCURVE",
"415 493 CURVE SMOOTH",
"415 451 LINE",
"469 450 LINE",
"469 489 LINE SMOOTH",
"469 517 OFFCURVE",
"467 543 OFFCURVE",
"463 556 CURVE SMOOTH",
"450 602 OFFCURVE",
"416 624 OFFCURVE",
"357 624 CURVE SMOOTH",
"307 624 OFFCURVE",
"230 594 OFFCURVE",
"230 493 CURVE SMOOTH",
"230 468 OFFCURVE",
"235 439 OFFCURVE",
"246 406 CURVE"
);
},
{
closed = 1;
nodes = (
"591 422 LINE SMOOTH",
"605 422 OFFCURVE",
"606 426 OFFCURVE",
"604 453 CURVE",
"563 451 OFFCURVE",
"507 450 OFFCURVE",
"469 450 CURVE",
"415 451 LINE",
"358 436 LINE",
"359 422 LINE",
"415 422 LINE",
"415 180 LINE SMOOTH",
"415 96 OFFCURVE",
"421 69 OFFCURVE",
"433 43 CURVE SMOOTH",
"452 0 OFFCURVE",
"481 -10 OFFCURVE",
"515 -10 CURVE SMOOTH",
"534 -10 OFFCURVE",
"572 5 OFFCURVE",
"604 15 CURVE SMOOTH",
"608 16 OFFCURVE",
"609 18 OFFCURVE",
"609 45 CURVE",
"586 38 OFFCURVE",
"571 36 OFFCURVE",
"552 36 CURVE SMOOTH",
"516 36 OFFCURVE",
"469 40 OFFCURVE",
"469 178 CURVE SMOOTH",
"469 422 LINE"
);
}
);
width = 644;
}
);
leftMetricsKey = s;
rightMetricsKey = t;
},
{
glyphname = zero;
lastChange = "2017-04-23 12:20:31 +0000";
layers = (
{
layerId = "4A3087DE-C6CF-4F86-8B90-A264D0797279";
paths = (
{
closed = 1;
nodes = (
"159 524 OFFCURVE",
"52 401 OFFCURVE",
"52 250 CURVE SMOOTH",
"52 99 OFFCURVE",
"160 -14 OFFCURVE",
"300 -14 CURVE SMOOTH",
"441 -14 OFFCURVE",
"548 109 OFFCURVE",
"548 260 CURVE SMOOTH",
"548 411 OFFCURVE",
"440 524 OFFCURVE",
"300 524 CURVE SMOOTH"
);
},
{
closed = 1;
nodes = (
"180 52 OFFCURVE",
"87 110 OFFCURVE",
"87 239 CURVE SMOOTH",
"87 388 OFFCURVE",
"210 458 OFFCURVE",
"310 458 CURVE SMOOTH",
"420 458 OFFCURVE",
"513 400 OFFCURVE",
"513 271 CURVE SMOOTH",
"513 122 OFFCURVE",
"390 52 OFFCURVE",
"290 52 CURVE SMOOTH"
);
}
);
width = 600;
}
);
unicode = 0030;
},
{
glyphname = one;
lastChange = "2017-04-23 12:25:52 +0000";
layers = (
{
hints = (
{
origin = "{0, 5}";
type = Corner;
name = _corner.STM.btm.1;
},
{
origin = "{0, 6}";
scale = "{-1, 1}";
type = Corner;
name = _corner.STM.btm.1;
}
);
layerId = "4A3087DE-C6CF-4F86-8B90-A264D0797279";
paths = (
{
closed = 1;
nodes = (
"65 383 LINE",
"141 411 OFFCURVE",
"200 434 OFFCURVE",
"269 455 CURVE",
"248 462 LINE",
"248 0 LINE",
"306 0 LINE",
"306 271 LINE SMOOTH",
"306 367 OFFCURVE",
"313 451 OFFCURVE",
"324 520 CURVE",
"301 520 OFFCURVE",
"286 515 OFFCURVE",
"271 507 CURVE SMOOTH",
"205 470 OFFCURVE",
"144 438 OFFCURVE",
"51 404 CURVE"
);
}
);
width = 432;
}
);
unicode = 0031;
},
{
glyphname = two;
lastChange = "2017-05-11 12:39:44 +0000";
layers = (
{
layerId = "4A3087DE-C6CF-4F86-8B90-A264D0797279";
paths = (
{
closed = 1;
nodes = (
"55 391 OFFCURVE",
"73 378 OFFCURVE",
"102 374 CURVE",
"102 446 OFFCURVE",
"129 494 OFFCURVE",
"179 494 CURVE SMOOTH",
"251 494 OFFCURVE",
"288 437 OFFCURVE",
"288 369 CURVE SMOOTH",
"288 327 OFFCURVE",
"275 253 OFFCURVE",
"207 189 CURVE SMOOTH",
"118 106 OFFCURVE",
"96 65 OFFCURVE",
"57 30 CURVE",
"50 0 LINE",
"299 0 LINE SMOOTH",
"347 0 OFFCURVE",
"391 0 OFFCURVE",
"429 -2 CURVE SMOOTH",
"450 -3 OFFCURVE",
"454 13 OFFCURVE",
"454 71 CURVE",
"388 62 OFFCURVE",
"354 60 OFFCURVE",
"299 60 CURVE SMOOTH",
"123 60 LINE",
"121 42 LINE",
"237 172 LINE SMOOTH",
"340 287 OFFCURVE",
"363 338 OFFCURVE",
"363 403 CURVE SMOOTH",
"363 469 OFFCURVE",
"294 524 OFFCURVE",
"216 524 CURVE SMOOTH",
"138 524 OFFCURVE",
"55 475 OFFCURVE",
"55 408 CURVE SMOOTH"
);
}
);
width = 490;
}
);
unicode = 0032;
},
{
glyphname = three;
lastChange = "2017-05-11 12:40:08 +0000";
layers = (
{
layerId = "4A3087DE-C6CF-4F86-8B90-A264D0797279";
paths = (
{
closed = 1;
nodes = (
"59 373 OFFCURVE",
"83 357 OFFCURVE",
"116 353 CURVE",
"104 433 OFFCURVE",
"138 494 OFFCURVE",
"206 494 CURVE SMOOTH",
"269 494 OFFCURVE",
"322 449 OFFCURVE",
"322 373 CURVE SMOOTH",
"322 299 OFFCURVE",
"262 257 OFFCURVE",
"217 254 CURVE SMOOTH",
"174 251 LINE",
"174 227 LINE",
"214 225 LINE SMOOTH",
"286 221 OFFCURVE",
"348 167 OFFCURVE",
"348 91 CURVE SMOOTH",
"348 -44 OFFCURVE",
"155 -157 OFFCURVE",
"2 -149 CURVE",
"2 -177 OFFCURVE",
"7 -191 OFFCURVE",
"37 -191 CURVE SMOOTH",
"80 -191 OFFCURVE",
"163 -161 OFFCURVE",
"240 -114 CURVE SMOOTH",
"348 -48 OFFCURVE",
"424 23 OFFCURVE",
"424 105 CURVE SMOOTH",
"424 194 OFFCURVE",
"332 248 OFFCURVE",
"219 248 CURVE",
"219 230 LINE",
"321 254 OFFCURVE",
"395 309 OFFCURVE",
"395 392 CURVE SMOOTH",
"395 459 OFFCURVE",
"323 524 OFFCURVE",
"229 524 CURVE SMOOTH",
"143 524 OFFCURVE",
"59 459 OFFCURVE",
"59 405 CURVE SMOOTH"
);
}
);
width = 480;
}
);
unicode = 0033;
},
{
glyphname = four;
lastChange = "2017-04-23 12:31:00 +0000";
layers = (
{
hints = (
{
origin = "{0, 25}";
type = Corner;
name = _corner.STM.btm.1;
},
{
origin = "{0, 26}";
scale = "{-1, 1}";
type = Corner;
name = _corner.STM.btm.1;
}
);
layerId = "4A3087DE-C6CF-4F86-8B90-A264D0797279";
paths = (
{
closed = 1;
nodes = (
"337 520 OFFCURVE",
"316 498 OFFCURVE",
"286 455 CURVE SMOOTH",
"198 329 OFFCURVE",
"107 208 OFFCURVE",
"33 110 CURVE",
"42 97 LINE",
"116 97 OFFCURVE",
"167 98 OFFCURVE",
"332 98 CURVE SMOOTH",
"390 98 OFFCURVE",
"496 97 OFFCURVE",
"543 94 CURVE SMOOTH",
"561 93 OFFCURVE",
"569 100 OFFCURVE",
"545 134 CURVE",
"515 131 OFFCURVE",
"424 128 OFFCURVE",
"375 128 CURVE SMOOTH",
"69 128 LINE",
"101 108 LINE",
"126 193 OFFCURVE",
"192 275 OFFCURVE",
"340 468 CURVE",
"329 460 LINE",
"329 -199 LINE",
"387 -199 LINE",
"387 214 LINE SMOOTH",
"387 303 OFFCURVE",
"391 391 OFFCURVE",
"402 520 CURVE",
"373 520 LINE SMOOTH"
);
}
);
width = 590;
}
);
unicode = 0034;
},
{
glyphname = five;
lastChange = "2017-04-23 12:30:36 +0000";
layers = (
{
layerId = "4A3087DE-C6CF-4F86-8B90-A264D0797279";
paths = (
{
closed = 1;
nodes = (
"307 -44 OFFCURVE",
"116 -157 OFFCURVE",
"-37 -149 CURVE",
"-37 -177 OFFCURVE",
"-32 -191 OFFCURVE",
"-2 -191 CURVE SMOOTH",
"41 -191 OFFCURVE",
"124 -161 OFFCURVE",
"201 -114 CURVE SMOOTH",
"309 -48 OFFCURVE",
"373 23 OFFCURVE",
"373 125 CURVE SMOOTH",
"373 204 OFFCURVE",
"329 270 OFFCURVE",
"227 294 CURVE SMOOTH",
"197 301 OFFCURVE",
"145 319 OFFCURVE",
"114 338 CURVE",
"128 275 LINE",
"128 310 OFFCURVE",
"121 339 OFFCURVE",
"127 380 CURVE SMOOTH",
"131 407 OFFCURVE",
"135 426 OFFCURVE",
"142 461 CURVE",
"133 450 LINE",
"373 450 LINE",
"385 510 LINE",
"120 510 LINE",
"105 390 OFFCURVE",
"105 334 OFFCURVE",
"93 280 CURVE",
"130 260 OFFCURVE",
"172 245 OFFCURVE",
"211 232 CURVE SMOOTH",
"271 212 OFFCURVE",
"307 179 OFFCURVE",
"307 91 CURVE SMOOTH"
);
}
);
width = 440;
}
);
unicode = 0035;
},
{
glyphname = six;
lastChange = "2017-04-23 12:27:28 +0000";
layers = (
{
layerId = "4A3087DE-C6CF-4F86-8B90-A264D0797279";
paths = (
{
closed = 1;
nodes = (
"78 71 OFFCURVE",
"174 -16 OFFCURVE",
"285 -16 CURVE SMOOTH",
"384 -16 OFFCURVE",
"492 71 OFFCURVE",
"492 203 CURVE SMOOTH",
"492 308 OFFCURVE",
"404 382 OFFCURVE",
"303 382 CURVE SMOOTH",
"266 382 OFFCURVE",
"226 368 OFFCURVE",
"193 335 CURVE SMOOTH",
"184 326 OFFCURVE",
"182 316 OFFCURVE",
"182 296 CURVE",
"212 324 OFFCURVE",
"245 338 OFFCURVE",
"280 338 CURVE SMOOTH",
"378 338 OFFCURVE",
"427 261 OFFCURVE",
"427 183 CURVE SMOOTH",
"427 72 OFFCURVE",
"368 14 OFFCURVE",
"295 14 CURVE SMOOTH",
"215 14 OFFCURVE",
"141 100 OFFCURVE",
"141 255 CURVE SMOOTH",
"141 510 OFFCURVE",
"285 660 OFFCURVE",
"478 681 CURVE",
"478 714 OFFCURVE",
"477 734 OFFCURVE",
"458 734 CURVE SMOOTH",
"354 734 OFFCURVE",
"78 510 OFFCURVE",
"78 240 CURVE SMOOTH"
);
}
);
width = 580;
}
);
unicode = 0036;
},
{
glyphname = seven;
lastChange = "2017-05-11 12:40:17 +0000";
layers = (
{
layerId = "4A3087DE-C6CF-4F86-8B90-A264D0797279";
paths = (
{
closed = 1;
nodes = (
"51 512 OFFCURVE",
"46 500 OFFCURVE",
"46 448 CURVE",
"107 450 OFFCURVE",
"167 450 OFFCURVE",
"240 450 CURVE SMOOTH",
"300 450 OFFCURVE",
"361 450 OFFCURVE",
"421 448 CURVE",
"405 458 LINE",
"332 297 OFFCURVE",
"283 180 OFFCURVE",
"206 21 CURVE SMOOTH",
"169 -56 OFFCURVE",
"137 -133 OFFCURVE",
"112 -210 CURVE",
"133 -208 OFFCURVE",
"169 -208 OFFCURVE",
"190 -210 CURVE",
"198 -121 OFFCURVE",
"234 -1 OFFCURVE",
"292 133 CURVE SMOOTH",
"363 298 OFFCURVE",
"371 315 OFFCURVE",
"481 512 CURVE",
"411 510 OFFCURVE",
"343 510 OFFCURVE",
"276 510 CURVE SMOOTH",
"197 510 OFFCURVE",
"131 512 OFFCURVE",
"66 512 CURVE SMOOTH"
);
}
);
width = 500;
}
);
unicode = 0037;
},
{
glyphname = eight;
lastChange = "2017-04-23 12:19:31 +0000";
layers = (
{
layerId = "4A3087DE-C6CF-4F86-8B90-A264D0797279";
paths = (
{
closed = 1;
nodes = (
"224 714 OFFCURVE",
"133 640 OFFCURVE",
"133 537 CURVE SMOOTH",
"133 436 OFFCURVE",
"222 387 OFFCURVE",
"272 375 CURVE",
"272 382 LINE",
"171 382 OFFCURVE",
"80 288 OFFCURVE",
"80 175 CURVE SMOOTH",
"80 46 OFFCURVE",
"199 -14 OFFCURVE",
"293 -14 CURVE SMOOTH",
"400 -14 OFFCURVE",
"520 61 OFFCURVE",
"520 185 CURVE SMOOTH",
"520 303 OFFCURVE",
"413 384 OFFCURVE",
"322 395 CURVE",
"321 387 LINE",
"399 387 OFFCURVE",
"472 462 OFFCURVE",
"472 552 CURVE SMOOTH",
"472 658 OFFCURVE",
"382 714 OFFCURVE",
"304 714 CURVE SMOOTH"
);
},
{
closed = 1;
nodes = (
"348 676 OFFCURVE",
"414 614 OFFCURVE",
"414 525 CURVE SMOOTH",
"414 454 OFFCURVE",
"372 421 OFFCURVE",
"318 402 CURVE",
"250 422 OFFCURVE",
"191 465 OFFCURVE",
"191 559 CURVE SMOOTH",
"191 637 OFFCURVE",
"231 676 OFFCURVE",
"282 676 CURVE SMOOTH"
);
},
{
closed = 1;
nodes = (
"347 348 OFFCURVE",
"452 299 OFFCURVE",
"452 177 CURVE SMOOTH",
"452 95 OFFCURVE",
"404 22 OFFCURVE",
"307 22 CURVE SMOOTH",
"220 22 OFFCURVE",
"138 83 OFFCURVE",
"138 194 CURVE SMOOTH",
"138 291 OFFCURVE",
"201 356 OFFCURVE",
"275 368 CURVE"
);
}
);
width = 600;
}
);
unicode = 0038;
},
{
glyphname = nine;
lastChange = "2017-05-11 12:41:58 +0000";
layers = (
{
layerId = "4A3087DE-C6CF-4F86-8B90-A264D0797279";
paths = (
{
closed = 1;
nodes = (
"502 437 OFFCURVE",
"406 524 OFFCURVE",
"295 524 CURVE SMOOTH",
"186 524 OFFCURVE",
"78 437 OFFCURVE",
"78 305 CURVE SMOOTH",
"78 190 OFFCURVE",
"166 116 OFFCURVE",
"277 116 CURVE SMOOTH",
"365 116 OFFCURVE",
"447 179 OFFCURVE",
"447 295 CURVE",
"437 326 LINE",
"429 206 OFFCURVE",
"361 160 OFFCURVE",
"300 160 CURVE SMOOTH",
"192 160 OFFCURVE",
"143 237 OFFCURVE",
"143 325 CURVE SMOOTH",
"143 436 OFFCURVE",
"202 494 OFFCURVE",
"285 494 CURVE SMOOTH",
"365 494 OFFCURVE",
"439 408 OFFCURVE",
"439 253 CURVE SMOOTH",
"439 -2 OFFCURVE",
"235 -151 OFFCURVE",
"42 -172 CURVE",
"42 -205 OFFCURVE",
"43 -225 OFFCURVE",
"62 -225 CURVE SMOOTH",
"166 -225 OFFCURVE",
"502 -2 OFFCURVE",
"502 268 CURVE SMOOTH"
);
}
);
width = 580;
}
);
unicode = 0039;
},
{
glyphname = zero.tf;
lastChange = "2017-05-13 07:09:33 +0000";
layers = (
{
layerId = "4A3087DE-C6CF-4F86-8B90-A264D0797279";
paths = (
{
closed = 1;
nodes = (
"208 664 OFFCURVE",
"91 560 OFFCURVE",
"91 329 CURVE SMOOTH",
"91 81 OFFCURVE",
"183 -14 OFFCURVE",
"293 -14 CURVE SMOOTH",
"408 -14 OFFCURVE",
"509 108 OFFCURVE",
"509 320 CURVE SMOOTH",
"509 500 OFFCURVE",
"442 664 OFFCURVE",
"303 664 CURVE SMOOTH"
);
},
{
closed = 1;
nodes = (
"391 632 OFFCURVE",
"439 474 OFFCURVE",
"439 295 CURVE SMOOTH",
"439 99 OFFCURVE",
"380 18 OFFCURVE",
"306 18 CURVE SMOOTH",
"233 18 OFFCURVE",
"161 94 OFFCURVE",
"161 356 CURVE SMOOTH",
"161 554 OFFCURVE",
"217 632 OFFCURVE",
"293 632 CURVE SMOOTH"
);
}
);
width = 550;
}
);
},
{
glyphname = one.tf;
lastChange = "2017-05-13 07:09:33 +0000";
layers = (
{
hints = (
{
origin = "{0, 5}";
type = Corner;
name = _corner.STM.btm.1;
},
{
origin = "{0, 6}";
scale = "{-1, 1}";
type = Corner;
name = _corner.STM.btm.1;
}
);
layerId = "4A3087DE-C6CF-4F86-8B90-A264D0797279";
paths = (
{
closed = 1;
nodes = (
"145 523 LINE",
"221 551 OFFCURVE",
"280 574 OFFCURVE",
"349 595 CURVE",
"328 602 LINE",
"328 0 LINE",
"386 0 LINE",
"386 411 LINE SMOOTH",
"386 507 OFFCURVE",
"393 591 OFFCURVE",
"404 660 CURVE",
"381 660 OFFCURVE",
"366 655 OFFCURVE",
"351 647 CURVE SMOOTH",
"284 611 OFFCURVE",
"224 578 OFFCURVE",
"131 544 CURVE"
);
}
);
width = 550;
}
);
},
{
glyphname = two.tf;
lastChange = "2017-05-13 07:09:33 +0000";
layers = (
{
layerId = "4A3087DE-C6CF-4F86-8B90-A264D0797279";
paths = (
{
closed = 1;
nodes = (
"85 494 OFFCURVE",
"103 481 OFFCURVE",
"142 477 CURVE",
"142 569 OFFCURVE",
"179 634 OFFCURVE",
"239 634 CURVE SMOOTH",
"311 634 OFFCURVE",
"358 569 OFFCURVE",
"358 489 CURVE SMOOTH",
"358 417 OFFCURVE",
"331 354 OFFCURVE",
"272 267 CURVE SMOOTH",
"194 152 OFFCURVE",
"135 73 OFFCURVE",
"87 30 CURVE",
"80 0 LINE",
"359 0 LINE SMOOTH",
"407 0 OFFCURVE",
"451 0 OFFCURVE",
"489 -2 CURVE SMOOTH",
"510 -3 OFFCURVE",
"514 13 OFFCURVE",
"514 71 CURVE",
"448 62 OFFCURVE",
"414 60 OFFCURVE",
"359 60 CURVE SMOOTH",
"153 60 LINE",
"151 42 LINE",
"302 251 LINE SMOOTH",
"399 386 OFFCURVE",
"433 433 OFFCURVE",
"433 508 CURVE SMOOTH",
"433 603 OFFCURVE",
"354 664 OFFCURVE",
"266 664 CURVE SMOOTH",
"188 664 OFFCURVE",
"85 598 OFFCURVE",
"85 511 CURVE SMOOTH"
);
}
);
width = 550;
}
);
},
{
glyphname = three.tf;
lastChange = "2017-05-13 07:09:33 +0000";
layers = (
{
layerId = "4A3087DE-C6CF-4F86-8B90-A264D0797279";
paths = (
{
closed = 1;
nodes = (
"129 513 OFFCURVE",
"153 497 OFFCURVE",
"186 493 CURVE",
"174 573 OFFCURVE",
"208 634 OFFCURVE",
"276 634 CURVE SMOOTH",
"339 634 OFFCURVE",
"392 589 OFFCURVE",
"392 513 CURVE SMOOTH",
"392 439 OFFCURVE",
"333 400 OFFCURVE",
"287 386 CURVE SMOOTH",
"232 369 LINE",
"241 348 OFFCURVE",
"245 346 OFFCURVE",
"252 348 CURVE SMOOTH",
"284 355 LINE SMOOTH",
"356 371 OFFCURVE",
"418 322 OFFCURVE",
"418 221 CURVE SMOOTH",
"418 72 OFFCURVE",
"256 -9 OFFCURVE",
"64 -9 CURVE",
"69 -37 OFFCURVE",
"74 -51 OFFCURVE",
"99 -51 CURVE SMOOTH",
"142 -51 OFFCURVE",
"226 -29 OFFCURVE",
"305 14 CURVE SMOOTH",
"413 73 OFFCURVE",
"494 148 OFFCURVE",
"494 237 CURVE SMOOTH",
"494 334 OFFCURVE",
"412 384 OFFCURVE",
"319 384 CURVE",
"289 362 LINE",
"391 386 OFFCURVE",
"465 449 OFFCURVE",
"465 532 CURVE SMOOTH",
"465 605 OFFCURVE",
"393 664 OFFCURVE",
"299 664 CURVE SMOOTH",
"213 664 OFFCURVE",
"129 599 OFFCURVE",
"129 545 CURVE SMOOTH"
);
}
);
width = 550;
}
);
},
{
glyphname = four.tf;
lastChange = "2017-05-13 07:09:33 +0000";
layers = (
{
hints = (
{
origin = "{0, 25}";
type = Corner;
name = _corner.STM.btm.1;
},
{
origin = "{0, 26}";
scale = "{-1, 1}";
type = Corner;
name = _corner.STM.btm.1;
}
);
layerId = "4A3087DE-C6CF-4F86-8B90-A264D0797279";
paths = (
{
closed = 1;
nodes = (
"339 660 OFFCURVE",
"318 638 OFFCURVE",
"288 595 CURVE SMOOTH",
"200 469 OFFCURVE",
"109 348 OFFCURVE",
"35 250 CURVE",
"44 237 LINE",
"118 237 OFFCURVE",
"169 238 OFFCURVE",
"334 238 CURVE SMOOTH",
"392 238 OFFCURVE",
"498 237 OFFCURVE",
"545 234 CURVE SMOOTH",
"563 233 OFFCURVE",
"571 240 OFFCURVE",
"547 274 CURVE",
"517 271 OFFCURVE",
"426 268 OFFCURVE",
"377 268 CURVE SMOOTH",
"71 268 LINE",
"103 248 LINE",
"128 333 OFFCURVE",
"194 415 OFFCURVE",
"342 608 CURVE",
"331 600 LINE",
"331 0 LINE",
"389 0 LINE",
"389 354 LINE SMOOTH",
"389 443 OFFCURVE",
"393 531 OFFCURVE",
"404 660 CURVE",
"375 660 LINE SMOOTH"
);
}
);
width = 550;
}
);
},
{
glyphname = five.tf;
lastChange = "2017-05-13 07:09:33 +0000";
layers = (
{
layerId = "4A3087DE-C6CF-4F86-8B90-A264D0797279";
paths = (
{
closed = 1;
nodes = (
"478 650 LINE",
"203 650 LINE",
"200 603 OFFCURVE",
"195 553 OFFCURVE",
"192 535 CURVE SMOOTH",
"185 492 OFFCURVE",
"183 470 OFFCURVE",
"183 459 CURVE SMOOTH",
"183 422 OFFCURVE",
"199 413 OFFCURVE",
"249 391 CURVE SMOOTH",
"361 342 OFFCURVE",
"406 293 OFFCURVE",
"406 224 CURVE SMOOTH",
"406 96 OFFCURVE",
"219 -17 OFFCURVE",
"66 -9 CURVE",
"66 -37 OFFCURVE",
"71 -51 OFFCURVE",
"101 -51 CURVE SMOOTH",
"144 -51 OFFCURVE",
"227 -21 OFFCURVE",
"304 26 CURVE SMOOTH",
"412 92 OFFCURVE",
"476 163 OFFCURVE",
"476 255 CURVE SMOOTH",
"476 344 OFFCURVE",
"412 385 OFFCURVE",
"300 443 CURVE SMOOTH",
"230 479 OFFCURVE",
"216 491 OFFCURVE",
"216 512 CURVE SMOOTH",
"216 524 OFFCURVE",
"219 560 OFFCURVE",
"224 590 CURVE",
"466 590 LINE"
);
}
);
width = 550;
}
);
},
{
glyphname = six.tf;
lastChange = "2017-05-13 07:09:33 +0000";
layers = (
{
layerId = "4A3087DE-C6CF-4F86-8B90-A264D0797279";
paths = (
{
closed = 1;
nodes = (
"85 61 OFFCURVE",
"184 -16 OFFCURVE",
"285 -16 CURVE SMOOTH",
"394 -16 OFFCURVE",
"505 71 OFFCURVE",
"505 203 CURVE SMOOTH",
"505 308 OFFCURVE",
"424 382 OFFCURVE",
"313 382 CURVE SMOOTH",
"287 382 OFFCURVE",
"238 362 OFFCURVE",
"197 335 CURVE SMOOTH",
"191 331 OFFCURVE",
"188 323 OFFCURVE",
"191 301 CURVE",
"195 299 LINE",
"225 325 OFFCURVE",
"258 338 OFFCURVE",
"290 338 CURVE SMOOTH",
"388 338 OFFCURVE",
"435 261 OFFCURVE",
"435 183 CURVE SMOOTH",
"435 80 OFFCURVE",
"378 16 OFFCURVE",
"305 16 CURVE SMOOTH",
"225 16 OFFCURVE",
"155 100 OFFCURVE",
"155 255 CURVE SMOOTH",
"155 507 OFFCURVE",
"305 609 OFFCURVE",
"482 611 CURVE",
"486 615 LINE",
"468 664 LINE",
"311 664 OFFCURVE",
"85 469 OFFCURVE",
"85 240 CURVE SMOOTH"
);
}
);
width = 550;
}
);
},
{
glyphname = seven.tf;
lastChange = "2017-05-13 07:09:33 +0000";
layers = (
{
layerId = "4A3087DE-C6CF-4F86-8B90-A264D0797279";
paths = (
{
closed = 1;
nodes = (
"101 652 OFFCURVE",
"96 640 OFFCURVE",
"96 588 CURVE",
"157 590 OFFCURVE",
"217 590 OFFCURVE",
"290 590 CURVE SMOOTH",
"350 590 OFFCURVE",
"411 590 OFFCURVE",
"471 588 CURVE",
"455 598 LINE",
"390 462 OFFCURVE",
"353 390 OFFCURVE",
"271 231 CURVE SMOOTH",
"231 154 OFFCURVE",
"199 77 OFFCURVE",
"174 0 CURVE",
"195 2 OFFCURVE",
"231 2 OFFCURVE",
"252 0 CURVE",
"260 89 OFFCURVE",
"298 203 OFFCURVE",
"362 336 CURVE SMOOTH",
"433 483 OFFCURVE",
"453 524 OFFCURVE",
"531 652 CURVE",
"461 650 OFFCURVE",
"393 650 OFFCURVE",
"326 650 CURVE SMOOTH",
"247 650 OFFCURVE",
"181 652 OFFCURVE",
"116 652 CURVE SMOOTH"
);
}
);
width = 550;
}
);
},
{
glyphname = eight.tf;
lastChange = "2017-05-13 07:09:33 +0000";
layers = (
{
layerId = "4A3087DE-C6CF-4F86-8B90-A264D0797279";
paths = (
{
closed = 1;
nodes = (
"238 664 OFFCURVE",
"140 600 OFFCURVE",
"140 497 CURVE SMOOTH",
"140 408 OFFCURVE",
"215 355 OFFCURVE",
"272 335 CURVE",
"272 349 LINE",
"171 328 OFFCURVE",
"80 252 OFFCURVE",
"80 155 CURVE SMOOTH",
"80 46 OFFCURVE",
"175 -14 OFFCURVE",
"283 -14 CURVE SMOOTH",
"400 -14 OFFCURVE",
"520 61 OFFCURVE",
"520 185 CURVE SMOOTH",
"520 275 OFFCURVE",
"436 334 OFFCURVE",
"327 369 CURVE",
"314 345 LINE",
"395 357 OFFCURVE",
"479 435 OFFCURVE",
"479 512 CURVE SMOOTH",
"479 618 OFFCURVE",
"396 664 OFFCURVE",
"318 664 CURVE SMOOTH"
);
},
{
closed = 1;
nodes = (
"365 632 OFFCURVE",
"421 569 OFFCURVE",
"421 495 CURVE SMOOTH",
"421 430 OFFCURVE",
"377 389 OFFCURVE",
"307 365 CURVE",
"351 360 LINE",
"239 402 OFFCURVE",
"198 451 OFFCURVE",
"198 528 CURVE SMOOTH",
"198 587 OFFCURVE",
"233 632 OFFCURVE",
"289 632 CURVE SMOOTH"
);
},
{
closed = 1;
nodes = (
"332 316 OFFCURVE",
"452 256 OFFCURVE",
"452 147 CURVE SMOOTH",
"452 85 OFFCURVE",
"404 22 OFFCURVE",
"307 22 CURVE SMOOTH",
"210 22 OFFCURVE",
"138 83 OFFCURVE",
"138 174 CURVE SMOOTH",
"138 256 OFFCURVE",
"215 319 OFFCURVE",
"301 332 CURVE",
"264 329 LINE"
);
}
);
width = 550;
}
);
},
{
glyphname = nine.tf;
lastChange = "2017-05-13 07:09:33 +0000";
layers = (
{
layerId = "4A3087DE-C6CF-4F86-8B90-A264D0797279";
paths = (
{
closed = 1;
nodes = (
"505 587 OFFCURVE",
"406 664 OFFCURVE",
"305 664 CURVE SMOOTH",
"196 664 OFFCURVE",
"85 577 OFFCURVE",
"85 445 CURVE SMOOTH",
"85 340 OFFCURVE",
"166 266 OFFCURVE",
"277 266 CURVE SMOOTH",
"303 266 OFFCURVE",
"352 286 OFFCURVE",
"393 313 CURVE SMOOTH",
"399 317 OFFCURVE",
"402 325 OFFCURVE",
"399 347 CURVE",
"395 349 LINE",
"365 323 OFFCURVE",
"332 310 OFFCURVE",
"300 310 CURVE SMOOTH",
"202 310 OFFCURVE",
"155 387 OFFCURVE",
"155 465 CURVE SMOOTH",
"155 568 OFFCURVE",
"212 632 OFFCURVE",
"285 632 CURVE SMOOTH",
"365 632 OFFCURVE",
"435 548 OFFCURVE",
"435 393 CURVE SMOOTH",
"435 141 OFFCURVE",
"285 39 OFFCURVE",
"108 37 CURVE",
"104 33 LINE",
"122 -16 LINE",
"279 -16 OFFCURVE",
"505 179 OFFCURVE",
"505 408 CURVE SMOOTH"
);
}
);
width = 550;
}
);
},
{
glyphname = asterisk;
lastChange = "2017-04-12 21:52:44 +0000";
layers = (
{
layerId = "4A3087DE-C6CF-4F86-8B90-A264D0797279";
paths = (
{
closed = 1;
nodes = (
"157 441 OFFCURVE",
"156 495 OFFCURVE",
"154 527 CURVE",
"151 529 LINE",
"119 513 OFFCURVE",
"81 492 OFFCURVE",
"48 473 CURVE",
"37 493 LINE",
"73 513 OFFCURVE",
"108 533 OFFCURVE",
"138 553 CURVE",
"138 559 LINE",
"108 579 OFFCURVE",
"73 599 OFFCURVE",
"37 619 CURVE",
"48 639 LINE",
"81 620 OFFCURVE",
"119 599 OFFCURVE",
"151 583 CURVE",
"154 585 LINE",
"156 617 OFFCURVE",
"157 671 OFFCURVE",
"157 702 CURVE",
"181 702 LINE",
"181 671 OFFCURVE",
"182 617 OFFCURVE",
"184 585 CURVE",
"187 583 LINE",
"218 599 OFFCURVE",
"257 620 OFFCURVE",
"290 639 CURVE",
"301 619 LINE",
"265 599 OFFCURVE",
"230 579 OFFCURVE",
"200 559 CURVE",
"200 553 LINE",
"230 533 OFFCURVE",
"265 513 OFFCURVE",
"301 493 CURVE",
"290 473 LINE",
"257 492 OFFCURVE",
"218 513 OFFCURVE",
"187 529 CURVE",
"184 527 LINE",
"182 495 OFFCURVE",
"181 441 OFFCURVE",
"181 410 CURVE",
"157 410 LINE"
);
}
);
width = 600;
}
);
unicode = 002A;
},
{
glyphname = bullet;
lastChange = "2017-05-10 22:09:11 +0000";
layers = (
{
layerId = "4A3087DE-C6CF-4F86-8B90-A264D0797279";
paths = (
{
closed = 1;
nodes = (
"314 222 OFFCURVE",
"365 273 OFFCURVE",
"365 337 CURVE SMOOTH",
"365 401 OFFCURVE",
"314 452 OFFCURVE",
"250 452 CURVE SMOOTH",
"186 452 OFFCURVE",
"135 401 OFFCURVE",
"135 337 CURVE SMOOTH",
"135 273 OFFCURVE",
"186 222 OFFCURVE",
"250 222 CURVE SMOOTH"
);
}
);
width = 500;
}
);
unicode = 2022;
},
{
glyphname = comma;
lastChange = "2017-05-10 22:11:23 +0000";
layers = (
{
layerId = "4A3087DE-C6CF-4F86-8B90-A264D0797279";
paths = (
{
closed = 1;
nodes = (
"79 -12 OFFCURVE",
"48 -90 OFFCURVE",
"-2 -148 CURVE",
"20 -157 LINE",
"48 -130 OFFCURVE",
"79 -93 OFFCURVE",
"99 -64 CURVE SMOOTH",
"139 -6 OFFCURVE",
"155 36 OFFCURVE",
"159 74 CURVE",
"88 54 LINE"
);
}
);
width = 240;
}
);
unicode = 002C;
},
{
glyphname = exclam;
lastChange = "2017-05-10 22:12:23 +0000";
layers = (
{
components = (
{
name = period;
transform = "{1, 0, 0, 1, 3, 0}";
}
);
layerId = "4A3087DE-C6CF-4F86-8B90-A264D0797279";
paths = (
{
closed = 1;
nodes = (
"123 664 LINE",
"153 664 OFFCURVE",
"160 656 OFFCURVE",
"160 598 CURVE SMOOTH",
"160 538 OFFCURVE",
"135 359 OFFCURVE",
"135 178 CURVE",
"123 178 LINE"
);
},
{
closed = 1;
nodes = (
"111 178 LINE",
"111 359 OFFCURVE",
"86 538 OFFCURVE",
"86 598 CURVE SMOOTH",
"86 656 OFFCURVE",
"93 664 OFFCURVE",
"123 664 CURVE",
"123 178 LINE"
);
}
);
width = 245;
}
);
unicode = 0021;
},
{
glyphname = numbersign;
lastChange = "2017-04-12 21:59:50 +0000";
layers = (
{
hints = (
{
origin = "{2, 3}";
target = "{2, 0}";
type = Cap;
name = _cap.hyphen;
},
{
origin = "{2, 1}";
target = "{2, 2}";
type = Cap;
name = _cap.hyphen;
},
{
origin = "{3, 3}";
target = "{3, 0}";
type = Cap;
name = _cap.hyphen;
},
{
origin = "{3, 1}";
target = "{3, 2}";
type = Cap;
name = _cap.hyphen;
}
);
layerId = "4A3087DE-C6CF-4F86-8B90-A264D0797279";
paths = (
{
closed = 1;
nodes = (
"272 562 OFFCURVE",
"299 638 OFFCURVE",
"327 715 CURVE",
"283 715 LINE",
"261 636 OFFCURVE",
"241 577 OFFCURVE",
"215 497 CURVE SMOOTH",
"73 66 LINE SMOOTH",
"48 -10 OFFCURVE",
"21 -87 OFFCURVE",
"-7 -164 CURVE",
"37 -164 LINE",
"59 -85 OFFCURVE",
"79 -26 OFFCURVE",
"105 54 CURVE SMOOTH",
"247 485 LINE SMOOTH"
);
},
{
closed = 1;
nodes = (
"432 562 OFFCURVE",
"459 638 OFFCURVE",
"487 715 CURVE",
"443 715 LINE",
"421 636 OFFCURVE",
"401 577 OFFCURVE",
"375 497 CURVE SMOOTH",
"233 66 LINE SMOOTH",
"208 -10 OFFCURVE",
"181 -87 OFFCURVE",
"153 -164 CURVE",
"197 -164 LINE",
"219 -85 OFFCURVE",
"239 -26 OFFCURVE",
"265 54 CURVE SMOOTH",
"407 485 LINE SMOOTH"
);
},
{
closed = 1;
nodes = (
"70 269 LINE",
"430 269 LINE",
"430 289 LINE",
"70 289 LINE"
);
},
{
closed = 1;
nodes = (
"70 169 LINE",
"430 169 LINE",
"430 189 LINE",
"70 189 LINE"
);
}
);
width = 600;
}
);
unicode = 0023;
},
{
glyphname = period;
lastChange = "2017-05-10 22:10:56 +0000";
layers = (
{
layerId = "4A3087DE-C6CF-4F86-8B90-A264D0797279";
paths = (
{
closed = 1;
nodes = (
"144 -14 OFFCURVE",
"163 5 OFFCURVE",
"163 29 CURVE SMOOTH",
"163 53 OFFCURVE",
"144 72 OFFCURVE",
"120 72 CURVE SMOOTH",
"96 72 OFFCURVE",
"77 53 OFFCURVE",
"77 29 CURVE SMOOTH",
"77 5 OFFCURVE",
"96 -14 OFFCURVE",
"120 -14 CURVE SMOOTH"
);
}
);
width = 240;
}
);
unicode = 002E;
},
{
glyphname = question;
lastChange = "2017-05-10 22:12:31 +0000";
layers = (
{
components = (
{
name = period;
transform = "{1, 0, 0, 1, 16, 0}";
}
);
layerId = "4A3087DE-C6CF-4F86-8B90-A264D0797279";
paths = (
{
closed = 1;
nodes = (
"118 177 LINE",
"94 219 OFFCURVE",
"80 252 OFFCURVE",
"80 281 CURVE SMOOTH",
"80 322 OFFCURVE",
"104 344 OFFCURVE",
"164 376 CURVE SMOOTH",
"220 406 OFFCURVE",
"255 438 OFFCURVE",
"255 488 CURVE SMOOTH",
"255 565 OFFCURVE",
"146 600 OFFCURVE",
"61 600 CURVE",
"61 652 OFFCURVE",
"87 664 OFFCURVE",
"109 664 CURVE SMOOTH",
"200 664 OFFCURVE",
"284 569 OFFCURVE",
"284 478 CURVE SMOOTH",
"284 396 OFFCURVE",
"251 364 OFFCURVE",
"182 325 CURVE SMOOTH",
"134 298 OFFCURVE",
"120 284 OFFCURVE",
"120 249 CURVE SMOOTH",
"120 228 OFFCURVE",
"125 209 OFFCURVE",
"135 185 CURVE"
);
}
);
width = 370;
}
);
unicode = 003F;
},
{
glyphname = quotesingle;
lastChange = "2017-05-10 12:20:23 +0000";
layers = (
{
layerId = "4A3087DE-C6CF-4F86-8B90-A264D0797279";
paths = (
{
closed = 1;
nodes = (
"53 695 OFFCURVE",
"41 696 CURVE",
"49 618 OFFCURVE",
"54 541 OFFCURVE",
"56 470 CURVE",
"86 470 LINE",
"88 541 OFFCURVE",
"93 618 OFFCURVE",
"101 696 CURVE",
"89 695 OFFCURVE"
);
}
);
width = 159;
}
);
unicode = 0027;
},
{
glyphname = slash;
lastChange = "2017-04-11 21:43:43 +0000";
layers = (
{
layerId = "4A3087DE-C6CF-4F86-8B90-A264D0797279";
paths = (
{
closed = 1;
nodes = (
"272 562 OFFCURVE",
"299 638 OFFCURVE",
"327 715 CURVE",
"283 715 LINE",
"261 636 OFFCURVE",
"241 577 OFFCURVE",
"215 497 CURVE SMOOTH",
"73 66 LINE SMOOTH",
"48 -10 OFFCURVE",
"21 -87 OFFCURVE",
"-7 -164 CURVE",
"37 -164 LINE",
"59 -85 OFFCURVE",
"79 -26 OFFCURVE",
"105 54 CURVE SMOOTH",
"247 485 LINE SMOOTH"
);
}
);
width = 320;
}
);
unicode = 002F;
},
{
glyphname = underscore;
lastChange = "2017-04-12 21:51:44 +0000";
layers = (
{
layerId = "4A3087DE-C6CF-4F86-8B90-A264D0797279";
paths = (
{
closed = 1;
nodes = (
"30 -41 LINE",
"280 -41 LINE",
"280 -21 LINE",
"30 -21 LINE"
);
}
);
width = 310;
}
);
unicode = 005F;
},
{
glyphname = braceright;
lastChange = "2017-04-12 11:36:54 +0000";
layers = (
{
layerId = "4A3087DE-C6CF-4F86-8B90-A264D0797279";
paths = (
{
closed = 1;
nodes = (
"241 297 LINE",
"193 297 OFFCURVE",
"174 273 OFFCURVE",
"174 205 CURVE SMOOTH",
"174 180 OFFCURVE",
"177 150 OFFCURVE",
"181 114 CURVE SMOOTH",
"189 42 OFFCURVE",
"191 9 OFFCURVE",
"191 -17 CURVE SMOOTH",
"191 -91 OFFCURVE",
"139 -104 OFFCURVE",
"105 -104 CURVE SMOOTH",
"88 -104 OFFCURVE",
"71 -102 OFFCURVE",
"54 -98 CURVE",
"54 -116 LINE",
"71 -120 OFFCURVE",
"88 -122 OFFCURVE",
"105 -122 CURVE SMOOTH",
"200 -122 OFFCURVE",
"237 -75 OFFCURVE",
"227 10 CURVE SMOOTH",
"214 121 OFFCURVE",
"210 180 OFFCURVE",
"210 208 CURVE SMOOTH",
"210 267 OFFCURVE",
"230 283 OFFCURVE",
"271 287 CURVE",
"271 307 LINE",
"230 311 OFFCURVE",
"207 330 OFFCURVE",
"207 389 CURVE SMOOTH",
"207 421 OFFCURVE",
"208 452 OFFCURVE",
"227 584 CURVE SMOOTH",
"239 669 OFFCURVE",
"200 716 OFFCURVE",
"105 716 CURVE SMOOTH",
"84 716 OFFCURVE",
"73 715 OFFCURVE",
"54 712 CURVE",
"54 694 LINE",
"73 697 OFFCURVE",
"84 698 OFFCURVE",
"105 698 CURVE SMOOTH",
"139 698 OFFCURVE",
"193 675 OFFCURVE",
"193 611 CURVE SMOOTH",
"193 585 OFFCURVE",
"188 529 OFFCURVE",
"181 480 CURVE SMOOTH",
"175 442 OFFCURVE",
"172 412 OFFCURVE",
"172 388 CURVE SMOOTH",
"172 322 OFFCURVE",
"194 300 OFFCURVE",
"242 295 CURVE"
);
}
);
width = 420;
}
);
unicode = 007D;
},
{
glyphname = bracketright;
lastChange = "2017-04-12 11:38:08 +0000";
layers = (
{
layerId = "4A3087DE-C6CF-4F86-8B90-A264D0797279";
paths = (
{
closed = 1;
nodes = (
"219 297 LINE",
"219 514 LINE SMOOTH",
"219 586 OFFCURVE",
"219 647 OFFCURVE",
"221 704 CURVE",
"159 702 OFFCURVE",
"118 702 OFFCURVE",
"54 702 CURVE",
"54 684 LINE",
"83 684 OFFCURVE",
"107 684 OFFCURVE",
"132 682 CURVE SMOOTH",
"160 680 OFFCURVE",
"181 663 OFFCURVE",
"183 594 CURVE SMOOTH",
"185 536 OFFCURVE",
"185 454 OFFCURVE",
"185 297 CURVE"
);
},
{
closed = 1;
nodes = (
"185 140 OFFCURVE",
"185 58 OFFCURVE",
"183 0 CURVE SMOOTH",
"181 -69 OFFCURVE",
"160 -86 OFFCURVE",
"132 -88 CURVE SMOOTH",
"107 -90 OFFCURVE",
"83 -90 OFFCURVE",
"54 -90 CURVE",
"54 -108 LINE",
"118 -108 OFFCURVE",
"159 -108 OFFCURVE",
"221 -110 CURVE",
"219 -53 OFFCURVE",
"219 8 OFFCURVE",
"219 80 CURVE SMOOTH",
"219 297 LINE",
"185 297 LINE"
);
}
);
width = 321;
}
);
unicode = 005D;
},
{
glyphname = parenright;
lastChange = "2017-04-12 11:39:37 +0000";
layers = (
{
layerId = "4A3087DE-C6CF-4F86-8B90-A264D0797279";
paths = (
{
closed = 1;
nodes = (
"216 14 OFFCURVE",
"151 -84 OFFCURVE",
"40 -94 CURVE",
"40 -114 LINE",
"187 -114 OFFCURVE",
"264 64 OFFCURVE",
"264 297 CURVE",
"216 297 LINE"
);
},
{
closed = 1;
nodes = (
"264 297 LINE",
"264 530 OFFCURVE",
"187 708 OFFCURVE",
"40 708 CURVE",
"40 688 LINE",
"151 678 OFFCURVE",
"216 580 OFFCURVE",
"216 297 CURVE"
);
}
);
width = 344;
}
);
unicode = 0029;
},
{
glyphname = emdash;
lastChange = "2017-04-12 21:50:46 +0000";
layers = (
{
layerId = "4A3087DE-C6CF-4F86-8B90-A264D0797279";
paths = (
{
closed = 1;
nodes = (
"930 269 LINE",
"70 269 LINE",
"70 289 LINE",
"930 289 LINE"
);
}
);
width = 1000;
}
);
unicode = 2014;
},
{
glyphname = endash;
lastChange = "2017-04-12 21:50:58 +0000";
layers = (
{
layerId = "4A3087DE-C6CF-4F86-8B90-A264D0797279";
paths = (
{
closed = 1;
nodes = (
"70 269 LINE",
"430 269 LINE",
"430 289 LINE",
"70 289 LINE"
);
}
);
width = 500;
}
);
unicode = 2013;
},
{
glyphname = hyphen;
lastChange = "2017-05-02 03:05:59 +0000";
layers = (
{
hints = (
{
origin = "{0, 3}";
target = "{0, 0}";
type = Cap;
name = _cap.hyphen;
},
{
origin = "{0, 1}";
target = "{0, 2}";
type = Cap;
name = _cap.hyphen;
}
);
layerId = "4A3087DE-C6CF-4F86-8B90-A264D0797279";
paths = (
{
closed = 1;
nodes = (
"70 274 LINE",
"266 274 LINE",
"266 304 LINE",
"70 304 LINE"
);
}
);
width = 336;
}
);
unicode = 002D;
},
{
glyphname = guilsinglright;
lastChange = "2017-04-15 03:27:14 +0000";
layers = (
{
layerId = "4A3087DE-C6CF-4F86-8B90-A264D0797279";
paths = (
{
closed = 1;
nodes = (
"52 461 LINE",
"121 392 OFFCURVE",
"196 312 OFFCURVE",
"262 237 CURVE",
"324 237 LINE",
"324 246 LINE",
"237 319 OFFCURVE",
"150 395 OFFCURVE",
"65 473 CURVE"
);
},
{
closed = 1;
nodes = (
"150 79 OFFCURVE",
"237 155 OFFCURVE",
"324 228 CURVE",
"324 237 LINE",
"262 237 LINE",
"196 162 OFFCURVE",
"121 82 OFFCURVE",
"52 13 CURVE",
"65 1 LINE"
);
}
);
width = 424;
}
);
unicode = 203A;
},
{
glyphname = quoteright;
lastChange = "2017-05-09 22:16:23 +0000";
layers = (
{
layerId = "4A3087DE-C6CF-4F86-8B90-A264D0797279";
paths = (
{
closed = 1;
nodes = (
"119 614 OFFCURVE",
"88 536 OFFCURVE",
"38 478 CURVE",
"60 469 LINE",
"88 496 OFFCURVE",
"119 533 OFFCURVE",
"139 562 CURVE SMOOTH",
"179 620 OFFCURVE",
"195 662 OFFCURVE",
"199 700 CURVE",
"128 680 LINE"
);
}
);
width = 249;
}
);
unicode = 2019;
},
{
glyphname = cent;
lastChange = "2017-04-24 11:14:21 +0000";
layers = (
{
layerId = "4A3087DE-C6CF-4F86-8B90-A264D0797279";
paths = (
{
closed = 1;
nodes = (
"316 428 OFFCURVE",
"347 402 OFFCURVE",
"375 347 CURVE",
"386 349 LINE",
"399 359 OFFCURVE",
"406 376 OFFCURVE",
"406 399 CURVE SMOOTH",
"406 430 OFFCURVE",
"346 464 OFFCURVE",
"273 464 CURVE SMOOTH",
"159 464 OFFCURVE",
"60 366 OFFCURVE",
"60 227 CURVE SMOOTH",
"60 84 OFFCURVE",
"155 16 OFFCURVE",
"247 16 CURVE SMOOTH",
"303 16 OFFCURVE",
"342 28 OFFCURVE",
"383 56 CURVE SMOOTH",
"399 67 OFFCURVE",
"402 73 OFFCURVE",
"404 109 CURVE",
"397 112 LINE",
"359 73 OFFCURVE",
"320 57 OFFCURVE",
"268 57 CURVE SMOOTH",
"207 57 OFFCURVE",
"117 97 OFFCURVE",
"117 256 CURVE SMOOTH",
"117 384 OFFCURVE",
"188 428 OFFCURVE",
"247 428 CURVE SMOOTH"
);
},
{
closed = 1;
nodes = (
"276 453 LINE",
"276 583 LINE",
"252 583 LINE",
"252 453 LINE"
);
},
{
closed = 1;
nodes = (
"272 -88 LINE",
"272 42 LINE",
"248 42 LINE",
"248 -88 LINE"
);
}
);
width = 436;
}
);
unicode = 00A2;
},
{
glyphname = currency;
lastChange = "2017-04-16 22:19:14 +0000";
layers = (
{
layerId = "4A3087DE-C6CF-4F86-8B90-A264D0797279";
paths = (
{
closed = 1;
nodes = (
"385 121 OFFCURVE",
"465 201 OFFCURVE",
"465 301 CURVE SMOOTH",
"465 401 OFFCURVE",
"385 481 OFFCURVE",
"285 481 CURVE SMOOTH",
"185 481 OFFCURVE",
"105 401 OFFCURVE",
"105 301 CURVE SMOOTH",
"105 201 OFFCURVE",
"185 121 OFFCURVE",
"285 121 CURVE SMOOTH"
);
},
{
closed = 1;
nodes = (
"196 171 LINE",
"155 212 LINE",
"79 137 LINE",
"120 96 LINE"
);
},
{
closed = 1;
nodes = (
"196 432 LINE",
"120 508 LINE",
"79 467 LINE",
"155 391 LINE"
);
},
{
closed = 1;
nodes = (
"218 179 OFFCURVE",
"167 230 OFFCURVE",
"167 301 CURVE SMOOTH",
"167 372 OFFCURVE",
"218 423 OFFCURVE",
"285 423 CURVE SMOOTH",
"352 423 OFFCURVE",
"403 372 OFFCURVE",
"403 301 CURVE",
"403 230 OFFCURVE",
"352 179 OFFCURVE",
"285 179 CURVE SMOOTH"
);
},
{
closed = 1;
nodes = (
"492 136 LINE",
"416 212 LINE",
"375 171 LINE",
"451 95 LINE"
);
},
{
closed = 1;
nodes = (
"492 467 LINE",
"451 508 LINE",
"375 432 LINE",
"416 391 LINE"
);
}
);
width = 600;
}
);
unicode = 00A4;
},
{
glyphname = dollar;
lastChange = "2017-04-24 11:14:31 +0000";
layers = (
{
layerId = "4A3087DE-C6CF-4F86-8B90-A264D0797279";
paths = (
{
closed = 1;
nodes = (
"204 -68 LINE",
"204 42 LINE",
"180 42 LINE",
"180 -68 LINE"
);
},
{
closed = 1;
nodes = (
"204 463 LINE",
"204 593 LINE",
"180 593 LINE",
"180 463 LINE"
);
},
{
closed = 1;
nodes = (
"143 52 OFFCURVE",
"105 68 OFFCURVE",
"67 129 CURVE",
"57 126 LINE",
"58 44 OFFCURVE",
"92 16 OFFCURVE",
"144 16 CURVE SMOOTH",
"243 16 OFFCURVE",
"325 80 OFFCURVE",
"325 163 CURVE SMOOTH",
"325 213 OFFCURVE",
"292 243 OFFCURVE",
"209 310 CURVE SMOOTH",
"159 350 OFFCURVE",
"139 368 OFFCURVE",
"139 395 CURVE SMOOTH",
"139 423 OFFCURVE",
"161 452 OFFCURVE",
"201 452 CURVE SMOOTH",
"225 452 OFFCURVE",
"265 442 OFFCURVE",
"301 404 CURVE",
"311 410 LINE",
"309 474 OFFCURVE",
"271 494 OFFCURVE",
"234 494 CURVE SMOOTH",
"167 494 OFFCURVE",
"96 436 OFFCURVE",
"96 367 CURVE SMOOTH",
"96 323 OFFCURVE",
"120 291 OFFCURVE",
"179 245 CURVE SMOOTH",
"243 195 OFFCURVE",
"272 166 OFFCURVE",
"272 124 CURVE SMOOTH",
"272 83 OFFCURVE",
"231 52 OFFCURVE",
"183 52 CURVE SMOOTH"
);
}
);
width = 380;
}
);
unicode = 0024;
},
{
glyphname = euro;
lastChange = "2017-04-23 21:29:14 +0000";
layers = (
{
layerId = "4A3087DE-C6CF-4F86-8B90-A264D0797279";
paths = (
{
closed = 1;
nodes = (
"358 -15 OFFCURVE",
"410 -5 OFFCURVE",
"441 25 CURVE",
"446 55 LINE",
"420 31 OFFCURVE",
"365 17 OFFCURVE",
"313 17 CURVE SMOOTH",
"219 17 OFFCURVE",
"158 104 OFFCURVE",
"158 240 CURVE SMOOTH",
"158 400 OFFCURVE",
"213 492 OFFCURVE",
"305 492 CURVE SMOOTH",
"347 492 OFFCURVE",
"389 481 OFFCURVE",
"424 462 CURVE",
"450 480 LINE",
"416 507 OFFCURVE",
"373 524 OFFCURVE",
"308 524 CURVE SMOOTH",
"181 524 OFFCURVE",
"90 435 OFFCURVE",
"90 228 CURVE SMOOTH",
"90 83 OFFCURVE",
"151 -15 OFFCURVE",
"302 -15 CURVE SMOOTH"
);
},
{
closed = 1;
nodes = (
"380 186 LINE",
"389 216 LINE",
"31 216 LINE",
"21 186 LINE"
);
},
{
closed = 1;
nodes = (
"399 265 LINE",
"410 295 LINE",
"49 295 LINE",
"39 265 LINE"
);
}
);
width = 540;
}
);
unicode = 20AC;
},
{
glyphname = sterling;
lastChange = "2017-04-24 12:22:14 +0000";
layers = (
{
layerId = "4A3087DE-C6CF-4F86-8B90-A264D0797279";
paths = (
{
closed = 1;
nodes = (
"454 243 LINE",
"454 273 LINE",
"140 273 LINE",
"140 243 LINE"
);
},
{
closed = 1;
nodes = (
"497 3 OFFCURVE",
"531 27 OFFCURVE",
"555 55 CURVE",
"543 67 LINE",
"515 46 OFFCURVE",
"500 37 OFFCURVE",
"480 37 CURVE SMOOTH",
"459 37 OFFCURVE",
"433 43 OFFCURVE",
"375 64 CURVE SMOOTH",
"347 74 OFFCURVE",
"324 77 OFFCURVE",
"289 77 CURVE SMOOTH",
"251 77 OFFCURVE",
"215 70 OFFCURVE",
"147 10 CURVE",
"171 19 LINE",
"246 141 OFFCURVE",
"274 211 OFFCURVE",
"276 351 CURVE SMOOTH",
"278 471 OFFCURVE",
"306 491 OFFCURVE",
"330 491 CURVE SMOOTH",
"357 491 OFFCURVE",
"403 461 OFFCURVE",
"403 407 CURVE",
"418 408 LINE",
"437 417 OFFCURVE",
"454 440 OFFCURVE",
"454 458 CURVE SMOOTH",
"454 494 OFFCURVE",
"419 524 OFFCURVE",
"374 524 CURVE SMOOTH",
"313 524 OFFCURVE",
"225 482 OFFCURVE",
"220 335 CURVE SMOOTH",
"215 199 OFFCURVE",
"192 75 OFFCURVE",
"120 8 CURVE",
"124 -2 LINE",
"168 14 OFFCURVE",
"223 21 OFFCURVE",
"274 21 CURVE SMOOTH",
"300 21 OFFCURVE",
"322 16 OFFCURVE",
"370 2 CURVE SMOOTH",
"407 -9 OFFCURVE",
"437 -14 OFFCURVE",
"464 -14 CURVE"
);
}
);
width = 600;
}
);
unicode = 00A3;
},
{
glyphname = yen;
lastChange = "2017-04-24 12:10:46 +0000";
layers = (
{
hints = (
{
origin = "{0, 18}";
scale = "{-1, 1}";
type = Corner;
name = _corner.STM.top.1;
options = 1;
},
{
origin = "{0, 3}";
type = Corner;
name = _corner.STM.top.1;
},
{
origin = "{0, 21}";
type = Corner;
name = _corner.STM.btm.1;
},
{
origin = "{0, 0}";
scale = "{-1, 1}";
type = Corner;
name = _corner.STM.btm.1;
}
);
layerId = "4A3087DE-C6CF-4F86-8B90-A264D0797279";
paths = (
{
closed = 1;
nodes = (
"306 0 LINE",
"306 269 LINE",
"293 224 LINE",
"476 510 LINE",
"430 510 LINE",
"413 471 OFFCURVE",
"393 432 OFFCURVE",
"370 393 CURVE SMOOTH",
"345 351 OFFCURVE",
"320 311 OFFCURVE",
"292 270 CURVE",
"296 270 LINE",
"271 311 OFFCURVE",
"248 351 OFFCURVE",
"228 392 CURVE SMOOTH",
"209 431 OFFCURVE",
"191 471 OFFCURVE",
"176 510 CURVE",
"92 510 LINE",
"257 226 LINE",
"248 271 LINE",
"248 0 LINE"
);
},
{
closed = 1;
nodes = (
"436 166 LINE",
"436 196 LINE",
"134 196 LINE",
"134 166 LINE"
);
},
{
closed = 1;
nodes = (
"436 252 LINE",
"436 282 LINE",
"308 282 LINE",
"292 254 LINE",
"250 282 LINE",
"134 282 LINE",
"134 252 LINE"
);
}
);
width = 600;
}
);
unicode = 00A5;
},
{
glyphname = cent.tf;
lastChange = "2017-05-11 16:37:02 +0000";
layers = (
{
layerId = "4A3087DE-C6CF-4F86-8B90-A264D0797279";
paths = (
{
closed = 1;
nodes = (
"316 428 OFFCURVE",
"347 402 OFFCURVE",
"375 347 CURVE",
"386 349 LINE",
"399 359 OFFCURVE",
"406 376 OFFCURVE",
"406 399 CURVE SMOOTH",
"406 430 OFFCURVE",
"346 464 OFFCURVE",
"273 464 CURVE SMOOTH",
"159 464 OFFCURVE",
"60 366 OFFCURVE",
"60 227 CURVE SMOOTH",
"60 84 OFFCURVE",
"155 16 OFFCURVE",
"247 16 CURVE SMOOTH",
"303 16 OFFCURVE",
"342 28 OFFCURVE",
"383 56 CURVE SMOOTH",
"399 67 OFFCURVE",
"402 73 OFFCURVE",
"404 109 CURVE",
"397 112 LINE",
"359 73 OFFCURVE",
"320 57 OFFCURVE",
"268 57 CURVE SMOOTH",
"207 57 OFFCURVE",
"117 97 OFFCURVE",
"117 256 CURVE SMOOTH",
"117 384 OFFCURVE",
"188 428 OFFCURVE",
"247 428 CURVE SMOOTH"
);
},
{
closed = 1;
nodes = (
"276 453 LINE",
"276 583 LINE",
"252 583 LINE",
"252 453 LINE"
);
},
{
closed = 1;
nodes = (
"272 -88 LINE",
"272 42 LINE",
"248 42 LINE",
"248 -88 LINE"
);
}
);
width = 600;
}
);
},
{
glyphname = dollar.tf;
lastChange = "2017-05-11 16:37:21 +0000";
layers = (
{
layerId = "4A3087DE-C6CF-4F86-8B90-A264D0797279";
paths = (
{
closed = 1;
nodes = (
"204 -68 LINE",
"204 42 LINE",
"180 42 LINE",
"180 -68 LINE"
);
},
{
closed = 1;
nodes = (
"204 463 LINE",
"204 593 LINE",
"180 593 LINE",
"180 463 LINE"
);
},
{
closed = 1;
nodes = (
"143 52 OFFCURVE",
"105 68 OFFCURVE",
"67 129 CURVE",
"57 126 LINE",
"58 44 OFFCURVE",
"92 16 OFFCURVE",
"144 16 CURVE SMOOTH",
"243 16 OFFCURVE",
"325 80 OFFCURVE",
"325 163 CURVE SMOOTH",
"325 213 OFFCURVE",
"292 243 OFFCURVE",
"209 310 CURVE SMOOTH",
"159 350 OFFCURVE",
"139 368 OFFCURVE",
"139 395 CURVE SMOOTH",
"139 423 OFFCURVE",
"161 452 OFFCURVE",
"201 452 CURVE SMOOTH",
"225 452 OFFCURVE",
"265 442 OFFCURVE",
"301 404 CURVE",
"311 410 LINE",
"309 474 OFFCURVE",
"271 494 OFFCURVE",
"234 494 CURVE SMOOTH",
"167 494 OFFCURVE",
"96 436 OFFCURVE",
"96 367 CURVE SMOOTH",
"96 323 OFFCURVE",
"120 291 OFFCURVE",
"179 245 CURVE SMOOTH",
"243 195 OFFCURVE",
"272 166 OFFCURVE",
"272 124 CURVE SMOOTH",
"272 83 OFFCURVE",
"231 52 OFFCURVE",
"183 52 CURVE SMOOTH"
);
}
);
width = 600;
}
);
},
{
glyphname = euro.tf;
lastChange = "2017-05-13 01:11:00 +0000";
layers = (
{
layerId = "4A3087DE-C6CF-4F86-8B90-A264D0797279";
paths = (
{
closed = 1;
nodes = (
"408 -15 OFFCURVE",
"460 -5 OFFCURVE",
"491 25 CURVE",
"496 55 LINE",
"470 31 OFFCURVE",
"415 17 OFFCURVE",
"363 17 CURVE SMOOTH",
"249 17 OFFCURVE",
"188 128 OFFCURVE",
"188 340 CURVE SMOOTH",
"188 555 OFFCURVE",
"243 632 OFFCURVE",
"355 632 CURVE SMOOTH",
"397 632 OFFCURVE",
"439 621 OFFCURVE",
"474 602 CURVE",
"500 620 LINE",
"466 647 OFFCURVE",
"423 664 OFFCURVE",
"358 664 CURVE SMOOTH",
"211 664 OFFCURVE",
"120 586 OFFCURVE",
"120 328 CURVE SMOOTH",
"120 100 OFFCURVE",
"181 -15 OFFCURVE",
"352 -15 CURVE SMOOTH"
);
},
{
closed = 1;
nodes = (
"430 286 LINE",
"439 316 LINE",
"61 316 LINE",
"51 286 LINE"
);
},
{
closed = 1;
nodes = (
"449 365 LINE",
"460 395 LINE",
"79 395 LINE",
"69 365 LINE"
);
}
);
width = 600;
}
);
},
{
glyphname = sterling.tf;
lastChange = "2017-05-11 16:37:25 +0000";
layers = (
{
layerId = "4A3087DE-C6CF-4F86-8B90-A264D0797279";
paths = (
{
closed = 1;
nodes = (
"454 243 LINE",
"454 273 LINE",
"140 273 LINE",
"140 243 LINE"
);
},
{
closed = 1;
nodes = (
"497 3 OFFCURVE",
"531 27 OFFCURVE",
"555 55 CURVE",
"543 67 LINE",
"515 46 OFFCURVE",
"500 37 OFFCURVE",
"480 37 CURVE SMOOTH",
"459 37 OFFCURVE",
"433 43 OFFCURVE",
"375 64 CURVE SMOOTH",
"347 74 OFFCURVE",
"324 77 OFFCURVE",
"289 77 CURVE SMOOTH",
"251 77 OFFCURVE",
"215 70 OFFCURVE",
"147 10 CURVE",
"171 19 LINE",
"246 141 OFFCURVE",
"274 211 OFFCURVE",
"276 351 CURVE SMOOTH",
"278 471 OFFCURVE",
"306 491 OFFCURVE",
"330 491 CURVE SMOOTH",
"357 491 OFFCURVE",
"403 461 OFFCURVE",
"403 407 CURVE",
"418 408 LINE",
"437 417 OFFCURVE",
"454 440 OFFCURVE",
"454 458 CURVE SMOOTH",
"454 494 OFFCURVE",
"419 524 OFFCURVE",
"374 524 CURVE SMOOTH",
"313 524 OFFCURVE",
"225 482 OFFCURVE",
"220 335 CURVE SMOOTH",
"215 199 OFFCURVE",
"192 75 OFFCURVE",
"120 8 CURVE",
"124 -2 LINE",
"168 14 OFFCURVE",
"223 21 OFFCURVE",
"274 21 CURVE SMOOTH",
"300 21 OFFCURVE",
"322 16 OFFCURVE",
"370 2 CURVE SMOOTH",
"407 -9 OFFCURVE",
"437 -14 OFFCURVE",
"464 -14 CURVE"
);
}
);
width = 600;
}
);
},
{
glyphname = yen.tf;
lastChange = "2017-05-13 07:11:34 +0000";
layers = (
{
hints = (
{
origin = "{0, 0}";
scale = "{-1, 1}";
type = Corner;
name = _corner.STM.btm.1;
},
{
origin = "{0, 3}";
type = Corner;
name = _corner.STM.top.1;
},
{
origin = "{0, 18}";
scale = "{-1, 1}";
type = Corner;
name = _corner.STM.top.1;
options = 1;
},
{
origin = "{0, 21}";
type = Corner;
name = _corner.STM.btm.1;
}
);
layerId = "4A3087DE-C6CF-4F86-8B90-A264D0797279";
paths = (
{
closed = 1;
nodes = (
"306 0 LINE",
"306 329 LINE",
"293 284 LINE",
"496 650 LINE",
"450 650 LINE",
"433 611 OFFCURVE",
"413 572 OFFCURVE",
"390 533 CURVE SMOOTH",
"365 491 OFFCURVE",
"320 371 OFFCURVE",
"292 330 CURVE",
"296 330 LINE",
"271 371 OFFCURVE",
"228 491 OFFCURVE",
"208 532 CURVE SMOOTH",
"189 571 OFFCURVE",
"171 611 OFFCURVE",
"156 650 CURVE",
"72 650 LINE",
"257 286 LINE",
"248 331 LINE",
"248 0 LINE"
);
},
{
closed = 1;
nodes = (
"436 226 LINE",
"436 256 LINE",
"134 256 LINE",
"134 226 LINE"
);
},
{
closed = 1;
nodes = (
"436 312 LINE",
"436 342 LINE",
"308 342 LINE",
"292 314 LINE",
"250 342 LINE",
"134 342 LINE",
"134 312 LINE"
);
}
);
width = 550;
}
);
},
{
glyphname = plus;
lastChange = "2017-05-02 03:08:28 +0000";
layers = (
{
hints = (
{
origin = "{1, 2}";
target = "{1, 3}";
type = Cap;
name = _cap.hyphen;
},
{
origin = "{1, 0}";
target = "{1, 1}";
type = Cap;
name = _cap.hyphen;
}
);
layerId = "4A3087DE-C6CF-4F86-8B90-A264D0797279";
paths = (
{
closed = 1;
nodes = (
"312 34 LINE",
"312 544 LINE",
"280 544 LINE",
"280 34 LINE"
);
},
{
closed = 1;
nodes = (
"521 274 LINE",
"521 304 LINE",
"71 304 LINE",
"71 274 LINE"
);
}
);
width = 600;
}
);
unicode = 002B;
},
{
glyphname = minus;
lastChange = "2017-05-02 03:08:25 +0000";
layers = (
{
hints = (
{
origin = "{0, 2}";
target = "{0, 3}";
type = Cap;
name = _cap.hyphen;
},
{
origin = "{0, 0}";
target = "{0, 1}";
type = Cap;
name = _cap.hyphen;
}
);
layerId = "4A3087DE-C6CF-4F86-8B90-A264D0797279";
paths = (
{
closed = 1;
nodes = (
"500 274 LINE",
"500 304 LINE",
"80 304 LINE",
"80 274 LINE"
);
}
);
width = 600;
}
);
unicode = 2212;
},
{
glyphname = multiply;
lastChange = "2017-05-02 03:28:55 +0000";
layers = (
{
layerId = "4A3087DE-C6CF-4F86-8B90-A264D0797279";
paths = (
{
closed = 1;
nodes = (
"466 141 LINE",
"148 459 LINE",
"126 437 LINE",
"444 119 LINE"
);
},
{
closed = 1;
nodes = (
"466 437 LINE",
"444 459 LINE",
"126 141 LINE",
"148 119 LINE"
);
}
);
width = 600;
}
);
unicode = 00D7;
},
{
glyphname = divide;
lastChange = "2017-05-02 03:29:10 +0000";
layers = (
{
hints = (
{
origin = "{0, 2}";
target = "{0, 3}";
type = Cap;
name = _cap.hyphen;
},
{
origin = "{0, 0}";
target = "{0, 1}";
type = Cap;
name = _cap.hyphen;
}
);
layerId = "4A3087DE-C6CF-4F86-8B90-A264D0797279";
paths = (
{
closed = 1;
nodes = (
"500 274 LINE",
"500 304 LINE",
"80 304 LINE",
"80 274 LINE"
);
}
);
width = 580;
}
);
unicode = 00F7;
},
{
glyphname = equal;
lastChange = "2017-05-02 03:06:48 +0000";
layers = (
{
hints = (
{
origin = "{0, 3}";
target = "{0, 0}";
type = Cap;
name = _cap.hyphen;
},
{
origin = "{1, 3}";
target = "{1, 0}";
type = Cap;
name = _cap.hyphen;
},
{
origin = "{1, 1}";
target = "{1, 2}";
type = Cap;
name = _cap.hyphen;
},
{
origin = "{0, 1}";
target = "{0, 2}";
type = Cap;
name = _cap.hyphen;
}
);
layerId = "4A3087DE-C6CF-4F86-8B90-A264D0797279";
paths = (
{
closed = 1;
nodes = (
"70 324 LINE",
"406 324 LINE",
"406 354 LINE",
"70 354 LINE"
);
},
{
closed = 1;
nodes = (
"70 224 LINE",
"406 224 LINE",
"406 254 LINE",
"70 254 LINE"
);
}
);
width = 476;
}
);
unicode = 003D;
},
{
glyphname = greater;
lastChange = "2017-04-13 16:30:01 +0000";
layers = (
{
layerId = "4A3087DE-C6CF-4F86-8B90-A264D0797279";
paths = (
{
closed = 1;
nodes = (
"181 346 OFFCURVE",
"381 244 OFFCURVE",
"459 201 CURVE",
"459 216 LINE",
"382 176 OFFCURVE",
"189 76 OFFCURVE",
"67 16 CURVE",
"66 -13 LINE",
"162 40 OFFCURVE",
"372 147 OFFCURVE",
"480 197 CURVE",
"480 224 LINE",
"401 260 OFFCURVE",
"164 379 OFFCURVE",
"66 433 CURVE",
"68 404 LINE"
);
}
);
width = 600;
}
);
unicode = 003E;
},
{
glyphname = lessequal;
lastChange = "2017-05-02 03:30:07 +0000";
layers = (
{
hints = (
{
origin = "{1, 2}";
target = "{1, 3}";
type = Cap;
name = _cap.hyphen;
},
{
origin = "{1, 0}";
target = "{1, 1}";
type = Cap;
name = _cap.hyphen;
}
);
layerId = "4A3087DE-C6CF-4F86-8B90-A264D0797279";
paths = (
{
closed = 1;
nodes = (
"510 130 LINE",
"115 312 LINE",
"115 304 LINE",
"510 485 LINE",
"510 513 LINE",
"90 317 LINE",
"90 299 LINE",
"510 103 LINE"
);
},
{
closed = 1;
nodes = (
"510 0 LINE",
"510 30 LINE",
"90 30 LINE",
"90 0 LINE"
);
}
);
width = 600;
}
);
unicode = 2264;
},
{
glyphname = plusminus;
lastChange = "2017-05-02 03:30:26 +0000";
layers = (
{
hints = (
{
origin = "{1, 2}";
target = "{1, 3}";
type = Cap;
name = _cap.hyphen;
},
{
origin = "{1, 0}";
target = "{1, 1}";
type = Cap;
name = _cap.hyphen;
},
{
origin = "{0, 8}";
target = "{0, 9}";
type = Cap;
name = _cap.hyphen;
},
{
origin = "{0, 2}";
target = "{0, 3}";
type = Cap;
name = _cap.hyphen;
}
);
layerId = "4A3087DE-C6CF-4F86-8B90-A264D0797279";
paths = (
{
closed = 1;
nodes = (
"306 116 LINE",
"306 305 LINE",
"490 305 LINE",
"490 335 LINE",
"306 335 LINE",
"306 520 LINE",
"274 520 LINE",
"274 335 LINE",
"90 335 LINE",
"90 305 LINE",
"274 305 LINE",
"274 116 LINE"
);
},
{
closed = 1;
nodes = (
"490 0 LINE",
"490 30 LINE",
"90 30 LINE",
"90 0 LINE"
);
}
);
width = 600;
}
);
unicode = 00B1;
},
{
glyphname = approxequal;
lastChange = "2017-05-02 03:44:24 +0000";
layers = (
{
layerId = "4A3087DE-C6CF-4F86-8B90-A264D0797279";
paths = (
{
closed = 1;
nodes = (
"380 360 OFFCURVE",
"373 346 OFFCURVE",
"353 346 CURVE SMOOTH",
"339 346 OFFCURVE",
"327 350 OFFCURVE",
"243 392 CURVE SMOOTH",
"169 429 OFFCURVE",
"153 432 OFFCURVE",
"139 432 CURVE SMOOTH",
"106 432 OFFCURVE",
"94 414 OFFCURVE",
"70 332 CURVE",
"89 324 OFFCURVE",
"91 325 OFFCURVE",
"92 328 CURVE",
"104 369 OFFCURVE",
"113 383 OFFCURVE",
"133 383 CURVE SMOOTH",
"147 383 OFFCURVE",
"159 379 OFFCURVE",
"243 337 CURVE SMOOTH",
"317 300 OFFCURVE",
"333 297 OFFCURVE",
"347 297 CURVE SMOOTH",
"380 297 OFFCURVE",
"392 315 OFFCURVE",
"416 397 CURVE",
"397 405 OFFCURVE",
"395 404 OFFCURVE",
"394 401 CURVE SMOOTH"
);
},
{
closed = 1;
nodes = (
"380 209 OFFCURVE",
"373 195 OFFCURVE",
"353 195 CURVE SMOOTH",
"339 195 OFFCURVE",
"327 199 OFFCURVE",
"243 241 CURVE SMOOTH",
"169 278 OFFCURVE",
"153 281 OFFCURVE",
"139 281 CURVE SMOOTH",
"106 281 OFFCURVE",
"94 263 OFFCURVE",
"70 181 CURVE",
"89 173 OFFCURVE",
"91 174 OFFCURVE",
"92 177 CURVE",
"104 218 OFFCURVE",
"113 232 OFFCURVE",
"133 232 CURVE SMOOTH",
"147 232 OFFCURVE",
"159 228 OFFCURVE",
"243 186 CURVE SMOOTH",
"317 149 OFFCURVE",
"333 146 OFFCURVE",
"347 146 CURVE SMOOTH",
"380 146 OFFCURVE",
"392 164 OFFCURVE",
"416 246 CURVE",
"397 254 OFFCURVE",
"395 253 OFFCURVE",
"394 250 CURVE SMOOTH"
);
}
);
width = 486;
}
);
unicode = 2248;
},
{
glyphname = asciitilde;
lastChange = "2017-05-02 03:43:58 +0000";
layers = (
{
layerId = "4A3087DE-C6CF-4F86-8B90-A264D0797279";
paths = (
{
closed = 1;
nodes = (
"380 284 OFFCURVE",
"373 270 OFFCURVE",
"353 270 CURVE SMOOTH",
"339 270 OFFCURVE",
"327 274 OFFCURVE",
"243 316 CURVE SMOOTH",
"169 353 OFFCURVE",
"153 356 OFFCURVE",
"139 356 CURVE SMOOTH",
"106 356 OFFCURVE",
"94 338 OFFCURVE",
"70 256 CURVE",
"89 248 OFFCURVE",
"91 249 OFFCURVE",
"92 252 CURVE",
"104 293 OFFCURVE",
"113 307 OFFCURVE",
"133 307 CURVE SMOOTH",
"147 307 OFFCURVE",
"159 303 OFFCURVE",
"243 261 CURVE SMOOTH",
"317 224 OFFCURVE",
"333 221 OFFCURVE",
"347 221 CURVE SMOOTH",
"380 221 OFFCURVE",
"392 239 OFFCURVE",
"416 321 CURVE",
"397 329 OFFCURVE",
"395 328 OFFCURVE",
"394 325 CURVE SMOOTH"
);
}
);
width = 486;
}
);
unicode = 007E;
},
{
glyphname = logicalnot;
lastChange = "2017-04-18 21:59:16 +0000";
layers = (
{
layerId = "4A3087DE-C6CF-4F86-8B90-A264D0797279";
paths = (
{
closed = 1;
nodes = (
"452 210 LINE",
"452 372 LINE",
"100 372 LINE",
"100 350 LINE",
"428 350 LINE",
"428 210 LINE"
);
}
);
width = 600;
}
);
unicode = 00AC;
},
{
glyphname = emptyset;
lastChange = "2017-04-18 21:59:22 +0000";
layers = (
{
layerId = "4A3087DE-C6CF-4F86-8B90-A264D0797279";
paths = (
{
closed = 1;
nodes = (
"761 680 LINE",
"744 697 LINE",
"77 30 LINE",
"94 13 LINE"
);
},
{
closed = 1;
nodes = (
"617 -15 OFFCURVE",
"783 144 OFFCURVE",
"783 355 CURVE SMOOTH",
"783 566 OFFCURVE",
"617 725 OFFCURVE",
"419 725 CURVE SMOOTH",
"221 725 OFFCURVE",
"55 566 OFFCURVE",
"55 355 CURVE SMOOTH",
"55 144 OFFCURVE",
"221 -15 OFFCURVE",
"419 -15 CURVE SMOOTH"
);
},
{
closed = 1;
nodes = (
"234 7 OFFCURVE",
"79 156 OFFCURVE",
"79 355 CURVE SMOOTH",
"79 554 OFFCURVE",
"234 703 OFFCURVE",
"419 703 CURVE SMOOTH",
"604 703 OFFCURVE",
"759 554 OFFCURVE",
"759 355 CURVE SMOOTH",
"759 156 OFFCURVE",
"604 7 OFFCURVE",
"419 7 CURVE SMOOTH"
);
}
);
width = 600;
}
);
unicode = 2205;
},
{
glyphname = infinity;
lastChange = "2017-05-13 11:24:43 +0000";
layers = (
{
layerId = "4A3087DE-C6CF-4F86-8B90-A264D0797279";
paths = (
{
closed = 1;
nodes = (
"641 467 OFFCURVE",
"569 421 OFFCURVE",
"492 295 CURVE",
"420 421 OFFCURVE",
"331 467 OFFCURVE",
"257 467 CURVE SMOOTH",
"149 467 OFFCURVE",
"70 374 OFFCURVE",
"70 268 CURVE SMOOTH",
"70 162 OFFCURVE",
"139 69 OFFCURVE",
"257 69 CURVE SMOOTH",
"341 69 OFFCURVE",
"413 115 OFFCURVE",
"490 241 CURVE",
"562 115 OFFCURVE",
"651 69 OFFCURVE",
"725 69 CURVE SMOOTH",
"833 69 OFFCURVE",
"912 162 OFFCURVE",
"912 268 CURVE SMOOTH",
"912 374 OFFCURVE",
"843 467 OFFCURVE",
"725 467 CURVE SMOOTH"
);
},
{
closed = 1;
nodes = (
"155 91 OFFCURVE",
"94 177 OFFCURVE",
"94 268 CURVE SMOOTH",
"94 354 OFFCURVE",
"155 445 OFFCURVE",
"257 445 CURVE SMOOTH",
"331 445 OFFCURVE",
"424 388 OFFCURVE",
"477 268 CURVE",
"427 164 OFFCURVE",
"345 91 OFFCURVE",
"257 91 CURVE SMOOTH"
);
},
{
closed = 1;
nodes = (
"651 91 OFFCURVE",
"558 148 OFFCURVE",
"505 268 CURVE",
"555 372 OFFCURVE",
"637 445 OFFCURVE",
"725 445 CURVE SMOOTH",
"827 445 OFFCURVE",
"888 359 OFFCURVE",
"888 268 CURVE SMOOTH",
"888 182 OFFCURVE",
"827 91 OFFCURVE",
"725 91 CURVE SMOOTH"
);
}
);
width = 982;
}
);
unicode = 221E;
},
{
glyphname = integral;
lastChange = "2017-05-13 23:25:04 +0000";
layers = (
{
layerId = "4A3087DE-C6CF-4F86-8B90-A264D0797279";
paths = (
{
closed = 1;
nodes = (
"167 -160 OFFCURVE",
"221 -106 OFFCURVE",
"239 95 CURVE SMOOTH",
"286 619 LINE SMOOTH",
"293 700 OFFCURVE",
"318 733 OFFCURVE",
"361 733 CURVE SMOOTH",
"385 733 OFFCURVE",
"400 711 OFFCURVE",
"391 680 CURVE",
"421 680 OFFCURVE",
"439 692 OFFCURVE",
"439 711 CURVE SMOOTH",
"439 760 OFFCURVE",
"391 764 OFFCURVE",
"358 764 CURVE SMOOTH",
"282 764 OFFCURVE",
"228 707 OFFCURVE",
"216 579 CURVE SMOOTH",
"163 20 LINE SMOOTH",
"155 -62 OFFCURVE",
"131 -134 OFFCURVE",
"88 -134 CURVE SMOOTH",
"64 -134 OFFCURVE",
"49 -132 OFFCURVE",
"48 -53 CURVE",
"16 -54 OFFCURVE",
"-1 -82 OFFCURVE",
"-1 -106 CURVE SMOOTH",
"-1 -149 OFFCURVE",
"58 -160 OFFCURVE",
"91 -160 CURVE SMOOTH"
);
}
);
width = 600;
}
);
unicode = 222B;
},
{
glyphname = product;
lastChange = "2017-05-13 23:25:53 +0000";
layers = (
{
hints = (
{
origin = "{1, 3}";
type = Corner;
name = _corner.STM.btm.1;
},
{
origin = "{0, 3}";
type = Corner;
name = _corner.STM.btm.1;
},
{
origin = "{1, 0}";
scale = "{-1, 1}";
type = Corner;
name = _corner.STM.btm.1;
},
{
origin = "{0, 0}";
scale = "{-1, 1}";
type = Corner;
name = _corner.STM.btm.1;
}
);
layerId = "4A3087DE-C6CF-4F86-8B90-A264D0797279";
paths = (
{
closed = 1;
nodes = (
"474 -210 LINE",
"474 737 LINE",
"416 737 LINE",
"416 -210 LINE"
);
},
{
closed = 1;
nodes = (
"204 -210 LINE",
"204 737 LINE",
"146 737 LINE",
"146 -210 LINE"
);
},
{
closed = 1;
nodes = (
"569 705 LINE",
"569 737 LINE",
"51 737 LINE",
"51 705 LINE"
);
}
);
width = 600;
}
);
unicode = 220F;
},
{
glyphname = summation;
lastChange = "2017-05-13 23:23:11 +0000";
layers = (
{
layerId = "4A3087DE-C6CF-4F86-8B90-A264D0797279";
paths = (
{
closed = 1;
nodes = (
"536 -70 LINE",
"536 10 LINE",
"98 10 LINE",
"84 -51 LINE",
"294 377 LINE",
"168 719 LINE",
"128 707 LINE",
"530 707 LINE",
"530 737 LINE",
"77 737 LINE",
"77 722 LINE",
"245 294 LINE",
"245 353 LINE",
"47 -55 LINE",
"47 -70 LINE"
);
}
);
width = 600;
}
);
unicode = 2211;
},
{
glyphname = radical;
lastChange = "2017-05-14 09:38:35 +0000";
layers = (
{
layerId = "4A3087DE-C6CF-4F86-8B90-A264D0797279";
paths = (
{
closed = 1;
nodes = (
"311 -160 LINE",
"573 800 LINE",
"536 800 LINE",
"290 -105 LINE",
"335 -21 LINE",
"194 310 LINE",
"69 310 LINE",
"69 278 LINE",
"176 278 LINE",
"104 293 LINE",
"289 -160 LINE"
);
}
);
width = 600;
}
);
unicode = 221A;
},
{
glyphname = partialdiff;
lastChange = "2017-05-14 08:19:19 +0000";
layers = (
{
layerId = "4A3087DE-C6CF-4F86-8B90-A264D0797279";
paths = (
{
closed = 1;
nodes = (
"410 -14 OFFCURVE",
"507 109 OFFCURVE",
"507 323 CURVE SMOOTH",
"507 536 OFFCURVE",
"433 734 OFFCURVE",
"250 734 CURVE SMOOTH",
"202 734 OFFCURVE",
"176 726 OFFCURVE",
"146 715 CURVE",
"168 691 LINE",
"194 699 OFFCURVE",
"219 702 OFFCURVE",
"242 702 CURVE SMOOTH",
"390 702 OFFCURVE",
"443 552 OFFCURVE",
"440 261 CURVE",
"437 245 LINE",
"437 162 OFFCURVE",
"391 18 OFFCURVE",
"288 18 CURVE SMOOTH",
"203 18 OFFCURVE",
"136 112 OFFCURVE",
"136 221 CURVE SMOOTH",
"136 312 OFFCURVE",
"189 388 OFFCURVE",
"265 388 CURVE SMOOTH",
"366 388 OFFCURVE",
"418 299 OFFCURVE",
"442 207 CURVE",
"451 287 LINE",
"426 376 OFFCURVE",
"368 420 OFFCURVE",
"287 420 CURVE SMOOTH",
"197 420 OFFCURVE",
"66 343 OFFCURVE",
"66 183 CURVE SMOOTH",
"66 51 OFFCURVE",
"158 -14 OFFCURVE",
"258 -14 CURVE SMOOTH"
);
}
);
width = 600;
}
);
unicode = 2202;
},
{
glyphname = percent;
lastChange = "2017-04-19 21:56:05 +0000";
layers = (
{
components = (
{
name = elem.percento;
transform = "{1, 0, 0, 1, 15, 276}";
},
{
name = elem.percento;
transform = "{1, 0, 0, 1, 270, 0}";
}
);
layerId = "4A3087DE-C6CF-4F86-8B90-A264D0797279";
paths = (
{
closed = 1;
nodes = (
"213 158 LINE SMOOTH",
"177 100 OFFCURVE",
"140 43 OFFCURVE",
"101 -14 CURVE",
"151 -14 LINE",
"181 39 OFFCURVE",
"212 91 OFFCURVE",
"245 145 CURVE SMOOTH",
"373 352 LINE SMOOTH",
"409 410 OFFCURVE",
"446 467 OFFCURVE",
"485 524 CURVE",
"435 524 LINE",
"405 471 OFFCURVE",
"374 419 OFFCURVE",
"341 365 CURVE SMOOTH"
);
}
);
width = 577;
}
);
unicode = 0025;
},
{
glyphname = lozenge;
lastChange = "2017-04-16 22:23:56 +0000";
layers = (
{
layerId = "4A3087DE-C6CF-4F86-8B90-A264D0797279";
paths = (
{
closed = 1;
nodes = (
"300 -14 LINE",
"480 325 LINE",
"300 664 LINE",
"120 325 LINE"
);
},
{
closed = 1;
nodes = (
"311 29 LINE",
"160 325 LINE",
"311 621 LINE",
"289 621 LINE",
"440 325 LINE",
"289 29 LINE"
);
}
);
width = 600;
}
);
unicode = 25CA;
},
{
glyphname = at;
lastChange = "2017-04-13 16:28:35 +0000";
layers = (
{
layerId = "4A3087DE-C6CF-4F86-8B90-A264D0797279";
paths = (
{
closed = 1;
nodes = (
"501 323 OFFCURVE",
"475 340 OFFCURVE",
"446 340 CURVE SMOOTH",
"355 340 OFFCURVE",
"242 248 OFFCURVE",
"242 131 CURVE SMOOTH",
"242 89 OFFCURVE",
"266 65 OFFCURVE",
"297 65 CURVE SMOOTH",
"345 65 OFFCURVE",
"395 90 OFFCURVE",
"454 172 CURVE",
"448 170 LINE",
"413 118 OFFCURVE",
"443 76 OFFCURVE",
"501 76 CURVE SMOOTH",
"614 76 OFFCURVE",
"713 166 OFFCURVE",
"713 300 CURVE SMOOTH",
"713 433 OFFCURVE",
"594 530 OFFCURVE",
"463 530 CURVE SMOOTH",
"261 530 OFFCURVE",
"65 382 OFFCURVE",
"65 145 CURVE SMOOTH",
"65 -22 OFFCURVE",
"194 -108 OFFCURVE",
"356 -108 CURVE SMOOTH",
"456 -108 OFFCURVE",
"522 -82 OFFCURVE",
"587 -43 CURVE",
"578 -25 LINE",
"522 -60 OFFCURVE",
"453 -83 OFFCURVE",
"389 -83 CURVE SMOOTH",
"216 -83 OFFCURVE",
"113 -10 OFFCURVE",
"113 161 CURVE SMOOTH",
"113 382 OFFCURVE",
"294 510 OFFCURVE",
"447 510 CURVE SMOOTH",
"601 510 OFFCURVE",
"689 411 OFFCURVE",
"689 300 CURVE SMOOTH",
"689 192 OFFCURVE",
"620 105 OFFCURVE",
"531 105 CURVE SMOOTH",
"512 105 OFFCURVE",
"492 118 OFFCURVE",
"492 140 CURVE SMOOTH",
"492 170 OFFCURVE",
"519 242 OFFCURVE",
"567 356 CURVE",
"541 353 OFFCURVE",
"525 352 OFFCURVE",
"511 352 CURVE",
"487 291 LINE",
"502 304 LINE"
);
},
{
closed = 1;
nodes = (
"441 168 OFFCURVE",
"388 111 OFFCURVE",
"341 111 CURVE SMOOTH",
"317 111 OFFCURVE",
"305 127 OFFCURVE",
"305 146 CURVE SMOOTH",
"305 219 OFFCURVE",
"369 315 OFFCURVE",
"441 315 CURVE SMOOTH",
"470 315 OFFCURVE",
"489 302 OFFCURVE",
"470 248 CURVE SMOOTH"
);
}
);
width = 783;
}
);
unicode = 0040;
},
{
glyphname = ampersand;
lastChange = "2017-04-15 03:13:28 +0000";
layers = (
{
layerId = "4A3087DE-C6CF-4F86-8B90-A264D0797279";
paths = (
{
closed = 1;
nodes = (
"404 324 OFFCURVE",
"425 330 OFFCURVE",
"456 330 CURVE SMOOTH",
"504 330 OFFCURVE",
"567 271 OFFCURVE",
"567 200 CURVE SMOOTH",
"567 104 OFFCURVE",
"474 42 OFFCURVE",
"349 42 CURVE SMOOTH",
"211 42 OFFCURVE",
"126 108 OFFCURVE",
"126 214 CURVE SMOOTH",
"126 290 OFFCURVE",
"189 338 OFFCURVE",
"279 354 CURVE",
"282 372 LINE",
"211 387 OFFCURVE",
"168 435 OFFCURVE",
"168 510 CURVE SMOOTH",
"168 591 OFFCURVE",
"230 632 OFFCURVE",
"297 632 CURVE SMOOTH",
"362 632 OFFCURVE",
"410 587 OFFCURVE",
"410 527 CURVE",
"447 527 OFFCURVE",
"467 545 OFFCURVE",
"467 567 CURVE SMOOTH",
"467 618 OFFCURVE",
"401 664 OFFCURVE",
"307 664 CURVE SMOOTH",
"199 664 OFFCURVE",
"105 582 OFFCURVE",
"105 494 CURVE SMOOTH",
"105 419 OFFCURVE",
"167 363 OFFCURVE",
"237 360 CURVE",
"235 369 LINE",
"132 347 OFFCURVE",
"61 269 OFFCURVE",
"61 178 CURVE SMOOTH",
"61 45 OFFCURVE",
"178 -14 OFFCURVE",
"317 -14 CURVE SMOOTH",
"484 -14 OFFCURVE",
"600 77 OFFCURVE",
"600 190 CURVE SMOOTH",
"600 262 OFFCURVE",
"563 323 OFFCURVE",
"486 350 CURVE",
"507 336 LINE",
"606 351 LINE SMOOTH",
"694 364 OFFCURVE",
"717 388 OFFCURVE",
"717 424 CURVE SMOOTH",
"717 432 OFFCURVE",
"715 441 OFFCURVE",
"706 451 CURVE",
"681 426 OFFCURVE",
"646 408 OFFCURVE",
"598 399 CURVE SMOOTH",
"547 389 OFFCURVE",
"526 386 OFFCURVE",
"474 380 CURVE SMOOTH",
"395 371 OFFCURVE",
"375 358 OFFCURVE",
"375 327 CURVE SMOOTH",
"375 319 OFFCURVE",
"377 314 OFFCURVE",
"380 309 CURVE"
);
}
);
width = 730;
}
);
unicode = 0026;
},
{
glyphname = paragraph;
lastChange = "2017-05-14 04:51:57 +0000";
layers = (
{
hints = (
{
origin = "{1, 1}";
type = Corner;
name = _corner.STM.btm.1;
},
{
origin = "{1, 5}";
type = Corner;
name = _corner.STM.btm.1;
},
{
origin = "{1, 2}";
scale = "{-1, 1}";
type = Corner;
name = _corner.STM.btm.1;
},
{
origin = "{1, 6}";
scale = "{-1, 1}";
type = Corner;
name = _corner.STM.btm.1;
}
);
layerId = "4A3087DE-C6CF-4F86-8B90-A264D0797279";
paths = (
{
closed = 1;
nodes = (
"129 559 OFFCURVE",
"160 618 OFFCURVE",
"256 618 CURVE SMOOTH",
"296 618 LINE",
"306 650 LINE",
"282 650 LINE SMOOTH",
"264 650 OFFCURVE",
"243 650 OFFCURVE",
"226 649 CURVE SMOOTH",
"124 643 OFFCURVE",
"59 580 OFFCURVE",
"59 465 CURVE SMOOTH",
"59 350 OFFCURVE",
"114 287 OFFCURVE",
"216 281 CURVE SMOOTH",
"233 280 OFFCURVE",
"254 280 OFFCURVE",
"272 280 CURVE SMOOTH",
"298 280 LINE",
"298 309 LINE",
"258 310 LINE SMOOTH",
"185 312 OFFCURVE",
"129 357 OFFCURVE",
"129 483 CURVE SMOOTH"
);
},
{
closed = 1;
nodes = (
"286 650 LINE",
"286 -219 LINE",
"344 -219 LINE",
"344 618 LINE",
"446 618 LINE",
"446 -219 LINE",
"504 -219 LINE",
"504 618 LINE",
"569 618 LINE",
"569 650 LINE"
);
}
);
width = 600;
}
);
unicode = 00B6;
},
{
glyphname = section;
lastChange = "2017-05-13 00:53:30 +0000";
layers = (
{
layerId = "4A3087DE-C6CF-4F86-8B90-A264D0797279";
paths = (
{
closed = 1;
nodes = (
"203 -118 OFFCURVE",
"165 -102 OFFCURVE",
"127 -41 CURVE",
"117 -44 LINE",
"118 -126 OFFCURVE",
"152 -154 OFFCURVE",
"204 -154 CURVE SMOOTH",
"303 -154 OFFCURVE",
"385 -80 OFFCURVE",
"385 -7 CURVE SMOOTH",
"385 53 OFFCURVE",
"350 95 OFFCURVE",
"259 150 CURVE SMOOTH",
"179 198 OFFCURVE",
"129 244 OFFCURVE",
"129 301 CURVE SMOOTH",
"129 337 OFFCURVE",
"171 407 OFFCURVE",
"278 437 CURVE",
"261 455 LINE",
"145 423 OFFCURVE",
"86 334 OFFCURVE",
"86 273 CURVE SMOOTH",
"86 202 OFFCURVE",
"144 137 OFFCURVE",
"229 85 CURVE SMOOTH",
"298 43 OFFCURVE",
"332 6 OFFCURVE",
"332 -36 CURVE SMOOTH",
"332 -77 OFFCURVE",
"291 -118 OFFCURVE",
"243 -118 CURVE SMOOTH"
);
},
{
closed = 1;
nodes = (
"265 92 LINE",
"394 160 OFFCURVE",
"437 224 OFFCURVE",
"437 277 CURVE SMOOTH",
"437 341 OFFCURVE",
"404 381 OFFCURVE",
"305 450 CURVE SMOOTH",
"224 507 OFFCURVE",
"207 533 OFFCURVE",
"207 560 CURVE SMOOTH",
"207 588 OFFCURVE",
"229 622 OFFCURVE",
"269 622 CURVE SMOOTH",
"293 622 OFFCURVE",
"333 612 OFFCURVE",
"369 574 CURVE",
"379 580 LINE",
"377 644 OFFCURVE",
"339 664 OFFCURVE",
"302 664 CURVE SMOOTH",
"235 664 OFFCURVE",
"164 601 OFFCURVE",
"164 532 CURVE SMOOTH",
"164 488 OFFCURVE",
"185 447 OFFCURVE",
"272 389 CURVE SMOOTH",
"355 333 OFFCURVE",
"384 304 OFFCURVE",
"384 262 CURVE SMOOTH",
"384 211 OFFCURVE",
"350 160 OFFCURVE",
"237 114 CURVE"
);
}
);
width = 523;
}
);
unicode = 00A7;
},
{
glyphname = copyright;
lastChange = "2017-05-11 16:43:42 +0000";
layers = (
{
layerId = "4A3087DE-C6CF-4F86-8B90-A264D0797279";
paths = (
{
closed = 1;
nodes = (
"210 664 OFFCURVE",
"50 522 OFFCURVE",
"50 325 CURVE SMOOTH",
"50 128 OFFCURVE",
"210 -14 OFFCURVE",
"389 -14 CURVE",
"389 16 LINE",
"220 16 OFFCURVE",
"96 144 OFFCURVE",
"96 325 CURVE SMOOTH",
"96 506 OFFCURVE",
"220 634 OFFCURVE",
"389 634 CURVE",
"389 664 LINE"
);
},
{
closed = 1;
nodes = (
"389 634 LINE",
"558 634 OFFCURVE",
"682 506 OFFCURVE",
"682 325 CURVE SMOOTH",
"682 144 OFFCURVE",
"558 16 OFFCURVE",
"389 16 CURVE",
"389 -14 LINE",
"568 -14 OFFCURVE",
"728 128 OFFCURVE",
"728 325 CURVE SMOOTH",
"728 522 OFFCURVE",
"568 664 OFFCURVE",
"389 664 CURVE"
);
},
{
closed = 1;
nodes = (
"451 507 OFFCURVE",
"482 481 OFFCURVE",
"510 426 CURVE",
"521 428 LINE",
"534 438 OFFCURVE",
"541 455 OFFCURVE",
"541 478 CURVE SMOOTH",
"541 509 OFFCURVE",
"481 543 OFFCURVE",
"408 543 CURVE SMOOTH",
"294 543 OFFCURVE",
"201 435 OFFCURVE",
"201 316 CURVE SMOOTH",
"201 183 OFFCURVE",
"280 105 OFFCURVE",
"382 105 CURVE SMOOTH",
"438 105 OFFCURVE",
"477 117 OFFCURVE",
"518 145 CURVE SMOOTH",
"534 156 OFFCURVE",
"537 162 OFFCURVE",
"539 198 CURVE",
"532 201 LINE",
"494 162 OFFCURVE",
"455 146 OFFCURVE",
"403 146 CURVE SMOOTH",
"342 146 OFFCURVE",
"258 186 OFFCURVE",
"258 345 CURVE SMOOTH",
"258 453 OFFCURVE",
"323 507 OFFCURVE",
"382 507 CURVE SMOOTH"
);
}
);
width = 778;
}
);
unicode = 00A9;
},
{
glyphname = registered;
lastChange = "2017-05-13 00:56:53 +0000";
layers = (
{
layerId = "4A3087DE-C6CF-4F86-8B90-A264D0797279";
paths = (
{
closed = 1;
nodes = (
"180 614 OFFCURVE",
"70 522 OFFCURVE",
"70 375 CURVE SMOOTH",
"70 228 OFFCURVE",
"180 126 OFFCURVE",
"309 126 CURVE",
"309 156 LINE",
"190 156 OFFCURVE",
"116 244 OFFCURVE",
"116 375 CURVE SMOOTH",
"116 506 OFFCURVE",
"190 584 OFFCURVE",
"309 584 CURVE",
"309 614 LINE"
);
},
{
closed = 1;
nodes = (
"309 584 LINE",
"428 584 OFFCURVE",
"502 506 OFFCURVE",
"502 375 CURVE SMOOTH",
"502 244 OFFCURVE",
"428 156 OFFCURVE",
"309 156 CURVE",
"309 126 LINE",
"438 126 OFFCURVE",
"548 228 OFFCURVE",
"548 375 CURVE SMOOTH",
"548 522 OFFCURVE",
"438 614 OFFCURVE",
"309 614 CURVE"
);
},
{
closed = 1;
nodes = (
"333 380 OFFCURVE",
"328 383 OFFCURVE",
"313 386 CURVE",
"301 379 LINE",
"343 385 OFFCURVE",
"384 415 OFFCURVE",
"384 452 CURVE SMOOTH",
"384 493 OFFCURVE",
"346 518 OFFCURVE",
"298 518 CURVE SMOOTH",
"285 518 OFFCURVE",
"274 517 OFFCURVE",
"253 517 CURVE SMOOTH",
"230 517 OFFCURVE",
"224 517 OFFCURVE",
"216 518 CURVE",
"215 518 OFFCURVE",
"215 517 OFFCURVE",
"215 511 CURVE",
"227 511 OFFCURVE",
"229 507 OFFCURVE",
"229 388 CURVE SMOOTH",
"229 361 LINE SMOOTH",
"229 242 OFFCURVE",
"227 238 OFFCURVE",
"215 238 CURVE",
"215 233 OFFCURVE",
"215 231 OFFCURVE",
"216 231 CURVE",
"224 232 OFFCURVE",
"230 233 OFFCURVE",
"252 233 CURVE SMOOTH",
"264 233 OFFCURVE",
"270 232 OFFCURVE",
"278 231 CURVE",
"279 231 OFFCURVE",
"279 233 OFFCURVE",
"279 238 CURVE",
"267 238 OFFCURVE",
"265 242 OFFCURVE",
"265 361 CURVE SMOOTH",
"265 373 LINE",
"277 373 LINE SMOOTH",
"296 373 OFFCURVE",
"299 371 OFFCURVE",
"309 354 CURVE SMOOTH",
"368 256 LINE SMOOTH",
"380 236 OFFCURVE",
"395 231 OFFCURVE",
"405 231 CURVE SMOOTH",
"411 231 OFFCURVE",
"421 232 OFFCURVE",
"437 232 CURVE SMOOTH",
"438 232 OFFCURVE",
"439 233 OFFCURVE",
"439 240 CURVE",
"426 241 OFFCURVE",
"416 248 OFFCURVE",
"367 326 CURVE SMOOTH"
);
},
{
closed = 1;
nodes = (
"265 498 LINE",
"269 498 OFFCURVE",
"273 499 OFFCURVE",
"284 499 CURVE SMOOTH",
"320 499 OFFCURVE",
"344 484 OFFCURVE",
"344 443 CURVE SMOOTH",
"344 416 OFFCURVE",
"324 393 OFFCURVE",
"282 393 CURVE SMOOTH",
"265 393 LINE"
);
}
);
width = 600;
}
);
unicode = 00AE;
},
{
glyphname = degree;
lastChange = "2017-05-12 10:27:48 +0000";
layers = (
{
layerId = "4A3087DE-C6CF-4F86-8B90-A264D0797279";
paths = (
{
closed = 1;
nodes = (
"253 670 OFFCURVE",
"205 625 OFFCURVE",
"205 566 CURVE SMOOTH",
"205 511 OFFCURVE",
"250 471 OFFCURVE",
"303 471 CURVE",
"306 491 LINE",
"276 491 OFFCURVE",
"235 517 OFFCURVE",
"235 571 CURVE SMOOTH",
"235 618 OFFCURVE",
"264 650 OFFCURVE",
"303 650 CURVE",
"306 670 LINE"
);
},
{
closed = 1;
nodes = (
"356 471 OFFCURVE",
"404 516 OFFCURVE",
"404 575 CURVE SMOOTH",
"404 630 OFFCURVE",
"359 670 OFFCURVE",
"306 670 CURVE",
"303 650 LINE",
"333 650 OFFCURVE",
"374 624 OFFCURVE",
"374 570 CURVE SMOOTH",
"374 523 OFFCURVE",
"345 491 OFFCURVE",
"306 491 CURVE",
"303 471 LINE"
);
}
);
width = 600;
}
);
unicode = 00B0;
},
{
glyphname = bar;
lastChange = "2017-04-19 21:57:05 +0000";
layers = (
{
layerId = "4A3087DE-C6CF-4F86-8B90-A264D0797279";
paths = (
{
closed = 1;
nodes = (
"200 -200 LINE",
"200 800 LINE",
"166 800 LINE",
"166 -200 LINE"
);
}
);
width = 600;
}
);
unicode = 007C;
},
{
glyphname = brokenbar;
lastChange = "2017-04-19 21:57:09 +0000";
layers = (
{
layerId = "4A3087DE-C6CF-4F86-8B90-A264D0797279";
paths = (
{
closed = 1;
nodes = (
"200 350 LINE",
"200 690 LINE",
"166 690 LINE",
"166 350 LINE"
);
},
{
closed = 1;
nodes = (
"200 -160 LINE",
"200 180 LINE",
"166 180 LINE",
"166 -160 LINE"
);
}
);
width = 600;
}
);
unicode = 00A6;
},
{
glyphname = dagger;
lastChange = "2017-04-18 21:56:57 +0000";
layers = (
{
layerId = "4A3087DE-C6CF-4F86-8B90-A264D0797279";
paths = (
{
closed = 1;
nodes = (
"320 -160 LINE",
"310 388 LINE",
"310 438 LINE",
"320 690 LINE",
"230 690 LINE",
"240 438 LINE",
"240 388 LINE",
"230 -160 LINE"
);
},
{
closed = 1;
nodes = (
"242 382 LINE",
"308 382 LINE",
"494 374 LINE",
"494 452 LINE",
"308 444 LINE",
"242 444 LINE",
"56 452 LINE",
"56 374 LINE"
);
}
);
width = 600;
}
);
unicode = 2020;
},
{
glyphname = daggerdbl;
lastChange = "2017-04-18 21:57:07 +0000";
layers = (
{
layerId = "4A3087DE-C6CF-4F86-8B90-A264D0797279";
paths = (
{
closed = 1;
nodes = (
"320 -160 LINE",
"310 92 LINE",
"310 438 LINE",
"320 690 LINE",
"230 690 LINE",
"240 438 LINE",
"240 92 LINE",
"230 -160 LINE"
);
},
{
closed = 1;
nodes = (
"242 86 LINE",
"308 86 LINE",
"494 78 LINE",
"494 156 LINE",
"308 148 LINE",
"242 148 LINE",
"56 156 LINE",
"56 78 LINE"
);
},
{
closed = 1;
nodes = (
"242 382 LINE",
"308 382 LINE",
"494 374 LINE",
"494 452 LINE",
"308 444 LINE",
"242 444 LINE",
"56 452 LINE",
"56 374 LINE"
);
}
);
width = 600;
}
);
unicode = 2021;
},
{
glyphname = asciicircum;
lastChange = "2017-05-11 16:33:51 +0000";
layers = (
{
layerId = "4A3087DE-C6CF-4F86-8B90-A264D0797279";
paths = (
{
closed = 1;
nodes = (
"75 191 LINE",
"311 463 LINE",
"287 463 LINE",
"524 192 LINE",
"538 202 LINE",
"304 530 LINE",
"296 530 LINE",
"62 202 LINE"
);
}
);
width = 600;
}
);
unicode = 005E;
},
{
glyphname = strokeshortcomb.case;
lastChange = "2017-05-04 11:34:28 +0000";
layers = (
{
anchors = (
{
name = _center;
position = "{105, 198}";
},
{
name = "_center#2";
position = "{150, 198}";
}
);
layerId = "4A3087DE-C6CF-4F86-8B90-A264D0797279";
paths = (
{
closed = 1;
nodes = (
"60 183 OFFCURVE",
"83 183 OFFCURVE",
"103 183 CURVE SMOOTH",
"260 183 LINE SMOOTH",
"263 183 OFFCURVE",
"267 186 OFFCURVE",
"267 215 CURVE",
"240 213 OFFCURVE",
"217 213 OFFCURVE",
"197 213 CURVE SMOOTH",
"40 213 LINE SMOOTH",
"37 213 OFFCURVE",
"33 207 OFFCURVE",
"33 181 CURVE"
);
}
);
width = 300;
}
);
},
{
glyphname = slashshortcomb.case;
lastChange = "2017-05-04 00:43:18 +0000";
layers = (
{
anchors = (
{
name = _center;
position = "{116, 273}";
}
);
layerId = "4A3087DE-C6CF-4F86-8B90-A264D0797279";
paths = (
{
closed = 1;
nodes = (
"51 248 OFFCURVE",
"50 239 OFFCURVE",
"50 205 CURVE",
"71 229 OFFCURVE",
"84 240 OFFCURVE",
"118 266 CURVE",
"133 267 LINE",
"245 353 LINE SMOOTH",
"249 356 OFFCURVE",
"250 359 OFFCURVE",
"250 399 CURVE",
"228 375 OFFCURVE",
"212 360 OFFCURVE",
"188 342 CURVE SMOOTH",
"132 300 LINE",
"126 307 LINE",
"56 252 LINE SMOOTH"
);
}
);
width = 300;
}
);
},
{
export = 0;
glyphname = strokeshortcomb;
lastChange = "2017-05-01 10:45:41 +0000";
layers = (
{
anchors = (
{
name = _center;
position = "{122, 200}";
},
{
name = "_center#2";
position = "{182, 200}";
}
);
layerId = "4A3087DE-C6CF-4F86-8B90-A264D0797279";
paths = (
{
closed = 1;
nodes = (
"77 187 OFFCURVE",
"100 187 OFFCURVE",
"120 187 CURVE SMOOTH",
"247 187 LINE SMOOTH",
"250 187 OFFCURVE",
"254 190 OFFCURVE",
"254 215 CURVE",
"227 213 OFFCURVE",
"204 213 OFFCURVE",
"184 213 CURVE SMOOTH",
"57 213 LINE SMOOTH",
"54 213 OFFCURVE",
"50 211 OFFCURVE",
"50 185 CURVE"
);
}
);
width = 300;
}
);
unicode = 0335;
},
{
export = 0;
glyphname = slashshortcomb;
lastChange = "2017-05-01 10:41:50 +0000";
layers = (
{
anchors = (
{
name = _center;
position = "{149, 450}";
}
);
layerId = "4A3087DE-C6CF-4F86-8B90-A264D0797279";
paths = (
{
closed = 1;
nodes = (
"50 237 OFFCURVE",
"49 232 OFFCURVE",
"49 198 CURVE",
"70 222 OFFCURVE",
"83 233 OFFCURVE",
"117 259 CURVE SMOOTH",
"244 357 LINE SMOOTH",
"248 360 OFFCURVE",
"249 363 OFFCURVE",
"249 399 CURVE",
"227 375 OFFCURVE",
"211 360 OFFCURVE",
"187 342 CURVE SMOOTH",
"55 241 LINE SMOOTH"
);
}
);
width = 300;
}
);
unicode = 0337;
},
{
export = 0;
glyphname = commaaccentcomb.alt;
lastChange = "2017-04-01 10:56:54 +0000";
layers = (
{
anchors = (
{
name = _top;
position = "{99, 520}";
}
);
associatedMasterId = "4A3087DE-C6CF-4F86-8B90-A264D0797279";
layerId = "284DCAF7-AB20-402F-AEDF-E1CEEB9773D4";
paths = (
{
closed = 1;
nodes = (
"125 805 LINE",
"71 750 OFFCURVE",
"37 686 OFFCURVE",
"40 596 CURVE",
"61 594 OFFCURVE",
"108 605 OFFCURVE",
"125 616 CURVE",
"130 678 OFFCURVE",
"145 726 OFFCURVE",
"188 805 CURVE"
);
}
);
width = 228;
},
{
anchors = (
{
name = _top;
position = "{118, 520}";
}
);
associatedMasterId = "4A3087DE-C6CF-4F86-8B90-A264D0797279";
layerId = "005AA5DB-9C20-42D5-964E-7DFE1013E61C";
paths = (
{
closed = 1;
nodes = (
"123 858 LINE",
"73 797 OFFCURVE",
"38 699 OFFCURVE",
"40 610 CURVE",
"66 608 OFFCURVE",
"158 618 OFFCURVE",
"179 630 CURVE",
"174 689 OFFCURVE",
"184 754 OFFCURVE",
"224 858 CURVE"
);
}
);
width = 264;
},
{
associatedMasterId = "4A3087DE-C6CF-4F86-8B90-A264D0797279";
layerId = "D3EC50DA-490D-4C50-99CC-6B1C78354A1C";
name = "new Layer";
width = 600;
},
{
anchors = (
{
name = _top;
position = "{58, 520}";
}
);
layerId = "4A3087DE-C6CF-4F86-8B90-A264D0797279";
paths = (
{
closed = 1;
nodes = (
"89 790 LINE",
"53 728 OFFCURVE",
"36 669 OFFCURVE",
"40 601 CURVE",
"49 602 OFFCURVE",
"58 605 OFFCURVE",
"63 609 CURVE",
"61 661 OFFCURVE",
"72 718 OFFCURVE",
"110 790 CURVE"
);
}
);
width = 150;
},
{
anchors = (
{
name = _bottom;
position = "{150, 0}";
}
);
associatedMasterId = "4A3087DE-C6CF-4F86-8B90-A264D0797279";
layerId = "AA5B68FE-E9F0-4F77-9A07-827BCF77852C";
name = "Regular May 22 15, 20:25";
paths = (
{
closed = 1;
nodes = (
"131 -260 LINE",
"180 -205 OFFCURVE",
"205 -151 OFFCURVE",
"193 -51 CURVE",
"172 -49 OFFCURVE",
"125 -60 OFFCURVE",
"108 -71 CURVE",
"114 -133 OFFCURVE",
"105 -181 OFFCURVE",
"68 -260 CURVE"
);
}
);
width = 300;
}
);
leftKerningGroup = commaaccent;
rightKerningGroup = commaaccent;
},
{
glyphname = acute;
lastChange = "2017-04-30 01:16:28 +0000";
layers = (
{
anchors = (
{
name = _top;
position = "{75, 520}";
}
);
associatedMasterId = "4A3087DE-C6CF-4F86-8B90-A264D0797279";
layerId = "284DCAF7-AB20-402F-AEDF-E1CEEB9773D4";
paths = (
{
closed = 1;
nodes = (
"93 604 LINE",
"218 760 LINE",
"112 760 LINE",
"40 604 LINE"
);
}
);
width = 258;
},
{
anchors = (
{
name = _top;
position = "{108, 520}";
}
);
associatedMasterId = "4A3087DE-C6CF-4F86-8B90-A264D0797279";
layerId = "005AA5DB-9C20-42D5-964E-7DFE1013E61C";
paths = (
{
closed = 1;
nodes = (
"125 604 LINE",
"286 780 LINE",
"112 780 LINE",
"40 604 LINE"
);
}
);
width = 326;
},
{
associatedMasterId = "4A3087DE-C6CF-4F86-8B90-A264D0797279";
layerId = "D3EC50DA-490D-4C50-99CC-6B1C78354A1C";
name = "new Layer";
width = 600;
},
{
anchors = (
{
name = _top;
position = "{150, 450}";
}
);
layerId = "4A3087DE-C6CF-4F86-8B90-A264D0797279";
paths = (
{
closed = 1;
nodes = (
"110 537 LINE SMOOTH",
"117 536 OFFCURVE",
"119 537 OFFCURVE",
"129 549 CURVE SMOOTH",
"258 699 LINE",
"193 699 LINE",
"165 646 OFFCURVE",
"135 593 OFFCURVE",
"102 538 CURVE"
);
}
);
width = 300;
}
);
leftKerningGroup = acute;
rightKerningGroup = acute;
unicode = 00B4;
},
{
glyphname = breve;
lastChange = "2017-04-30 01:17:00 +0000";
layers = (
{
anchors = (
{
name = _top;
position = "{164, 520}";
}
);
associatedMasterId = "4A3087DE-C6CF-4F86-8B90-A264D0797279";
layerId = "284DCAF7-AB20-402F-AEDF-E1CEEB9773D4";
paths = (
{
closed = 1;
nodes = (
"250 584 OFFCURVE",
"297 636 OFFCURVE",
"287 750 CURVE",
"229 750 LINE",
"231 682 OFFCURVE",
"209 654 OFFCURVE",
"164 654 CURVE SMOOTH",
"119 654 OFFCURVE",
"97 682 OFFCURVE",
"99 750 CURVE",
"41 750 LINE",
"31 636 OFFCURVE",
"77 584 OFFCURVE",
"164 584 CURVE SMOOTH"
);
}
);
width = 328;
},
{
anchors = (
{
name = _top;
position = "{181, 520}";
}
);
associatedMasterId = "4A3087DE-C6CF-4F86-8B90-A264D0797279";
layerId = "005AA5DB-9C20-42D5-964E-7DFE1013E61C";
paths = (
{
closed = 1;
nodes = (
"272 584 OFFCURVE",
"334 629 OFFCURVE",
"320 780 CURVE",
"234 780 LINE",
"237 714 OFFCURVE",
"216 690 OFFCURVE",
"181 690 CURVE SMOOTH",
"146 690 OFFCURVE",
"125 714 OFFCURVE",
"128 780 CURVE",
"42 780 LINE",
"28 629 OFFCURVE",
"89 584 OFFCURVE",
"181 584 CURVE SMOOTH"
);
}
);
width = 362;
},
{
associatedMasterId = "4A3087DE-C6CF-4F86-8B90-A264D0797279";
layerId = "D3EC50DA-490D-4C50-99CC-6B1C78354A1C";
name = "new Layer";
width = 600;
},
{
anchors = (
{
name = _top;
position = "{150, 450}";
}
);
layerId = "4A3087DE-C6CF-4F86-8B90-A264D0797279";
paths = (
{
closed = 1;
nodes = (
"150 591 LINE",
"101 591 OFFCURVE",
"56 610 OFFCURVE",
"59 690 CURVE",
"46 690 LINE",
"42 681 OFFCURVE",
"41 670 OFFCURVE",
"41 660 CURVE SMOOTH",
"41 586 OFFCURVE",
"93 543 OFFCURVE",
"150 543 CURVE"
);
},
{
closed = 1;
nodes = (
"207 543 OFFCURVE",
"259 586 OFFCURVE",
"259 660 CURVE SMOOTH",
"259 670 OFFCURVE",
"258 681 OFFCURVE",
"254 690 CURVE",
"241 690 LINE",
"244 610 OFFCURVE",
"199 591 OFFCURVE",
"150 591 CURVE",
"150 543 LINE"
);
}
);
width = 300;
}
);
leftKerningGroup = breve;
rightKerningGroup = breve;
unicode = 02D8;
},
{
glyphname = caron;
lastChange = "2017-04-30 14:17:01 +0000";
layers = (
{
anchors = (
{
name = _top;
position = "{171, 520}";
}
);
associatedMasterId = "4A3087DE-C6CF-4F86-8B90-A264D0797279";
layerId = "284DCAF7-AB20-402F-AEDF-E1CEEB9773D4";
paths = (
{
closed = 1;
nodes = (
"211 604 LINE",
"303 760 LINE",
"243 760 LINE",
"158 639 LINE",
"192 639 LINE",
"107 760 LINE",
"40 760 LINE",
"132 604 LINE"
);
}
);
width = 343;
},
{
anchors = (
{
name = _top;
position = "{202, 520}";
}
);
associatedMasterId = "4A3087DE-C6CF-4F86-8B90-A264D0797279";
layerId = "005AA5DB-9C20-42D5-964E-7DFE1013E61C";
paths = (
{
closed = 1;
nodes = (
"265 604 LINE",
"364 780 LINE",
"273 780 LINE",
"184 672 LINE",
"220 672 LINE",
"141 780 LINE",
"40 780 LINE",
"139 604 LINE"
);
}
);
width = 404;
},
{
associatedMasterId = "4A3087DE-C6CF-4F86-8B90-A264D0797279";
layerId = "D3EC50DA-490D-4C50-99CC-6B1C78354A1C";
name = "new Layer";
width = 600;
},
{
anchors = (
{
name = _top;
position = "{148, 450}";
}
);
layerId = "4A3087DE-C6CF-4F86-8B90-A264D0797279";
paths = (
{
closed = 1;
nodes = (
"248 680 LINE",
"139 591 LINE",
"163 591 LINE",
"54 680 LINE",
"42 672 LINE",
"146 544 LINE",
"154 544 LINE",
"258 672 LINE"
);
}
);
width = 296;
}
);
leftKerningGroup = caron;
rightKerningGroup = caron;
unicode = 02C7;
},
{
glyphname = cedilla;
lastChange = "2017-04-30 23:45:59 +0000";
layers = (
{
anchors = (
{
name = _bottom;
position = "{140, 0}";
}
);
associatedMasterId = "4A3087DE-C6CF-4F86-8B90-A264D0797279";
layerId = "284DCAF7-AB20-402F-AEDF-E1CEEB9773D4";
paths = (
{
closed = 1;
nodes = (
"179 -210 OFFCURVE",
"234 -178 OFFCURVE",
"234 -120 CURVE SMOOTH",
"234 -78 OFFCURVE",
"200 -43 OFFCURVE",
"135 -39 CURVE",
"138 -65 LINE",
"170 9 LINE",
"122 9 LINE",
"82 -84 LINE",
"133 -79 OFFCURVE",
"166 -90 OFFCURVE",
"166 -119 CURVE SMOOTH",
"166 -146 OFFCURVE",
"140 -158 OFFCURVE",
"103 -158 CURVE SMOOTH",
"91 -158 OFFCURVE",
"75 -156 OFFCURVE",
"60 -150 CURVE",
"40 -194 LINE",
"59 -205 OFFCURVE",
"82 -210 OFFCURVE",
"109 -210 CURVE SMOOTH"
);
}
);
width = 274;
},
{
anchors = (
{
name = _bottom;
position = "{157, 0}";
}
);
associatedMasterId = "4A3087DE-C6CF-4F86-8B90-A264D0797279";
layerId = "005AA5DB-9C20-42D5-964E-7DFE1013E61C";
paths = (
{
closed = 1;
nodes = (
"206 -210 OFFCURVE",
"266 -173 OFFCURVE",
"266 -114 CURVE SMOOTH",
"266 -63 OFFCURVE",
"226 -34 OFFCURVE",
"157 -29 CURVE",
"156 -65 LINE",
"202 9 LINE",
"129 9 LINE",
"83 -78 LINE",
"131 -73 OFFCURVE",
"158 -89 OFFCURVE",
"158 -114 CURVE SMOOTH",
"158 -137 OFFCURVE",
"137 -147 OFFCURVE",
"111 -147 CURVE SMOOTH",
"90 -147 OFFCURVE",
"76 -145 OFFCURVE",
"63 -140 CURVE",
"40 -187 LINE",
"63 -202 OFFCURVE",
"95 -210 OFFCURVE",
"133 -210 CURVE SMOOTH"
);
}
);
width = 306;
},
{
associatedMasterId = "4A3087DE-C6CF-4F86-8B90-A264D0797279";
layerId = "D3EC50DA-490D-4C50-99CC-6B1C78354A1C";
name = "new Layer";
width = 600;
},
{
anchors = (
{
name = _bottom;
position = "{146, 0}";
}
);
layerId = "4A3087DE-C6CF-4F86-8B90-A264D0797279";
paths = (
{
closed = 1;
nodes = (
"129 -43 CURVE",
"137 -69 LINE",
"142 -46 OFFCURVE",
"150 -23 OFFCURVE",
"161 0 CURVE",
"134 0 LINE",
"126 -25 OFFCURVE",
"114 -47 OFFCURVE",
"96 -72 CURVE",
"101 -75 LINE",
"166 -72 OFFCURVE",
"186 -96 OFFCURVE",
"186 -134 CURVE SMOOTH",
"186 -172 OFFCURVE",
"158 -197 OFFCURVE",
"123 -197 CURVE SMOOTH",
"100 -197 OFFCURVE",
"86 -194 OFFCURVE",
"69 -186 CURVE",
"60 -200 LINE",
"74 -210 OFFCURVE",
"105 -220 OFFCURVE",
"130 -220 CURVE SMOOTH",
"196 -220 OFFCURVE",
"242 -181 OFFCURVE",
"242 -126 CURVE SMOOTH",
"242 -80 OFFCURVE",
"202 -38 OFFCURVE"
);
}
);
width = 300;
}
);
leftKerningGroup = cedilla;
rightKerningGroup = cedilla;
unicode = 00B8;
},
{
glyphname = circumflex;
lastChange = "2017-04-30 01:17:55 +0000";
layers = (
{
anchors = (
{
name = _top;
position = "{175, 520}";
}
);
associatedMasterId = "4A3087DE-C6CF-4F86-8B90-A264D0797279";
layerId = "284DCAF7-AB20-402F-AEDF-E1CEEB9773D4";
paths = (
{
closed = 1;
nodes = (
"100 604 LINE",
"185 725 LINE",
"151 725 LINE",
"236 604 LINE",
"303 604 LINE",
"211 760 LINE",
"132 760 LINE",
"40 604 LINE"
);
}
);
width = 343;
},
{
anchors = (
{
name = _top;
position = "{202, 520}";
}
);
associatedMasterId = "4A3087DE-C6CF-4F86-8B90-A264D0797279";
layerId = "005AA5DB-9C20-42D5-964E-7DFE1013E61C";
paths = (
{
closed = 1;
nodes = (
"131 604 LINE",
"220 712 LINE",
"184 712 LINE",
"263 604 LINE",
"364 604 LINE",
"265 780 LINE",
"139 780 LINE",
"40 604 LINE"
);
}
);
width = 404;
},
{
associatedMasterId = "4A3087DE-C6CF-4F86-8B90-A264D0797279";
layerId = "D3EC50DA-490D-4C50-99CC-6B1C78354A1C";
name = "new Layer";
width = 600;
},
{
anchors = (
{
name = _top;
position = "{150, 450}";
}
);
layerId = "4A3087DE-C6CF-4F86-8B90-A264D0797279";
paths = (
{
closed = 1;
nodes = (
"52 544 LINE",
"161 633 LINE",
"137 633 LINE",
"246 544 LINE",
"258 552 LINE",
"154 680 LINE",
"146 680 LINE",
"42 552 LINE"
);
}
);
width = 300;
}
);
leftKerningGroup = circumflex;
rightKerningGroup = circumflex;
unicode = 02C6;
},
{
glyphname = dieresis;
lastChange = "2017-04-30 14:15:12 +0000";
layers = (
{
anchors = (
{
name = _top;
position = "{164, 520}";
}
);
associatedMasterId = "4A3087DE-C6CF-4F86-8B90-A264D0797279";
layerId = "284DCAF7-AB20-402F-AEDF-E1CEEB9773D4";
paths = (
{
closed = 1;
nodes = (
"222 630 OFFCURVE",
"266 630 OFFCURVE",
"288 636 CURVE",
"288 717 LINE",
"266 723 OFFCURVE",
"222 723 OFFCURVE",
"200 717 CURVE",
"200 636 LINE"
);
},
{
closed = 1;
nodes = (
"62 630 OFFCURVE",
"106 630 OFFCURVE",
"128 636 CURVE",
"128 717 LINE",
"106 723 OFFCURVE",
"62 723 OFFCURVE",
"40 717 CURVE",
"40 636 LINE"
);
}
);
width = 328;
},
{
anchors = (
{
name = _top;
position = "{245, 520}";
}
);
associatedMasterId = "4A3087DE-C6CF-4F86-8B90-A264D0797279";
layerId = "005AA5DB-9C20-42D5-964E-7DFE1013E61C";
paths = (
{
closed = 1;
nodes = (
"327 595 OFFCURVE",
"408 595 OFFCURVE",
"450 602 CURVE",
"450 756 LINE",
"408 763 OFFCURVE",
"327 763 OFFCURVE",
"285 756 CURVE",
"285 602 LINE"
);
},
{
closed = 1;
nodes = (
"82 595 OFFCURVE",
"163 595 OFFCURVE",
"205 602 CURVE",
"205 756 LINE",
"163 763 OFFCURVE",
"82 763 OFFCURVE",
"40 756 CURVE",
"40 602 LINE"
);
}
);
width = 490;
},
{
associatedMasterId = "4A3087DE-C6CF-4F86-8B90-A264D0797279";
layerId = "D3EC50DA-490D-4C50-99CC-6B1C78354A1C";
name = "new Layer";
width = 600;
},
{
anchors = (
{
name = _top;
position = "{150, 450}";
}
);
layerId = "4A3087DE-C6CF-4F86-8B90-A264D0797279";
paths = (
{
closed = 1;
nodes = (
"110 581 OFFCURVE",
"128 599 OFFCURVE",
"128 621 CURVE SMOOTH",
"128 643 OFFCURVE",
"110 661 OFFCURVE",
"88 661 CURVE SMOOTH",
"66 661 OFFCURVE",
"48 643 OFFCURVE",
"48 621 CURVE SMOOTH",
"48 599 OFFCURVE",
"66 581 OFFCURVE",
"88 581 CURVE SMOOTH"
);
},
{
closed = 1;
nodes = (
"234 581 OFFCURVE",
"252 599 OFFCURVE",
"252 621 CURVE SMOOTH",
"252 643 OFFCURVE",
"234 661 OFFCURVE",
"212 661 CURVE SMOOTH",
"190 661 OFFCURVE",
"172 643 OFFCURVE",
"172 621 CURVE SMOOTH",
"172 599 OFFCURVE",
"190 581 OFFCURVE",
"212 581 CURVE SMOOTH"
);
}
);
width = 300;
}
);
leftKerningGroup = dieresis;
rightKerningGroup = dieresis;
unicode = 00A8;
},
{
glyphname = dotaccent;
lastChange = "2017-04-30 14:18:00 +0000";
layers = (
{
anchors = (
{
name = _top;
position = "{84, 520}";
}
);
associatedMasterId = "4A3087DE-C6CF-4F86-8B90-A264D0797279";
layerId = "284DCAF7-AB20-402F-AEDF-E1CEEB9773D4";
paths = (
{
closed = 1;
nodes = (
"62 630 OFFCURVE",
"106 630 OFFCURVE",
"128 636 CURVE",
"128 717 LINE",
"106 723 OFFCURVE",
"62 723 OFFCURVE",
"40 717 CURVE",
"40 636 LINE"
);
}
);
width = 168;
},
{
anchors = (
{
name = _top;
position = "{130, 520}";
}
);
associatedMasterId = "4A3087DE-C6CF-4F86-8B90-A264D0797279";
layerId = "005AA5DB-9C20-42D5-964E-7DFE1013E61C";
paths = (
{
closed = 1;
nodes = (
"82 595 OFFCURVE",
"178 595 OFFCURVE",
"220 602 CURVE",
"220 756 LINE",
"178 763 OFFCURVE",
"82 763 OFFCURVE",
"40 756 CURVE",
"40 602 LINE"
);
}
);
width = 260;
},
{
associatedMasterId = "4A3087DE-C6CF-4F86-8B90-A264D0797279";
layerId = "D3EC50DA-490D-4C50-99CC-6B1C78354A1C";
name = "new Layer";
width = 600;
},
{
anchors = (
{
name = _top;
position = "{150, 450}";
}
);
layerId = "4A3087DE-C6CF-4F86-8B90-A264D0797279";
paths = (
{
closed = 1;
nodes = (
"172 581 OFFCURVE",
"190 599 OFFCURVE",
"190 621 CURVE SMOOTH",
"190 643 OFFCURVE",
"172 661 OFFCURVE",
"150 661 CURVE SMOOTH",
"128 661 OFFCURVE",
"110 643 OFFCURVE",
"110 621 CURVE SMOOTH",
"110 599 OFFCURVE",
"128 581 OFFCURVE",
"150 581 CURVE SMOOTH"
);
}
);
width = 300;
}
);
leftKerningGroup = dotaccent;
rightKerningGroup = dotaccent;
unicode = 02D9;
},
{
glyphname = grave;
lastChange = "2017-04-30 01:16:43 +0000";
layers = (
{
anchors = (
{
name = _top;
position = "{171, 520}";
}
);
associatedMasterId = "4A3087DE-C6CF-4F86-8B90-A264D0797279";
layerId = "284DCAF7-AB20-402F-AEDF-E1CEEB9773D4";
paths = (
{
closed = 1;
nodes = (
"218 604 LINE",
"146 760 LINE",
"40 760 LINE",
"165 604 LINE"
);
}
);
width = 258;
},
{
anchors = (
{
name = _top;
position = "{233, 520}";
}
);
associatedMasterId = "4A3087DE-C6CF-4F86-8B90-A264D0797279";
layerId = "005AA5DB-9C20-42D5-964E-7DFE1013E61C";
paths = (
{
closed = 1;
nodes = (
"286 604 LINE",
"214 780 LINE",
"40 780 LINE",
"201 604 LINE"
);
}
);
width = 326;
},
{
associatedMasterId = "4A3087DE-C6CF-4F86-8B90-A264D0797279";
layerId = "D3EC50DA-490D-4C50-99CC-6B1C78354A1C";
name = "new Layer";
width = 600;
},
{
anchors = (
{
name = _top;
position = "{150, 450}";
}
);
layerId = "4A3087DE-C6CF-4F86-8B90-A264D0797279";
paths = (
{
closed = 1;
nodes = (
"175 593 OFFCURVE",
"145 646 OFFCURVE",
"117 699 CURVE",
"52 699 LINE",
"181 549 LINE SMOOTH",
"191 537 OFFCURVE",
"193 536 OFFCURVE",
"200 537 CURVE SMOOTH",
"208 538 LINE"
);
}
);
width = 300;
}
);
leftKerningGroup = grave;
rightKerningGroup = grave;
unicode = 0060;
},
{
glyphname = hungarumlaut;
lastChange = "2017-04-30 14:19:53 +0000";
layers = (
{
anchors = (
{
name = _top;
position = "{168, 520}";
}
);
associatedMasterId = "4A3087DE-C6CF-4F86-8B90-A264D0797279";
layerId = "284DCAF7-AB20-402F-AEDF-E1CEEB9773D4";
paths = (
{
closed = 1;
nodes = (
"93 604 LINE",
"218 760 LINE",
"112 760 LINE",
"40 604 LINE"
);
},
{
closed = 1;
nodes = (
"249 604 LINE",
"374 760 LINE",
"268 760 LINE",
"196 604 LINE"
);
}
);
width = 414;
},
{
anchors = (
{
name = _top;
position = "{200, 520}";
}
);
associatedMasterId = "4A3087DE-C6CF-4F86-8B90-A264D0797279";
layerId = "005AA5DB-9C20-42D5-964E-7DFE1013E61C";
paths = (
{
closed = 1;
nodes = (
"125 604 LINE",
"286 780 LINE",
"112 780 LINE",
"40 604 LINE"
);
},
{
closed = 1;
nodes = (
"335 604 LINE",
"496 780 LINE",
"322 780 LINE",
"250 604 LINE"
);
}
);
width = 536;
},
{
associatedMasterId = "4A3087DE-C6CF-4F86-8B90-A264D0797279";
layerId = "D3EC50DA-490D-4C50-99CC-6B1C78354A1C";
name = "new Layer";
width = 600;
},
{
anchors = (
{
name = _top;
position = "{125, 450}";
}
);
layerId = "4A3087DE-C6CF-4F86-8B90-A264D0797279";
paths = (
{
closed = 1;
nodes = (
"21 537 LINE SMOOTH",
"28 536 OFFCURVE",
"30 537 OFFCURVE",
"40 549 CURVE SMOOTH",
"169 699 LINE",
"104 699 LINE",
"76 646 OFFCURVE",
"46 593 OFFCURVE",
"13 538 CURVE"
);
},
{
closed = 1;
nodes = (
"142 537 LINE SMOOTH",
"149 536 OFFCURVE",
"151 537 OFFCURVE",
"161 549 CURVE SMOOTH",
"290 699 LINE",
"225 699 LINE",
"197 646 OFFCURVE",
"167 593 OFFCURVE",
"134 538 CURVE"
);
}
);
width = 300;
}
);
leftKerningGroup = hungarumlaut;
rightKerningGroup = hungarumlaut;
unicode = 02DD;
},
{
glyphname = macron;
lastChange = "2017-05-02 09:41:37 +0000";
layers = (
{
anchors = (
{
name = _top;
position = "{145, 520}";
}
);
associatedMasterId = "4A3087DE-C6CF-4F86-8B90-A264D0797279";
layerId = "284DCAF7-AB20-402F-AEDF-E1CEEB9773D4";
paths = (
{
closed = 1;
nodes = (
"250 646 LINE",
"250 702 LINE",
"40 702 LINE",
"40 646 LINE"
);
}
);
width = 290;
},
{
anchors = (
{
name = _top;
position = "{179, 520}";
}
);
associatedMasterId = "4A3087DE-C6CF-4F86-8B90-A264D0797279";
layerId = "005AA5DB-9C20-42D5-964E-7DFE1013E61C";
paths = (
{
closed = 1;
nodes = (
"318 644 LINE",
"318 740 LINE",
"40 740 LINE",
"40 644 LINE"
);
}
);
width = 358;
},
{
associatedMasterId = "4A3087DE-C6CF-4F86-8B90-A264D0797279";
layerId = "D3EC50DA-490D-4C50-99CC-6B1C78354A1C";
name = "new Layer";
width = 600;
},
{
anchors = (
{
name = _top;
position = "{150, 450}";
}
);
layerId = "4A3087DE-C6CF-4F86-8B90-A264D0797279";
paths = (
{
closed = 1;
nodes = (
"75 585 OFFCURVE",
"98 585 OFFCURVE",
"118 585 CURVE SMOOTH",
"245 585 LINE SMOOTH",
"248 585 OFFCURVE",
"252 587 OFFCURVE",
"252 612 CURVE",
"225 610 OFFCURVE",
"202 610 OFFCURVE",
"182 610 CURVE SMOOTH",
"55 610 LINE SMOOTH",
"52 610 OFFCURVE",
"48 608 OFFCURVE",
"48 583 CURVE"
);
}
);
width = 300;
}
);
leftKerningGroup = macron;
rightKerningGroup = macron;
unicode = 00AF;
},
{
glyphname = ogonek;
lastChange = "2017-05-01 11:51:19 +0000";
layers = (
{
anchors = (
{
name = _ogonek;
position = "{216, 0}";
}
);
associatedMasterId = "4A3087DE-C6CF-4F86-8B90-A264D0797279";
layerId = "284DCAF7-AB20-402F-AEDF-E1CEEB9773D4";
paths = (
{
closed = 1;
nodes = (
"146 -165 OFFCURVE",
"122 -145 OFFCURVE",
"122 -106 CURVE SMOOTH",
"122 -62 OFFCURVE",
"147 -21 OFFCURVE",
"216 0 CURVE",
"132 10 LINE",
"82 -10 OFFCURVE",
"40 -65 OFFCURVE",
"40 -118 CURVE SMOOTH",
"40 -186 OFFCURVE",
"88 -220 OFFCURVE",
"147 -220 CURVE SMOOTH",
"175 -220 OFFCURVE",
"197 -213 OFFCURVE",
"220 -197 CURVE",
"225 -156 LINE",
"209 -162 OFFCURVE",
"194 -165 OFFCURVE",
"181 -165 CURVE SMOOTH"
);
}
);
width = 265;
},
{
anchors = (
{
name = _ogonek;
position = "{295, 0}";
}
);
associatedMasterId = "4A3087DE-C6CF-4F86-8B90-A264D0797279";
layerId = "005AA5DB-9C20-42D5-964E-7DFE1013E61C";
paths = (
{
closed = 1;
nodes = (
"185 -131 OFFCURVE",
"154 -107 OFFCURVE",
"154 -71 CURVE SMOOTH",
"154 -27 OFFCURVE",
"183 0 OFFCURVE",
"246 0 CURVE",
"123 8 LINE",
"64 -11 OFFCURVE",
"40 -60 OFFCURVE",
"40 -109 CURVE SMOOTH",
"40 -188 OFFCURVE",
"98 -220 OFFCURVE",
"160 -220 CURVE SMOOTH",
"219 -220 OFFCURVE",
"250 -212 OFFCURVE",
"285 -195 CURVE",
"290 -123 LINE",
"272 -129 OFFCURVE",
"254 -131 OFFCURVE",
"234 -131 CURVE SMOOTH"
);
}
);
width = 330;
},
{
associatedMasterId = "4A3087DE-C6CF-4F86-8B90-A264D0797279";
layerId = "D3EC50DA-490D-4C50-99CC-6B1C78354A1C";
name = "new Layer";
width = 600;
},
{
anchors = (
{
name = _ogonek;
position = "{232, 0}";
}
);
layerId = "4A3087DE-C6CF-4F86-8B90-A264D0797279";
paths = (
{
closed = 1;
nodes = (
"145 -202 OFFCURVE",
"120 -181 OFFCURVE",
"120 -126 CURVE SMOOTH",
"120 -62 OFFCURVE",
"168 -15 OFFCURVE",
"232 12 CURVE",
"209 19 LINE",
"131 -7 OFFCURVE",
"64 -70 OFFCURVE",
"64 -137 CURVE SMOOTH",
"64 -198 OFFCURVE",
"105 -228 OFFCURVE",
"147 -228 CURVE SMOOTH",
"185 -228 OFFCURVE",
"208 -217 OFFCURVE",
"231 -198 CURVE",
"224 -187 LINE",
"205 -198 OFFCURVE",
"190 -202 OFFCURVE",
"173 -202 CURVE SMOOTH"
);
}
);
width = 300;
}
);
leftKerningGroup = ogonek;
rightKerningGroup = ogonek;
unicode = 02DB;
},
{
glyphname = ring;
lastChange = "2017-04-30 14:15:33 +0000";
layers = (
{
anchors = (
{
name = _top;
position = "{142, 520}";
}
);
associatedMasterId = "4A3087DE-C6CF-4F86-8B90-A264D0797279";
layerId = "284DCAF7-AB20-402F-AEDF-E1CEEB9773D4";
paths = (
{
closed = 1;
nodes = (
"200 580 OFFCURVE",
"244 615 OFFCURVE",
"244 670 CURVE SMOOTH",
"244 725 OFFCURVE",
"200 760 OFFCURVE",
"142 760 CURVE SMOOTH",
"84 760 OFFCURVE",
"40 725 OFFCURVE",
"40 670 CURVE SMOOTH",
"40 615 OFFCURVE",
"84 580 OFFCURVE",
"142 580 CURVE SMOOTH"
);
},
{
closed = 1;
nodes = (
"115 622 OFFCURVE",
"94 639 OFFCURVE",
"94 670 CURVE SMOOTH",
"94 701 OFFCURVE",
"115 718 OFFCURVE",
"142 718 CURVE SMOOTH",
"169 718 OFFCURVE",
"190 701 OFFCURVE",
"190 670 CURVE SMOOTH",
"190 639 OFFCURVE",
"169 622 OFFCURVE",
"142 622 CURVE SMOOTH"
);
}
);
width = 284;
},
{
anchors = (
{
name = _top;
position = "{152, 520}";
}
);
associatedMasterId = "4A3087DE-C6CF-4F86-8B90-A264D0797279";
layerId = "005AA5DB-9C20-42D5-964E-7DFE1013E61C";
paths = (
{
closed = 1;
nodes = (
"219 590 OFFCURVE",
"264 632 OFFCURVE",
"264 692 CURVE SMOOTH",
"264 752 OFFCURVE",
"219 794 OFFCURVE",
"152 794 CURVE SMOOTH",
"85 794 OFFCURVE",
"40 752 OFFCURVE",
"40 692 CURVE SMOOTH",
"40 632 OFFCURVE",
"85 590 OFFCURVE",
"152 590 CURVE SMOOTH"
);
},
{
closed = 1;
nodes = (
"128 645 OFFCURVE",
"112 662 OFFCURVE",
"112 692 CURVE SMOOTH",
"112 721 OFFCURVE",
"128 739 OFFCURVE",
"152 739 CURVE SMOOTH",
"176 739 OFFCURVE",
"192 721 OFFCURVE",
"192 692 CURVE SMOOTH",
"192 662 OFFCURVE",
"176 645 OFFCURVE",
"152 645 CURVE SMOOTH"
);
}
);
width = 304;
},
{
associatedMasterId = "4A3087DE-C6CF-4F86-8B90-A264D0797279";
layerId = "D3EC50DA-490D-4C50-99CC-6B1C78354A1C";
name = "new Layer";
width = 600;
},
{
anchors = (
{
name = _top;
position = "{150, 450}";
}
);
layerId = "4A3087DE-C6CF-4F86-8B90-A264D0797279";
paths = (
{
closed = 1;
nodes = (
"205 525 OFFCURVE",
"250 561 OFFCURVE",
"250 610 CURVE SMOOTH",
"250 659 OFFCURVE",
"205 695 OFFCURVE",
"150 695 CURVE SMOOTH",
"94 695 OFFCURVE",
"50 659 OFFCURVE",
"50 610 CURVE SMOOTH",
"50 561 OFFCURVE",
"94 525 OFFCURVE",
"150 525 CURVE SMOOTH"
);
},
{
closed = 1;
nodes = (
"110 546 OFFCURVE",
"85 572 OFFCURVE",
"85 610 CURVE SMOOTH",
"85 648 OFFCURVE",
"110 674 OFFCURVE",
"150 674 CURVE SMOOTH",
"189 674 OFFCURVE",
"215 648 OFFCURVE",
"215 610 CURVE SMOOTH",
"215 572 OFFCURVE",
"189 546 OFFCURVE",
"150 546 CURVE SMOOTH"
);
}
);
width = 300;
}
);
leftKerningGroup = ring;
rightKerningGroup = ring;
unicode = 02DA;
},
{
glyphname = tilde;
lastChange = "2017-04-30 14:14:15 +0000";
layers = (
{
anchors = (
{
name = _top;
position = "{196, 520}";
}
);
associatedMasterId = "4A3087DE-C6CF-4F86-8B90-A264D0797279";
layerId = "284DCAF7-AB20-402F-AEDF-E1CEEB9773D4";
paths = (
{
closed = 1;
nodes = (
"303 739 LINE",
"298 696 OFFCURVE",
"289 683 OFFCURVE",
"267 683 CURVE SMOOTH",
"255 683 OFFCURVE",
"245 685 OFFCURVE",
"204 705 CURVE SMOOTH",
"157 728 OFFCURVE",
"141 733 OFFCURVE",
"119 733 CURVE SMOOTH",
"70 733 OFFCURVE",
"45 692 OFFCURVE",
"40 613 CURVE",
"89 608 LINE",
"94 651 OFFCURVE",
"103 664 OFFCURVE",
"125 664 CURVE SMOOTH",
"137 664 OFFCURVE",
"147 662 OFFCURVE",
"188 642 CURVE SMOOTH",
"235 619 OFFCURVE",
"251 614 OFFCURVE",
"273 614 CURVE SMOOTH",
"322 614 OFFCURVE",
"347 655 OFFCURVE",
"352 734 CURVE"
);
}
);
width = 392;
},
{
anchors = (
{
name = _top;
position = "{219, 520}";
}
);
associatedMasterId = "4A3087DE-C6CF-4F86-8B90-A264D0797279";
layerId = "005AA5DB-9C20-42D5-964E-7DFE1013E61C";
paths = (
{
closed = 1;
nodes = (
"297 781 LINE",
"287 736 OFFCURVE",
"278 722 OFFCURVE",
"263 722 CURVE SMOOTH",
"253 722 OFFCURVE",
"238 730 OFFCURVE",
"212 746 CURVE SMOOTH",
"176 768 OFFCURVE",
"155 775 OFFCURVE",
"132 775 CURVE SMOOTH",
"77 775 OFFCURVE",
"44 723 OFFCURVE",
"40 613 CURVE",
"117 604 LINE",
"127 650 OFFCURVE",
"136 662 OFFCURVE",
"150 662 CURVE SMOOTH",
"161 662 OFFCURVE",
"175 655 OFFCURVE",
"202 639 CURVE SMOOTH",
"239 617 OFFCURVE",
"259 610 OFFCURVE",
"282 610 CURVE SMOOTH",
"337 610 OFFCURVE",
"370 662 OFFCURVE",
"374 772 CURVE"
);
}
);
width = 414;
},
{
associatedMasterId = "4A3087DE-C6CF-4F86-8B90-A264D0797279";
layerId = "D3EC50DA-490D-4C50-99CC-6B1C78354A1C";
name = "new Layer";
width = 600;
},
{
anchors = (
{
name = _top;
position = "{150, 450}";
}
);
layerId = "4A3087DE-C6CF-4F86-8B90-A264D0797279";
paths = (
{
closed = 1;
nodes = (
"150 620 LINE",
"114 641 OFFCURVE",
"99 645 OFFCURVE",
"85 645 CURVE SMOOTH",
"54 645 OFFCURVE",
"36 616 OFFCURVE",
"22 554 CURVE",
"38 551 LINE",
"50 592 OFFCURVE",
"59 606 OFFCURVE",
"79 606 CURVE SMOOTH",
"93 606 OFFCURVE",
"105 601 OFFCURVE",
"150 575 CURVE"
);
},
{
closed = 1;
nodes = (
"150 575 LINE",
"186 554 OFFCURVE",
"203 550 OFFCURVE",
"217 550 CURVE SMOOTH",
"248 550 OFFCURVE",
"264 579 OFFCURVE",
"278 641 CURVE",
"262 644 LINE",
"250 603 OFFCURVE",
"241 589 OFFCURVE",
"221 589 CURVE SMOOTH",
"207 589 OFFCURVE",
"195 594 OFFCURVE",
"150 620 CURVE"
);
}
);
width = 300;
}
);
leftKerningGroup = tilde;
rightKerningGroup = tilde;
unicode = 02DC;
},
{
glyphname = acute.cap;
lastChange = "2017-05-04 00:36:18 +0000";
layers = (
{
anchors = (
{
name = _top;
position = "{145, 650}";
}
);
layerId = "4A3087DE-C6CF-4F86-8B90-A264D0797279";
paths = (
{
closed = 1;
nodes = (
"90 697 LINE SMOOTH",
"97 696 OFFCURVE",
"104 698 OFFCURVE",
"116 709 CURVE SMOOTH",
"258 839 LINE",
"193 839 LINE",
"162 798 OFFCURVE",
"135 764 OFFCURVE",
"82 698 CURVE"
);
}
);
width = 300;
},
{
anchors = (
{
name = _top;
position = "{79, 740}";
}
);
associatedMasterId = "4A3087DE-C6CF-4F86-8B90-A264D0797279";
layerId = "284DCAF7-AB20-402F-AEDF-E1CEEB9773D4";
paths = (
{
closed = 1;
nodes = (
"100 799 LINE",
"230 935 LINE",
"122 935 LINE",
"40 799 LINE"
);
}
);
width = 270;
},
{
anchors = (
{
name = _top;
position = "{81, 740}";
}
);
associatedMasterId = "4A3087DE-C6CF-4F86-8B90-A264D0797279";
layerId = "005AA5DB-9C20-42D5-964E-7DFE1013E61C";
paths = (
{
closed = 1;
nodes = (
"134 799 LINE",
"305 955 LINE",
"122 955 LINE",
"40 799 LINE"
);
}
);
width = 345;
}
);
},
{
glyphname = breve.cap;
lastChange = "2017-05-04 00:36:24 +0000";
layers = (
{
anchors = (
{
name = _top;
position = "{151, 650}";
}
);
layerId = "4A3087DE-C6CF-4F86-8B90-A264D0797279";
paths = (
{
closed = 1;
nodes = (
"150 741 LINE",
"84 741 OFFCURVE",
"46 765 OFFCURVE",
"49 830 CURVE",
"36 830 LINE",
"32 821 OFFCURVE",
"31 810 OFFCURVE",
"31 800 CURVE SMOOTH",
"31 741 OFFCURVE",
"76 693 OFFCURVE",
"150 693 CURVE"
);
},
{
closed = 1;
nodes = (
"224 693 OFFCURVE",
"269 741 OFFCURVE",
"269 800 CURVE SMOOTH",
"269 810 OFFCURVE",
"268 821 OFFCURVE",
"264 830 CURVE",
"251 830 LINE",
"254 765 OFFCURVE",
"216 741 OFFCURVE",
"150 741 CURVE",
"150 693 LINE"
);
}
);
width = 300;
},
{
anchors = (
{
name = _top;
position = "{169, 740}";
}
);
associatedMasterId = "4A3087DE-C6CF-4F86-8B90-A264D0797279";
layerId = "284DCAF7-AB20-402F-AEDF-E1CEEB9773D4";
paths = (
{
closed = 1;
nodes = (
"255 786 OFFCURVE",
"307 843 OFFCURVE",
"297 935 CURVE",
"237 935 LINE",
"239 889 OFFCURVE",
"214 858 OFFCURVE",
"169 858 CURVE SMOOTH",
"124 858 OFFCURVE",
"99 889 OFFCURVE",
"101 935 CURVE",
"41 935 LINE",
"31 843 OFFCURVE",
"82 786 OFFCURVE",
"169 786 CURVE SMOOTH"
);
}
);
width = 338;
},
{
anchors = (
{
name = _top;
position = "{189, 740}";
}
);
associatedMasterId = "4A3087DE-C6CF-4F86-8B90-A264D0797279";
layerId = "005AA5DB-9C20-42D5-964E-7DFE1013E61C";
paths = (
{
closed = 1;
nodes = (
"290 786 OFFCURVE",
"350 841 OFFCURVE",
"336 955 CURVE",
"250 955 LINE",
"253 909 OFFCURVE",
"232 892 OFFCURVE",
"189 892 CURVE SMOOTH",
"146 892 OFFCURVE",
"125 909 OFFCURVE",
"128 955 CURVE",
"42 955 LINE",
"28 841 OFFCURVE",
"87 786 OFFCURVE",
"189 786 CURVE SMOOTH"
);
}
);
width = 378;
}
);
},
{
glyphname = caron.cap;
lastChange = "2017-05-03 22:16:47 +0000";
layers = (
{
anchors = (
{
name = _top;
position = "{148, 650}";
}
);
layerId = "4A3087DE-C6CF-4F86-8B90-A264D0797279";
paths = (
{
closed = 1;
nodes = (
"261 818 LINE",
"139 739 LINE",
"163 739 LINE",
"41 818 LINE",
"32 809 LINE",
"146 692 LINE",
"154 692 LINE",
"268 809 LINE"
);
}
);
width = 300;
},
{
anchors = (
{
name = _top;
position = "{185, 740}";
}
);
associatedMasterId = "4A3087DE-C6CF-4F86-8B90-A264D0797279";
layerId = "284DCAF7-AB20-402F-AEDF-E1CEEB9773D4";
paths = (
{
closed = 1;
nodes = (
"224 799 LINE",
"323 935 LINE",
"256 935 LINE",
"164 837 LINE",
"198 837 LINE",
"106 935 LINE",
"40 935 LINE",
"139 799 LINE"
);
}
);
width = 363;
},
{
anchors = (
{
name = _top;
position = "{210, 740}";
}
);
associatedMasterId = "4A3087DE-C6CF-4F86-8B90-A264D0797279";
layerId = "005AA5DB-9C20-42D5-964E-7DFE1013E61C";
paths = (
{
closed = 1;
nodes = (
"276 799 LINE",
"380 955 LINE",
"281 955 LINE",
"192 860 LINE",
"228 860 LINE",
"149 955 LINE",
"40 955 LINE",
"144 799 LINE"
);
}
);
width = 420;
}
);
},
{
glyphname = circumflex.cap;
lastChange = "2017-05-03 22:16:49 +0000";
layers = (
{
anchors = (
{
name = _top;
position = "{148, 650}";
}
);
layerId = "4A3087DE-C6CF-4F86-8B90-A264D0797279";
paths = (
{
closed = 1;
nodes = (
"39 694 LINE",
"161 773 LINE",
"137 773 LINE",
"259 694 LINE",
"268 703 LINE",
"154 820 LINE",
"146 820 LINE",
"32 703 LINE"
);
}
);
width = 300;
},
{
anchors = (
{
name = _top;
position = "{185, 740}";
}
);
associatedMasterId = "4A3087DE-C6CF-4F86-8B90-A264D0797279";
layerId = "284DCAF7-AB20-402F-AEDF-E1CEEB9773D4";
paths = (
{
closed = 1;
nodes = (
"107 799 LINE",
"199 897 LINE",
"165 897 LINE",
"257 799 LINE",
"323 799 LINE",
"224 935 LINE",
"139 935 LINE",
"40 799 LINE"
);
}
);
width = 363;
},
{
anchors = (
{
name = _top;
position = "{210, 740}";
}
);
associatedMasterId = "4A3087DE-C6CF-4F86-8B90-A264D0797279";
layerId = "005AA5DB-9C20-42D5-964E-7DFE1013E61C";
paths = (
{
closed = 1;
nodes = (
"139 799 LINE",
"228 894 LINE",
"192 894 LINE",
"271 799 LINE",
"380 799 LINE",
"276 955 LINE",
"144 955 LINE",
"40 799 LINE"
);
}
);
width = 420;
}
);
},
{
glyphname = dieresis.cap;
lastChange = "2017-05-03 22:16:52 +0000";
layers = (
{
anchors = (
{
name = _top;
position = "{150, 650}";
}
);
layerId = "4A3087DE-C6CF-4F86-8B90-A264D0797279";
paths = (
{
closed = 1;
nodes = (
"110 711 OFFCURVE",
"128 729 OFFCURVE",
"128 751 CURVE SMOOTH",
"128 773 OFFCURVE",
"110 791 OFFCURVE",
"88 791 CURVE SMOOTH",
"66 791 OFFCURVE",
"48 773 OFFCURVE",
"48 751 CURVE SMOOTH",
"48 729 OFFCURVE",
"66 711 OFFCURVE",
"88 711 CURVE SMOOTH"
);
},
{
closed = 1;
nodes = (
"234 711 OFFCURVE",
"252 729 OFFCURVE",
"252 751 CURVE SMOOTH",
"252 773 OFFCURVE",
"234 791 OFFCURVE",
"212 791 CURVE SMOOTH",
"190 791 OFFCURVE",
"172 773 OFFCURVE",
"172 751 CURVE SMOOTH",
"172 729 OFFCURVE",
"190 711 OFFCURVE",
"212 711 CURVE SMOOTH"
);
}
);
width = 300;
},
{
anchors = (
{
name = _top;
position = "{164, 740}";
}
);
associatedMasterId = "4A3087DE-C6CF-4F86-8B90-A264D0797279";
layerId = "284DCAF7-AB20-402F-AEDF-E1CEEB9773D4";
paths = (
{
closed = 1;
nodes = (
"222 816 OFFCURVE",
"266 816 OFFCURVE",
"288 822 CURVE",
"288 903 LINE",
"266 909 OFFCURVE",
"222 909 OFFCURVE",
"200 903 CURVE",
"200 822 LINE"
);
},
{
closed = 1;
nodes = (
"62 816 OFFCURVE",
"106 816 OFFCURVE",
"128 822 CURVE",
"128 903 LINE",
"106 909 OFFCURVE",
"62 909 OFFCURVE",
"40 903 CURVE",
"40 822 LINE"
);
}
);
width = 328;
},
{
anchors = (
{
name = _top;
position = "{245, 740}";
}
);
associatedMasterId = "4A3087DE-C6CF-4F86-8B90-A264D0797279";
layerId = "005AA5DB-9C20-42D5-964E-7DFE1013E61C";
paths = (
{
closed = 1;
nodes = (
"327 793 OFFCURVE",
"408 793 OFFCURVE",
"450 800 CURVE",
"450 954 LINE",
"408 961 OFFCURVE",
"327 961 OFFCURVE",
"285 954 CURVE",
"285 800 LINE"
);
},
{
closed = 1;
nodes = (
"82 793 OFFCURVE",
"163 793 OFFCURVE",
"205 800 CURVE",
"205 954 LINE",
"163 961 OFFCURVE",
"82 961 OFFCURVE",
"40 954 CURVE",
"40 800 LINE"
);
}
);
width = 490;
}
);
},
{
glyphname = dotaccent.cap;
lastChange = "2017-05-03 22:16:56 +0000";
layers = (
{
anchors = (
{
name = _top;
position = "{150, 650}";
}
);
layerId = "4A3087DE-C6CF-4F86-8B90-A264D0797279";
paths = (
{
closed = 1;
nodes = (
"172 711 OFFCURVE",
"190 729 OFFCURVE",
"190 751 CURVE SMOOTH",
"190 773 OFFCURVE",
"172 791 OFFCURVE",
"150 791 CURVE SMOOTH",
"128 791 OFFCURVE",
"110 773 OFFCURVE",
"110 751 CURVE SMOOTH",
"110 729 OFFCURVE",
"128 711 OFFCURVE",
"150 711 CURVE SMOOTH"
);
}
);
width = 300;
},
{
anchors = (
{
name = _top;
position = "{84, 740}";
}
);
associatedMasterId = "4A3087DE-C6CF-4F86-8B90-A264D0797279";
layerId = "284DCAF7-AB20-402F-AEDF-E1CEEB9773D4";
paths = (
{
closed = 1;
nodes = (
"62 816 OFFCURVE",
"106 816 OFFCURVE",
"128 822 CURVE",
"128 903 LINE",
"106 909 OFFCURVE",
"62 909 OFFCURVE",
"40 903 CURVE",
"40 822 LINE"
);
}
);
width = 168;
},
{
anchors = (
{
name = _top;
position = "{130, 740}";
}
);
associatedMasterId = "4A3087DE-C6CF-4F86-8B90-A264D0797279";
layerId = "005AA5DB-9C20-42D5-964E-7DFE1013E61C";
paths = (
{
closed = 1;
nodes = (
"82 793 OFFCURVE",
"178 793 OFFCURVE",
"220 800 CURVE",
"220 954 LINE",
"178 961 OFFCURVE",
"82 961 OFFCURVE",
"40 954 CURVE",
"40 800 LINE"
);
}
);
width = 260;
}
);
},
{
glyphname = grave.cap;
lastChange = "2017-05-04 00:36:15 +0000";
layers = (
{
anchors = (
{
name = _top;
position = "{150, 650}";
}
);
layerId = "4A3087DE-C6CF-4F86-8B90-A264D0797279";
paths = (
{
closed = 1;
nodes = (
"165 764 OFFCURVE",
"138 798 OFFCURVE",
"107 839 CURVE",
"42 839 LINE",
"184 709 LINE SMOOTH",
"196 698 OFFCURVE",
"203 696 OFFCURVE",
"210 697 CURVE SMOOTH",
"218 698 LINE"
);
}
);
width = 300;
},
{
anchors = (
{
name = _top;
position = "{191, 740}";
}
);
associatedMasterId = "4A3087DE-C6CF-4F86-8B90-A264D0797279";
layerId = "284DCAF7-AB20-402F-AEDF-E1CEEB9773D4";
paths = (
{
closed = 1;
nodes = (
"148 935 LINE",
"40 935 LINE",
"170 799 LINE",
"230 799 LINE"
);
}
);
width = 270;
},
{
anchors = (
{
name = _top;
position = "{253, 740}";
}
);
associatedMasterId = "4A3087DE-C6CF-4F86-8B90-A264D0797279";
layerId = "005AA5DB-9C20-42D5-964E-7DFE1013E61C";
paths = (
{
closed = 1;
nodes = (
"223 955 LINE",
"40 955 LINE",
"211 799 LINE",
"305 799 LINE"
);
}
);
width = 345;
}
);
},
{
glyphname = hungarumlaut.cap;
lastChange = "2017-05-04 09:56:41 +0000";
layers = (
{
anchors = (
{
name = _top;
position = "{135, 650}";
}
);
layerId = "4A3087DE-C6CF-4F86-8B90-A264D0797279";
paths = (
{
closed = 1;
nodes = (
"20 697 LINE SMOOTH",
"27 696 OFFCURVE",
"34 698 OFFCURVE",
"46 709 CURVE SMOOTH",
"188 839 LINE",
"123 839 LINE",
"92 798 OFFCURVE",
"65 764 OFFCURVE",
"12 698 CURVE"
);
},
{
closed = 1;
nodes = (
"140 697 LINE SMOOTH",
"147 696 OFFCURVE",
"154 698 OFFCURVE",
"166 709 CURVE SMOOTH",
"308 839 LINE",
"243 839 LINE",
"212 798 OFFCURVE",
"185 764 OFFCURVE",
"132 698 CURVE"
);
}
);
width = 300;
},
{
anchors = (
{
name = _top;
position = "{168, 740}";
}
);
associatedMasterId = "4A3087DE-C6CF-4F86-8B90-A264D0797279";
layerId = "284DCAF7-AB20-402F-AEDF-E1CEEB9773D4";
paths = (
{
closed = 1;
nodes = (
"100 799 LINE",
"230 935 LINE",
"122 935 LINE",
"40 799 LINE"
);
},
{
closed = 1;
nodes = (
"258 799 LINE",
"388 935 LINE",
"280 935 LINE",
"198 799 LINE"
);
}
);
width = 428;
},
{
anchors = (
{
name = _top;
position = "{216, 740}";
}
);
associatedMasterId = "4A3087DE-C6CF-4F86-8B90-A264D0797279";
layerId = "005AA5DB-9C20-42D5-964E-7DFE1013E61C";
paths = (
{
closed = 1;
nodes = (
"134 799 LINE",
"305 955 LINE",
"122 955 LINE",
"40 799 LINE"
);
},
{
closed = 1;
nodes = (
"365 799 LINE",
"536 955 LINE",
"353 955 LINE",
"271 799 LINE"
);
}
);
width = 576;
}
);
},
{
glyphname = macron.cap;
lastChange = "2017-05-03 22:17:03 +0000";
layers = (
{
anchors = (
{
name = _top;
position = "{150, 650}";
}
);
layerId = "4A3087DE-C6CF-4F86-8B90-A264D0797279";
paths = (
{
closed = 1;
nodes = (
"75 747 OFFCURVE",
"98 747 OFFCURVE",
"118 747 CURVE SMOOTH",
"245 747 LINE SMOOTH",
"248 747 OFFCURVE",
"252 749 OFFCURVE",
"252 774 CURVE",
"225 772 OFFCURVE",
"202 772 OFFCURVE",
"182 772 CURVE SMOOTH",
"55 772 LINE SMOOTH",
"52 772 OFFCURVE",
"48 770 OFFCURVE",
"48 745 CURVE"
);
}
);
width = 300;
},
{
anchors = (
{
name = _top;
position = "{155, 740}";
}
);
associatedMasterId = "4A3087DE-C6CF-4F86-8B90-A264D0797279";
layerId = "284DCAF7-AB20-402F-AEDF-E1CEEB9773D4";
paths = (
{
closed = 1;
nodes = (
"270 842 LINE",
"270 902 LINE",
"40 902 LINE",
"40 842 LINE"
);
}
);
width = 310;
},
{
anchors = (
{
name = _top;
position = "{189, 740}";
}
);
associatedMasterId = "4A3087DE-C6CF-4F86-8B90-A264D0797279";
layerId = "005AA5DB-9C20-42D5-964E-7DFE1013E61C";
paths = (
{
closed = 1;
nodes = (
"338 829 LINE",
"338 925 LINE",
"40 925 LINE",
"40 829 LINE"
);
}
);
width = 378;
}
);
},
{
glyphname = ring.cap;
lastChange = "2017-05-03 22:19:36 +0000";
layers = (
{
anchors = (
{
name = _top;
position = "{150, 650}";
}
);
layerId = "4A3087DE-C6CF-4F86-8B90-A264D0797279";
paths = (
{
closed = 1;
nodes = (
"205 685 OFFCURVE",
"250 718 OFFCURVE",
"250 765 CURVE SMOOTH",
"250 812 OFFCURVE",
"205 845 OFFCURVE",
"150 845 CURVE SMOOTH",
"94 845 OFFCURVE",
"50 812 OFFCURVE",
"50 765 CURVE SMOOTH",
"50 718 OFFCURVE",
"94 685 OFFCURVE",
"150 685 CURVE SMOOTH"
);
},
{
closed = 1;
nodes = (
"108 706 OFFCURVE",
"85 732 OFFCURVE",
"85 765 CURVE SMOOTH",
"85 798 OFFCURVE",
"108 824 OFFCURVE",
"150 824 CURVE SMOOTH",
"191 824 OFFCURVE",
"215 798 OFFCURVE",
"215 765 CURVE SMOOTH",
"215 732 OFFCURVE",
"191 706 OFFCURVE",
"150 706 CURVE SMOOTH"
);
}
);
width = 300;
},
{
anchors = (
{
name = _top;
position = "{144, 740}";
}
);
associatedMasterId = "4A3087DE-C6CF-4F86-8B90-A264D0797279";
layerId = "284DCAF7-AB20-402F-AEDF-E1CEEB9773D4";
paths = (
{
closed = 1;
nodes = (
"202 777 OFFCURVE",
"248 812 OFFCURVE",
"248 864 CURVE SMOOTH",
"248 916 OFFCURVE",
"202 951 OFFCURVE",
"144 951 CURVE SMOOTH",
"86 951 OFFCURVE",
"40 916 OFFCURVE",
"40 864 CURVE SMOOTH",
"40 812 OFFCURVE",
"86 777 OFFCURVE",
"144 777 CURVE SMOOTH"
);
},
{
closed = 1;
nodes = (
"117 819 OFFCURVE",
"96 836 OFFCURVE",
"96 864 CURVE SMOOTH",
"96 892 OFFCURVE",
"117 909 OFFCURVE",
"144 909 CURVE SMOOTH",
"171 909 OFFCURVE",
"192 892 OFFCURVE",
"192 864 CURVE SMOOTH",
"192 836 OFFCURVE",
"171 819 OFFCURVE",
"144 819 CURVE SMOOTH"
);
}
);
width = 288;
},
{
anchors = (
{
name = _top;
position = "{154, 740}";
}
);
associatedMasterId = "4A3087DE-C6CF-4F86-8B90-A264D0797279";
layerId = "005AA5DB-9C20-42D5-964E-7DFE1013E61C";
paths = (
{
closed = 1;
nodes = (
"221 777 OFFCURVE",
"268 817 OFFCURVE",
"268 877 CURVE SMOOTH",
"268 937 OFFCURVE",
"221 977 OFFCURVE",
"154 977 CURVE SMOOTH",
"87 977 OFFCURVE",
"40 937 OFFCURVE",
"40 877 CURVE SMOOTH",
"40 817 OFFCURVE",
"87 777 OFFCURVE",
"154 777 CURVE SMOOTH"
);
},
{
closed = 1;
nodes = (
"129 834 OFFCURVE",
"112 850 OFFCURVE",
"112 877 CURVE SMOOTH",
"112 903 OFFCURVE",
"129 920 OFFCURVE",
"154 920 CURVE SMOOTH",
"179 920 OFFCURVE",
"196 903 OFFCURVE",
"196 877 CURVE SMOOTH",
"196 850 OFFCURVE",
"179 834 OFFCURVE",
"154 834 CURVE SMOOTH"
);
}
);
width = 308;
}
);
},
{
glyphname = tilde.cap;
lastChange = "2017-05-03 22:17:38 +0000";
layers = (
{
anchors = (
{
name = _top;
position = "{150, 650}";
}
);
layerId = "4A3087DE-C6CF-4F86-8B90-A264D0797279";
paths = (
{
closed = 1;
nodes = (
"260 783 OFFCURVE",
"251 771 OFFCURVE",
"231 771 CURVE SMOOTH",
"217 771 OFFCURVE",
"205 775 OFFCURVE",
"150 800 CURVE SMOOTH",
"104 821 OFFCURVE",
"89 825 OFFCURVE",
"75 825 CURVE SMOOTH",
"44 825 OFFCURVE",
"26 796 OFFCURVE",
"12 734 CURVE",
"28 731 LINE",
"40 772 OFFCURVE",
"49 784 OFFCURVE",
"69 784 CURVE SMOOTH",
"83 784 OFFCURVE",
"95 780 OFFCURVE",
"150 755 CURVE SMOOTH",
"196 734 OFFCURVE",
"213 730 OFFCURVE",
"227 730 CURVE SMOOTH",
"258 730 OFFCURVE",
"274 759 OFFCURVE",
"288 821 CURVE",
"272 824 LINE"
);
}
);
width = 300;
},
{
anchors = (
{
name = _top;
position = "{196, 740}";
}
);
associatedMasterId = "4A3087DE-C6CF-4F86-8B90-A264D0797279";
layerId = "284DCAF7-AB20-402F-AEDF-E1CEEB9773D4";
paths = (
{
closed = 1;
nodes = (
"303 927 LINE",
"298 884 OFFCURVE",
"289 871 OFFCURVE",
"267 871 CURVE SMOOTH",
"255 871 OFFCURVE",
"245 873 OFFCURVE",
"204 893 CURVE SMOOTH",
"157 916 OFFCURVE",
"141 921 OFFCURVE",
"119 921 CURVE SMOOTH",
"70 921 OFFCURVE",
"45 880 OFFCURVE",
"40 801 CURVE",
"89 796 LINE",
"94 839 OFFCURVE",
"103 852 OFFCURVE",
"125 852 CURVE SMOOTH",
"137 852 OFFCURVE",
"147 850 OFFCURVE",
"188 830 CURVE SMOOTH",
"235 807 OFFCURVE",
"251 802 OFFCURVE",
"273 802 CURVE SMOOTH",
"322 802 OFFCURVE",
"347 843 OFFCURVE",
"352 922 CURVE"
);
}
);
width = 392;
},
{
anchors = (
{
name = _top;
position = "{207, 740}";
}
);
associatedMasterId = "4A3087DE-C6CF-4F86-8B90-A264D0797279";
layerId = "005AA5DB-9C20-42D5-964E-7DFE1013E61C";
paths = (
{
closed = 1;
nodes = (
"297 968 LINE",
"287 923 OFFCURVE",
"278 909 OFFCURVE",
"263 909 CURVE SMOOTH",
"253 909 OFFCURVE",
"238 917 OFFCURVE",
"212 933 CURVE SMOOTH",
"176 955 OFFCURVE",
"155 962 OFFCURVE",
"132 962 CURVE SMOOTH",
"77 962 OFFCURVE",
"44 910 OFFCURVE",
"40 800 CURVE",
"117 791 LINE",
"127 837 OFFCURVE",
"136 849 OFFCURVE",
"150 849 CURVE SMOOTH",
"161 849 OFFCURVE",
"175 842 OFFCURVE",
"202 826 CURVE SMOOTH",
"239 804 OFFCURVE",
"259 797 OFFCURVE",
"282 797 CURVE SMOOTH",
"337 797 OFFCURVE",
"370 849 OFFCURVE",
"374 959 CURVE"
);
}
);
width = 414;
}
);
},
{
export = 0;
glyphname = _cap.stm.top.1;
lastChange = "2017-05-10 12:23:50 +0000";
layers = (
{
layerId = "4A3087DE-C6CF-4F86-8B90-A264D0797279";
paths = (
{
closed = 0;
nodes = (
"0 347 LINE",
"0 76 OFFCURVE",
"-3 39 OFFCURVE",
"-9 -7 CURVE",
"-5 -10 LINE",
"33 2 OFFCURVE",
"71 12 OFFCURVE",
"99 18 CURVE",
"102 37 LINE",
"90 36 OFFCURVE",
"80 35 OFFCURVE",
"70 35 CURVE SMOOTH",
"62 35 OFFCURVE",
"58 39 OFFCURVE",
"57 58 CURVE SMOOTH",
"55 100 OFFCURVE",
"54 152 OFFCURVE",
"54 347 CURVE SMOOTH"
);
}
);
width = 271;
},
{
associatedMasterId = "4A3087DE-C6CF-4F86-8B90-A264D0797279";
layerId = "A2153CE8-20FB-4A28-B7D0-0A4EE6DB7F21";
name = "Regular May 9 15, 21:38";
paths = (
{
closed = 0;
nodes = (
"0 375 LINE",
"0 173 OFFCURVE",
"-13 44 OFFCURVE",
"-53 3 CURVE",
"-39 -5 OFFCURVE",
"-20 -8 OFFCURVE",
"-5 -8 CURVE SMOOTH",
"34 -8 OFFCURVE",
"65 -4 OFFCURVE",
"71 82 CURVE SMOOTH",
"75 141 OFFCURVE",
"76 291 OFFCURVE",
"76 375 CURVE"
);
}
);
width = 271;
}
);
},
{
export = 0;
glyphname = _shoulder.1;
lastChange = "2017-04-01 22:32:50 +0000";
layers = (
{
anchors = (
{
name = entry;
position = "{155, 0}";
}
);
hints = (
{
origin = "{0, 13}";
target = "{0, 14}";
type = Cap;
name = _cap.stm.btm.3;
}
);
layerId = "4A3087DE-C6CF-4F86-8B90-A264D0797279";
paths = (
{
closed = 1;
nodes = (
"239 464 OFFCURVE",
"179 442 OFFCURVE",
"127 388 CURVE",
"155 343 LINE",
"155 404 OFFCURVE",
"216 431 OFFCURVE",
"268 431 CURVE SMOOTH",
"321 431 OFFCURVE",
"353 414 OFFCURVE",
"373 381 CURVE SMOOTH",
"392 350 OFFCURVE",
"403 313 OFFCURVE",
"403 242 CURVE SMOOTH",
"403 0 LINE",
"457 0 LINE",
"457 261 LINE SMOOTH",
"457 306 OFFCURVE",
"453 347 OFFCURVE",
"442 377 CURVE SMOOTH",
"419 439 OFFCURVE",
"378 464 OFFCURVE",
"304 464 CURVE SMOOTH"
);
}
);
width = 545;
}
);
},
{
export = 0;
glyphname = _cap.stm.mid.2;
lastChange = "2017-04-01 10:56:54 +0000";
layers = (
{
layerId = "4A3087DE-C6CF-4F86-8B90-A264D0797279";
paths = (
{
closed = 0;
nodes = (
"0 157 LINE",
"0 96 OFFCURVE",
"-3 45 OFFCURVE",
"-8 -1 CURVE",
"-5 -4 LINE",
"29 -4 OFFCURVE",
"66 -3 OFFCURVE",
"95 0 CURVE",
"98 16 LINE",
"75 16 LINE SMOOTH",
"62 16 OFFCURVE",
"57 22 OFFCURVE",
"56 49 CURVE SMOOTH",
"55 85 OFFCURVE",
"54 131 OFFCURVE",
"54 157 CURVE SMOOTH"
);
}
);
width = 271;
},
{
associatedMasterId = "4A3087DE-C6CF-4F86-8B90-A264D0797279";
layerId = "A2153CE8-20FB-4A28-B7D0-0A4EE6DB7F21";
name = "Regular May 9 15, 21:38";
paths = (
{
closed = 0;
nodes = (
"0 375 LINE",
"0 173 OFFCURVE",
"-13 44 OFFCURVE",
"-53 3 CURVE",
"-39 -5 OFFCURVE",
"-20 -8 OFFCURVE",
"-5 -8 CURVE SMOOTH",
"34 -8 OFFCURVE",
"65 -4 OFFCURVE",
"71 82 CURVE SMOOTH",
"75 141 OFFCURVE",
"76 291 OFFCURVE",
"76 375 CURVE"
);
}
);
width = 271;
}
);
},
{
export = 0;
glyphname = _cap.stm.btm.3;
lastChange = "2017-04-01 10:56:54 +0000";
layers = (
{
layerId = "4A3087DE-C6CF-4F86-8B90-A264D0797279";
paths = (
{
closed = 0;
nodes = (
"0 194 LINE",
"0 157 OFFCURVE",
"0 133 OFFCURVE",
"-2 90 CURVE SMOOTH",
"-5 21 OFFCURVE",
"-17 13 OFFCURVE",
"-42 10 CURVE",
"-40 -3 LINE",
"-18 -1 OFFCURVE",
"0 0 OFFCURVE",
"27 0 CURVE SMOOTH",
"54 0 OFFCURVE",
"72 -1 OFFCURVE",
"94 -3 CURVE",
"96 10 LINE",
"71 13 OFFCURVE",
"59 21 OFFCURVE",
"56 90 CURVE SMOOTH",
"54 133 OFFCURVE",
"54 157 OFFCURVE",
"54 194 CURVE"
);
}
);
width = 271;
},
{
associatedMasterId = "4A3087DE-C6CF-4F86-8B90-A264D0797279";
layerId = "A2153CE8-20FB-4A28-B7D0-0A4EE6DB7F21";
name = "Regular May 9 15, 21:38";
paths = (
{
closed = 0;
nodes = (
"0 375 LINE",
"0 173 OFFCURVE",
"-13 44 OFFCURVE",
"-53 3 CURVE",
"-39 -5 OFFCURVE",
"-20 -8 OFFCURVE",
"-5 -8 CURVE SMOOTH",
"34 -8 OFFCURVE",
"65 -4 OFFCURVE",
"71 82 CURVE SMOOTH",
"75 141 OFFCURVE",
"76 291 OFFCURVE",
"76 375 CURVE"
);
}
);
width = 271;
}
);
},
{
export = 0;
glyphname = _cap.stm.btm.4;
lastChange = "2017-04-03 21:59:09 +0000";
layers = (
{
layerId = "4A3087DE-C6CF-4F86-8B90-A264D0797279";
paths = (
{
closed = 0;
nodes = (
"0 107 LINE",
"0 14 OFFCURVE",
"22 -5 OFFCURVE",
"56 -5 CURVE SMOOTH",
"73 -5 OFFCURVE",
"95 2 OFFCURVE",
"115 14 CURVE",
"118 33 LINE",
"111 32 OFFCURVE",
"104 32 OFFCURVE",
"98 32 CURVE SMOOTH",
"80 32 OFFCURVE",
"68 44 OFFCURVE",
"64 73 CURVE SMOOTH",
"58 118 OFFCURVE",
"54 174 OFFCURVE",
"54 237 CURVE SMOOTH"
);
}
);
width = 271;
},
{
associatedMasterId = "4A3087DE-C6CF-4F86-8B90-A264D0797279";
layerId = "A2153CE8-20FB-4A28-B7D0-0A4EE6DB7F21";
name = "Regular May 9 15, 21:38";
paths = (
{
closed = 0;
nodes = (
"0 375 LINE",
"0 173 OFFCURVE",
"-13 44 OFFCURVE",
"-53 3 CURVE",
"-39 -5 OFFCURVE",
"-20 -8 OFFCURVE",
"-5 -8 CURVE SMOOTH",
"34 -8 OFFCURVE",
"65 -4 OFFCURVE",
"71 82 CURVE SMOOTH",
"75 141 OFFCURVE",
"76 291 OFFCURVE",
"76 375 CURVE"
);
}
);
width = 271;
}
);
},
{
export = 0;
glyphname = _corner.STM.top.1;
lastChange = "2017-04-24 22:00:22 +0000";
layers = (
{
anchors = (
{
name = left;
position = "{0, 20}";
}
);
layerId = "4A3087DE-C6CF-4F86-8B90-A264D0797279";
paths = (
{
closed = 0;
nodes = (
"0 294 LINE",
"0 22 OFFCURVE",
"-5 13 OFFCURVE",
"-32 13 CURVE",
"-32 0 OFFCURVE",
"-32 -3 OFFCURVE",
"-30 -3 CURVE",
"-11 -1 OFFCURVE",
"3 0 OFFCURVE",
"33 0 CURVE SMOOTH"
);
}
);
width = 134;
}
);
},
{
export = 0;
glyphname = _corner.STM.btm.1;
lastChange = "2017-04-24 22:00:14 +0000";
layers = (
{
anchors = (
{
name = left;
position = "{0, 0}";
}
);
layerId = "4A3087DE-C6CF-4F86-8B90-A264D0797279";
paths = (
{
closed = 0;
nodes = (
"0 294 LINE",
"0 22 OFFCURVE",
"-5 13 OFFCURVE",
"-32 13 CURVE",
"-32 0 OFFCURVE",
"-32 -3 OFFCURVE",
"-30 -3 CURVE",
"-11 -1 OFFCURVE",
"3 0 OFFCURVE",
"33 0 CURVE SMOOTH"
);
}
);
width = 134;
}
);
},
